<svg xmlns="http://www.w3.org/2000/svg" height="1280" preserveAspectRatio="none" style="display: block;" version="1.1" viewBox="0 0 1638 2048" width="1024">
<path d="M 0 0 L 1638 0 L 1638 2048 L 0 2048 L 0 0 z" fill="rgb(255,255,255)" transform="translate(0,0)"></path>
<path d="M 287.239 203.127 C 309.044 190.811 338.028 179.046 360.598 167.474 C 372.773 161.232 386.722 156.244 398.014 148.573 C 423.527 131.242 457.003 80.1263 488.664 76.4199 C 514.376 73.4099 594.616 68.3405 616.174 84.2614 C 632.11 96.0305 654.824 122.141 673.32 135.193 C 698.219 151.496 720.069 164.383 747.116 177.346 C 765.916 186.357 785.576 195.903 804.111 205.474 C 806.509 206.712 807.656 209.658 808.695 212.122 C 815.696 223.149 839.204 282.796 844.86 298.35 C 908.488 473.338 948.809 657.164 989.914 838.492 C 993.803 855.648 1014.55 961.828 1017.59 966.92 C 1027.38 959.4 1058.24 933.921 1068.44 930.468 C 1104.9 918.123 1155.95 922.2 1194.15 924.571 C 1225.14 926.495 1247.3 955.335 1272.58 972.172 C 1308.5 997.721 1357.22 1011.84 1395.79 1034.2 C 1400.55 1041.93 1405.74 1054.89 1409.16 1063.58 C 1497.92 1289.17 1549.26 1528.81 1597.75 1765.71 C 1600.84 1780.82 1612.32 1831.09 1611.02 1843.23 C 1610.17 1844.88 1609.24 1845.64 1607.63 1846.5 C 1596.38 1852.54 1488.52 1872.58 1479.02 1869.11 C 1475.83 1867.95 1474.99 1863.9 1474.04 1860.93 C 1466.79 1838.29 1461.86 1808.9 1456.08 1785.15 C 1449.46 1757.97 1441.92 1731.03 1435.29 1703.87 C 1426.88 1669.43 1419.26 1634.88 1410.13 1600.62 C 1404.37 1579 1398.8 1550.51 1390.13 1530.48 L 1389.66 1529.41 C 1394.5 1627.1 1400.87 1724.7 1408.76 1822.18 C 1411.49 1858.29 1415.04 1894.33 1418.05 1930.42 C 1418.85 1940.03 1419.87 1949.62 1420.1 1959.26 C 1410.43 1961.02 1393.08 1961.96 1382.64 1962.72 C 1356.27 1964.54 1329.88 1966.03 1303.47 1967.19 C 1154.47 1974.6 1005.14 1971.74 856.538 1958.62 C 856.495 1925.3 860.415 1883.14 862.3 1848.99 L 873.572 1654.62 C 876.01 1615.08 879.453 1571.45 880.762 1532.04 C 849.083 1645.7 819.526 1759.94 792.109 1874.7 C 779.014 1873.13 757.275 1867.69 743.93 1864.75 C 714.109 1858.45 684.396 1851.65 654.802 1844.35 C 672.284 1743.67 693.412 1643.66 718.145 1544.52 C 748.164 1421.07 783.836 1295.76 824.971 1175.5 C 841.139 1128.23 860.702 1081.73 880.101 1035.72 C 859.145 953.706 841.805 866.669 822.414 783.722 L 809.027 725.911 C 806.798 716.313 804.058 702.57 800.858 693.544 C 801.077 708.443 802.668 726.43 803.497 741.524 L 811.004 861.051 L 829.031 1138.74 C 808.593 1138.92 786.261 1140.81 765.659 1142.11 C 735.606 1144.1 705.526 1145.68 675.429 1146.84 C 579.089 1150.6 482.633 1150.29 386.319 1145.91 C 346.613 1144.34 295.292 1143.05 256.438 1138.44 C 256.895 1117.62 259.23 1092.65 260.644 1071.6 C 262.796 1035.45 265.231 999.319 267.947 963.21 C 273.892 876.346 280.547 789.531 287.913 702.776 C 284.468 712.206 281.224 726.087 278.611 736.024 C 273.023 757.412 267.552 778.831 262.199 800.28 C 246.04 861.66 230.555 923.216 215.746 984.937 C 210.248 1007.49 205.287 1038.17 198.017 1059.22 C 192.934 1060.76 77.2387 1032.91 65.6789 1029.2 C 66.0046 1016.11 71.4084 987.948 73.9169 974.318 C 79.1647 944.964 84.8177 915.684 90.8742 886.487 C 120.72 737.086 157.541 589.164 201.217 443.206 C 215.259 394.505 230.715 346.223 247.567 298.421 C 259.616 264.696 270.483 234.727 287.239 203.127 z" fill="rgb(11,10,10)" transform="translate(0,0)"></path>
<path d="M 1003.48 990.104 C 1049.42 998.381 1088.72 998.729 1135.31 999.719 C 1134.02 1064.6 1135.26 1132.62 1135.08 1197.8 L 1135.19 1770.11 C 1135.04 1802.72 1135.07 1835.33 1135.3 1867.94 C 1135.37 1878.4 1136.43 1930.23 1134.69 1936 L 1131.07 1937.03 L 1131.37 1938.33 L 1134.19 1938.57 C 1136.3 1941.53 1135.51 1957.37 1135.47 1962.14 C 1089.9 1963.43 1039.58 1960.81 993.75 1958.96 C 965.015 1957.52 936.294 1955.81 907.59 1953.83 C 907.756 1947.82 907.338 1935.25 910.583 1930.81 C 913.301 1931 913.212 1931.17 915.657 1930.08 L 915.407 1928.32 C 912.853 1928.11 912.633 1928.14 910.222 1927.36 C 909.342 1921.41 914.974 1866.6 915.733 1857.95 C 921.576 1797.58 926.57 1737.13 930.713 1676.62 C 938.399 1563.92 944.526 1449.64 921.599 1338.15 C 918.803 1324.56 913.73 1310.11 912.212 1296.49 C 911.455 1289.7 913.235 1276.74 913.832 1269.53 C 914.779 1257.8 915.392 1246.05 915.669 1234.29 C 917.319 1168.33 913.127 1099.27 894.651 1035.62 C 935.929 1021.92 965.095 1006.47 1003.48 990.104 z" fill="rgb(255,255,255)" transform="translate(0,0)"></path>
<path d="M 1274.75 990.353 C 1277.02 989.838 1279.1 989.422 1281.38 990.38 C 1307.57 1001.41 1332.89 1014.56 1358.91 1026.05 C 1367.45 1029.82 1376.11 1033.79 1384.25 1038.38 C 1351.24 1117.53 1358.5 1218.43 1359.43 1302 C 1359.51 1309.25 1353.88 1328.7 1352.27 1337.19 C 1347.74 1360.29 1344.23 1383.58 1341.76 1407 C 1333.19 1485.78 1335.88 1578.44 1341.61 1657.36 C 1345.47 1705.55 1349.76 1753.7 1354.49 1801.81 C 1355.83 1815.21 1368.36 1920.71 1366.44 1928.29 C 1364.86 1928.77 1364.41 1928.87 1362.81 1929.02 L 1361.43 1929.15 L 1361.05 1930.48 L 1361.91 1931.68 L 1366.71 1931.45 C 1368.68 1934.16 1368.85 1950.45 1369.03 1954.79 C 1342.91 1957.3 1315.72 1958.31 1289.49 1959.43 C 1249.24 1962.03 1181.58 1963.32 1140.85 1962.07 C 1140.69 1954.75 1140.35 1947.27 1141 1940 C 1142.49 1938.51 1142.58 1938.37 1143.72 1936.6 L 1141.94 1935.36 C 1140.01 1932.22 1140.81 1890.58 1140.73 1883.89 L 1140.26 1714.77 L 1140.5 999.73 C 1189.49 998.776 1225.84 997.037 1274.75 990.353 z" fill="rgb(255,255,255)" transform="translate(0,0)"></path>
<path d="M 300.248 206.018 C 331.815 190.393 363.543 175.096 395.427 160.13 C 391.754 165.803 387.181 171.494 387.094 178.221 C 389.699 183.31 416.676 199.701 423.549 204.138 C 408.905 214.91 395.28 226.048 380.078 236.996 C 386.262 254.465 400.315 283.298 408.335 300.868 C 439.502 370.434 475.174 437.893 515.122 502.815 C 528.48 524.777 542.533 546.308 557.259 567.377 C 574.989 593.05 579.229 595.074 588.854 626.21 C 591.485 625.05 590.189 625.085 592.865 626.072 C 593.846 626.688 595.996 628.157 596.959 628.472 C 598.518 637.77 598.173 667.501 598.263 678.014 L 598.942 775.573 L 599.17 990.441 C 599.227 1005.06 601.234 1107.54 599.331 1111.99 C 597.414 1112.98 596.542 1113.24 594.412 1113.58 L 594.414 1113.95 C 595.928 1116.26 595.694 1115.53 599.469 1116.32 C 600.892 1119.45 600.511 1137.48 599.155 1140.34 C 592.639 1141.64 577.19 1141.19 570.009 1141.17 C 552.565 1141.18 535.122 1141.02 517.681 1140.71 C 444.971 1139.3 377.019 1137.56 304.339 1133.27 C 304.874 1122.53 307.218 1112.37 307.513 1102.11 C 308.203 1078.11 310.229 1054.21 312.044 1030.27 C 328.668 1036.07 346.963 1037.96 364.798 1040.26 C 384.626 1043.59 442.968 1046.17 445.746 1016.17 C 450.196 968.114 450.494 912.52 454.714 863.771 C 455.5 854.699 457.683 845.822 458.116 837.086 C 458.817 822.911 459.026 809.108 460.143 794.999 C 448.227 792.567 431.719 791.666 419.394 790.209 C 392.299 787.004 364.245 784.827 337.346 780.599 C 342.624 706.846 343.229 630.266 334.705 556.75 C 331.667 536.694 328.228 514.608 322.514 495.17 C 316.586 475.002 319.338 460.951 320.424 440.363 C 321.263 424.454 321.513 407.935 321.73 391.869 C 322.672 329.248 315.45 266.772 300.248 206.018 z" fill="rgb(255,255,255)" transform="translate(0,0)"></path>
<path d="M 551.218 926.267 C 577.996 922.053 588.783 952.847 563.595 963.711 C 536.301 970.437 524.866 939.6 551.218 926.267 z" fill="rgb(11,10,10)" transform="translate(0,0)"></path>
<path d="M 555.135 930.222 C 562.451 930.635 569.265 933.18 571.899 940.708 C 573.12 944.239 572.814 948.118 571.057 951.415 C 568.246 956.66 564.178 958.508 558.82 960.132 C 536.854 960.708 534.907 936.352 555.135 930.222 z" fill="rgb(255,255,255)" transform="translate(0,0)"></path>
<path d="M 552.492 761.357 C 559.651 759.957 567.007 762.53 571.733 768.086 C 576.459 773.642 577.818 781.316 575.288 788.157 C 572.758 794.999 566.733 799.942 559.529 801.086 C 548.662 802.813 538.415 795.513 536.496 784.678 C 534.577 773.843 541.693 763.468 552.492 761.357 z" fill="rgb(11,10,10)" transform="translate(0,0)"></path>
<path d="M 552.113 766.062 C 559.61 765.41 565.597 765.953 569.493 773.526 C 571.498 777.39 571.758 781.926 570.205 785.992 C 568.093 791.628 564.939 793.857 559.737 796.15 C 552.412 796.088 546.688 795.38 542.704 788.378 C 540.731 784.974 540.306 780.889 541.535 777.152 C 543.555 770.939 546.663 768.841 552.113 766.062 z" fill="rgb(255,255,255)" transform="translate(0,0)"></path>
<path d="M 554.48 609.636 C 565.517 608.885 575.092 617.181 575.921 628.212 C 576.75 639.243 568.522 648.877 557.497 649.783 C 546.361 650.699 536.61 642.371 535.773 631.229 C 534.935 620.087 543.333 610.394 554.48 609.636 z" fill="rgb(11,10,10)" transform="translate(0,0)"></path>
<path d="M 554.417 614.691 C 562.497 613.915 569.74 619.676 570.801 627.724 C 571.862 635.771 566.359 643.213 558.354 644.557 C 552.919 645.469 547.419 643.342 544.012 639.01 C 540.606 634.678 539.835 628.832 542.003 623.765 C 544.171 618.698 548.931 615.219 554.417 614.691 z" fill="rgb(255,255,255)" transform="translate(0,0)"></path>
<path d="M 587.997 782.736 L 590.577 784.446 C 591.545 788.083 590.465 809.984 589.994 814.744 C 590.994 817.412 591.397 819.993 589.786 822.367 L 588.471 821.394 C 587.31 815.373 587.95 789.963 587.997 782.736 z" fill="rgb(11,10,10)" transform="translate(0,0)"></path>
<path d="M 697.207 185.744 C 695.018 177.468 691.368 169.649 686.43 162.656 C 683.842 159.011 679.664 154.751 678.247 150.913 L 680.145 150.993 C 690.589 159.16 707.154 166.89 718.875 173.145 C 743.563 186.322 769.026 197.77 794.106 210.068 C 772.896 252.377 768.846 362.369 769.738 411.612 C 770.076 430.283 772.344 452.081 772.033 470.518 C 771.927 476.8 765.245 497.189 763.225 505.04 C 758.963 521.803 755.759 538.818 753.631 555.983 C 744.418 631.093 745.756 708.166 747.786 783.762 C 707.983 787.815 664.122 791.589 624.854 797.589 C 626.283 813.151 625.97 828.298 626.974 843.716 C 629.041 875.459 630.62 906.699 631.731 938.521 C 632.604 963.517 631.897 990.153 635.471 1014.85 C 636.479 1021.82 641.291 1030.84 647.295 1034.3 C 676.975 1051.37 747.555 1038.23 778.57 1032.24 C 779.355 1043 784.915 1098.65 782.529 1103.79 C 778.991 1106.45 779.56 1105.63 774.55 1106.35 L 774.463 1107.86 C 777.621 1109.67 776.361 1106.28 781.505 1108.01 C 785.742 1113.89 784.818 1124.36 784.879 1131.85 C 729.947 1137.56 660.476 1139.01 604.979 1140.84 C 605.488 1101.62 604.309 1063.06 604.266 1024.01 L 603.834 786.815 L 603.044 684.425 C 602.924 669.331 603.43 640.942 601.407 627.143 C 599.498 614.12 592.108 587.003 588.348 573.749 C 580.423 545.418 571.828 517.278 562.57 489.353 C 579.072 461.68 596.977 434.837 613.386 407.088 C 626.119 385.556 702.683 249.397 700.632 235.233 C 699.789 229.407 666.379 208.745 659.547 203.195 C 671.938 199.337 687.144 194.028 697.207 185.744 z" fill="rgb(255,255,255)" transform="translate(0,0)"></path>
<path d="M 889.183 1037.6 C 899.684 1051.46 914.729 1177.76 910.301 1203.21 C 908.629 1212.83 895.212 1245.41 890.948 1257.29 C 879.225 1290.96 868.002 1324.79 857.284 1358.79 C 823.564 1466.06 797.482 1566.61 770.479 1675.49 C 760.26 1715.57 750.868 1755.86 742.308 1796.33 C 738.587 1813.89 733.497 1835.38 731.416 1852.7 C 717.826 1850.07 704.282 1847.2 690.79 1844.09 C 682.197 1842.28 673.124 1839.89 664.549 1837.8 C 665.586 1832.19 667.046 1820.69 669.406 1816.19 C 671.956 1816.76 670.636 1816.67 673.552 1815.79 L 674.111 1814.59 C 671.94 1813.6 670.737 1813.35 669.489 1811.34 C 670.192 1799.47 674.131 1781.6 676.561 1769.5 L 692.006 1696 C 721.644 1554.75 758.031 1415.01 801.041 1277.25 C 820.919 1213.35 841.381 1149.94 867.421 1088.24 C 874.306 1071.93 881.451 1053.42 889.183 1037.6 z" fill="rgb(255,255,255)" transform="translate(0,0)"></path>
<path d="M 294.143 208.797 C 306.303 225.244 317.941 340.167 316.196 366.479 C 315.372 378.901 294.057 439.742 288.356 457.231 C 274.825 498.408 261.767 539.739 249.184 581.215 C 217.226 685.979 189.275 791.923 165.392 898.817 C 158.56 930.393 148.833 975.898 141.467 1008.4 C 140.914 1008.91 140.36 1009.42 139.807 1009.93 C 137.721 1009.65 136.684 1009.54 134.585 1009.5 L 134.179 1011.42 C 136.231 1012.84 137.153 1012.29 140.208 1012.31 C 140.384 1016.43 137.162 1032.1 136.222 1037.31 C 127.045 1035.4 117.891 1033.38 108.762 1031.25 C 97.3415 1028.51 85.6128 1025.29 74.2147 1022.32 C 75.3044 1015.27 76.3488 1008.21 77.3477 1001.14 C 79.4346 1000.39 78.7584 1000.79 80.5232 999.379 C 80.3607 997.79 80.2747 996.19 80.1001 994.604 C 78.4902 979.97 95.604 905.687 99.6638 886.443 C 107.649 848.592 114.744 810.553 123.222 772.803 C 131.312 736.782 140.721 701.107 149.561 665.27 C 179.263 544.865 212.348 424.478 253.548 307.452 C 263.073 280.396 278.656 231.302 294.143 208.797 z" fill="rgb(255,255,255)" transform="translate(0,0)"></path>
<path d="M 797.19 213.557 C 804.812 220.008 815.708 249.079 820.099 259.93 C 874.705 394.89 910.484 538.568 944.402 679.764 C 961.635 751.601 977.807 823.689 992.912 896.004 C 998.176 921.679 1004.12 947.767 1008.47 973.574 C 994.698 985.669 993.195 985.285 976.077 992.98 C 966.519 997.127 956.294 1001.11 946.602 1005.04 C 943.626 989.578 938.199 970.76 934.441 954.972 C 925.651 917.618 916.657 880.311 907.459 843.055 C 896.099 797.275 884.384 751.584 872.315 705.987 C 860.122 656.681 847.02 607.604 833.016 558.781 C 822.608 522.347 811.616 486.083 800.045 450.001 C 796.514 439.247 775.834 380.323 775.6 372.915 C 774.366 333.881 782.412 248.537 797.19 213.557 z" fill="rgb(255,255,255)" transform="translate(0,0)"></path>
<path d="M 1534.22 1830.63 C 1535.23 1825.52 1517.97 1749.63 1515.51 1738.52 C 1490.3 1621.55 1460.31 1505.66 1425.6 1391.15 C 1410.8 1344.29 1395.6 1297.56 1380 1250.96 C 1377.1 1242.16 1364.64 1209.69 1364.24 1203.27 C 1361.83 1165.19 1372.65 1073.58 1388.89 1040.96 C 1406.04 1075.88 1422.64 1124 1435.7 1160.76 C 1470.88 1259.71 1497.56 1361.34 1522.37 1463.3 C 1539.74 1533.76 1555.9 1604.51 1570.86 1675.52 C 1577.31 1706.71 1584.35 1737.84 1590.03 1769.17 C 1592.53 1783 1596.52 1799.76 1597.67 1813.44 C 1594.61 1817.7 1594.39 1813.12 1591.85 1818.84 L 1592.52 1819.93 C 1596.74 1819.16 1595.3 1815.44 1597.68 1815.73 C 1599.97 1820.39 1601.95 1834.2 1603.25 1840.02 C 1582.35 1844.67 1561.35 1848.81 1540.24 1852.44 C 1538.67 1846.12 1537.08 1839.1 1535.32 1832.9 L 1534.22 1830.63 z" fill="rgb(255,255,255)" transform="translate(0,0)"></path>
<path d="M 1534.22 1830.63 C 1539.01 1828.84 1563.67 1823.29 1567.86 1824.23 C 1564.31 1827.69 1540.19 1828.44 1535.32 1832.9 L 1534.22 1830.63 z" fill="rgb(95,96,97)" transform="translate(0,0)"></path>
<path d="M 316.047 390.613 C 316.303 391.216 316.685 392.006 316.693 392.656 C 317.291 437.851 311.796 482.707 308.07 527.669 C 307.134 538.977 304.964 551.071 304.311 562.182 C 300.999 618.542 286.943 668.68 273.341 723.164 L 218.059 940.433 C 215.438 951.044 200.799 1018.1 198.425 1021.17 C 195.39 1023.22 194.421 1023.17 190.761 1023.47 L 190.828 1024.33 C 193.332 1025.07 194.223 1025.33 196.672 1026.42 C 197.12 1030.94 193.531 1044.71 192.363 1049.91 C 178.875 1047.32 165.428 1044.52 152.027 1041.51 L 141.311 1038.48 C 142.199 1031.23 143.696 1022.92 145.802 1015.95 C 150.34 1013.98 149.741 1017.83 153.306 1016.06 L 152.949 1014.26 C 150.446 1013.57 149.363 1013.25 146.974 1012.28 C 146.466 1004.56 159.621 950.549 162.15 938.817 C 202.16 753.099 253.556 570.019 316.047 390.613 z" fill="rgb(255,255,255)" transform="translate(0,0)"></path>
<path d="M 1363.26 1222.75 C 1367.66 1226.53 1381.11 1273.13 1383.83 1281.25 C 1418.76 1382.41 1449.3 1485.04 1475.37 1588.84 C 1492.31 1657.75 1508.17 1726.92 1522.93 1796.33 C 1523.88 1800.68 1524.84 1805.04 1525.78 1809.39 C 1526.63 1813.26 1527.49 1817.09 1527.91 1821.04 C 1528.28 1824.5 1528.26 1828.04 1528.23 1831.53 C 1529.06 1832.06 1529.9 1832.6 1530.74 1833.14 C 1531.94 1838.33 1534.34 1848.97 1535.37 1853.55 C 1528.98 1854.98 1520.71 1856.09 1514.11 1857.16 C 1503.34 1858.48 1493.25 1860.17 1482.54 1861.99 C 1480.9 1855.07 1476.96 1843.65 1481.32 1837.52 C 1485.35 1835.03 1486.62 1837.41 1491.01 1836.27 L 1491.54 1834.35 C 1486.97 1834.77 1482.66 1837.04 1478.96 1836.33 C 1474.27 1831.57 1424.29 1620.12 1418.45 1598.37 L 1395.89 1512.5 C 1391.9 1497.18 1384.26 1472.16 1382.82 1457.02 C 1375.37 1378.75 1364.95 1301.39 1363.26 1222.75 z" fill="rgb(255,255,255)" transform="translate(0,0)"></path>
<path d="M 735.726 1854.23 C 736.689 1848.07 737.828 1841.39 739.31 1835.29 C 741.328 1826.98 744.371 1834.37 748.77 1832.06 C 747.539 1827.93 745.562 1832.05 741.717 1828.24 C 742.667 1817.05 747.773 1795.76 750.314 1784.07 C 756.709 1754.52 763.484 1725.05 770.637 1695.66 C 798.667 1575.67 831.54 1456.86 869.175 1339.52 C 880.642 1304.41 895.492 1255.13 910.274 1221.75 C 909.876 1268.09 904.105 1314.05 899.572 1360.22 C 896.66 1389.89 893.858 1424.69 889.323 1453.81 C 887.245 1467.17 879.296 1496.13 875.746 1510.4 C 866.313 1548.17 856.559 1585.85 846.486 1623.46 C 827.827 1695.68 809.579 1768.02 791.743 1840.45 L 791.155 1841.36 L 784.37 1864.95 C 768.122 1861.53 751.907 1857.96 735.726 1854.23 z" fill="rgb(255,255,255)" transform="translate(0,0)"></path>
<path d="M 791.155 1841.36 C 785.78 1840.29 778.113 1839.26 773.615 1836.63 L 774.728 1836.03 C 780.629 1836.44 786.115 1838.58 791.743 1840.45 L 791.155 1841.36 z" fill="rgb(11,10,10)" transform="translate(0,0)"></path>
<path d="M 775.066 393.79 C 778.086 398.852 783.779 416.514 785.917 422.774 C 795.906 451.999 805.168 481.468 813.694 511.153 C 861.142 675.247 903.855 840.673 941.779 1007.23 L 926.5 1013.87 C 913.157 1018.94 899.857 1024.12 886.601 1029.42 L 830.6 779.889 C 824.145 750.065 816.993 720.395 809.15 690.906 C 805.376 676.684 797.087 651.32 794.764 638.523 C 791.853 616.774 790.181 594.678 787.873 572.827 C 781.831 515.617 772.692 451.428 775.066 393.79 z" fill="rgb(255,255,255)" transform="translate(0,0)"></path>
<path d="M 636.135 856.758 C 636.449 854.292 636.555 852.742 637.209 850.322 C 640.771 849.156 752.883 837.82 758.131 838.407 C 759.104 841.071 759.965 843.431 761.103 846.028 C 762.776 841.369 760.825 839.598 763.419 838.04 C 766.339 843.481 767.133 870.776 767.425 878.315 C 768.137 884.382 768.826 894.717 768.848 900.939 C 769.616 909.618 771.186 923.862 771.2 932.375 C 772.298 936.413 772.988 952.63 773.427 957.47 C 775.485 980.155 775.919 1003.59 777.671 1026.22 C 755.249 1032.8 728.997 1035.65 705.44 1037.14 C 687.496 1037.81 662.497 1039.95 647.56 1028.38 C 640.552 1021.42 638.572 1007.49 638.307 998.633 C 637.313 965.404 635.305 931.868 634.768 898.71 C 633.726 895.655 631.546 853.2 633.034 850.457 L 634.144 850.98 C 634.572 853.136 634.77 854.949 636.135 856.758 z" fill="rgb(255,255,255)" transform="translate(0,0)"></path>
<path d="M 634.768 898.71 L 638.001 898.584 C 644.952 905.335 639.481 1010.24 650.723 1022.53 C 664.982 1038.11 753.017 1029.11 769.791 1020.42 C 776.848 1016.76 762.379 931.057 766.96 927.176 C 770.377 929.105 768.821 929.475 771.2 932.375 C 772.298 936.413 772.988 952.63 773.427 957.47 C 775.485 980.155 775.919 1003.59 777.671 1026.22 C 755.249 1032.8 728.997 1035.65 705.44 1037.14 C 687.496 1037.81 662.497 1039.95 647.56 1028.38 C 640.552 1021.42 638.572 1007.49 638.307 998.633 C 637.313 965.404 635.305 931.868 634.768 898.71 z" fill="rgb(246,244,246)" transform="translate(0,0)"></path>
<path d="M 634.768 898.71 C 633.726 895.655 631.546 853.2 633.034 850.457 L 634.144 850.98 C 634.572 853.136 634.77 854.949 636.135 856.758 C 640.228 863.007 639.482 887.299 639.137 895.334 C 637.499 896.272 637.246 896.356 635.449 896.957 L 634.768 898.71 z" fill="rgb(246,244,246)" transform="translate(0,0)"></path>
<path d="M 767.425 878.315 C 768.137 884.382 768.826 894.717 768.848 900.939 C 765.985 901.218 769.513 904.158 765.774 907.02 L 764.866 906.15 C 763.706 899.82 763.082 895.067 762.868 888.687 C 762.542 878.938 764.261 883.624 767.425 878.315 z" fill="rgb(246,244,246)" transform="translate(0,0)"></path>
<path d="M 394.217 238.672 C 393.893 237.756 392.468 234.803 393.228 234.2 C 426.424 207.857 450.855 194.061 474.493 157.064 C 485.958 292.131 532.485 412.471 573.298 539.928 C 576.719 550.613 582.695 568.39 583.56 579.07 C 584.724 583.604 584.801 584.172 583.838 588.741 C 584.821 589.992 585.785 591.26 586.727 592.542 C 588.62 595.095 588.597 596.328 588.938 599.533 C 588.219 601.127 588.201 601.574 587.125 602.887 C 584.799 600.963 570.078 577.062 567.097 572.697 C 507.461 486.849 455.934 395.642 413.181 300.255 C 405.03 282.415 396.776 264.411 388.407 246.653 C 386.761 243.162 386.297 240.69 387.68 237.424 C 391.281 236.468 389.971 236.647 394.217 238.672 z" fill="rgb(255,255,255)" transform="translate(0,0)"></path>
<path d="M 587.125 602.887 C 584.799 600.963 570.078 577.062 567.097 572.697 C 507.461 486.849 455.934 395.642 413.181 300.255 C 405.03 282.415 396.776 264.411 388.407 246.653 C 386.761 243.162 386.297 240.69 387.68 237.424 C 391.281 236.468 389.971 236.647 394.217 238.672 C 396.421 243.501 399.233 247.794 399.757 253.017 C 403.904 257.693 421.652 298.686 425.909 307.72 C 427.07 309.721 432.419 320.881 432.65 322.725 C 436.432 330.531 440.679 338.882 444.152 346.77 L 444.135 348.333 C 447.538 351.951 452.454 362.997 454.482 367.95 C 456.081 370.467 456.718 371.023 456.744 374.031 C 461.501 378.625 472.847 400.777 476.576 407.764 L 476.855 408.501 C 480.013 414.401 493.741 435.159 493.473 440.577 L 495.163 440.843 C 498.463 447.764 499.846 449.644 503.857 455.664 C 504.828 457.374 507.499 461.444 507.323 462.983 C 510.172 467.154 515.988 476.202 518.386 480.675 C 530.009 503.407 548.278 527.627 561.618 549.844 C 566.97 558.757 574.732 567.121 579.189 576.496 C 580.779 577.499 581.878 578.196 583.56 579.07 C 584.724 583.604 584.801 584.172 583.838 588.741 C 584.821 589.992 585.785 591.26 586.727 592.542 C 588.62 595.095 588.597 596.328 588.938 599.533 C 588.219 601.127 588.201 601.574 587.125 602.887 z" fill="rgb(246,244,246)" transform="translate(0,0)"></path>
<path d="M 399.757 253.017 C 403.904 257.693 421.652 298.686 425.909 307.72 C 424.143 307.57 424.757 307.63 423.074 306.687 C 415.288 292.15 407.082 271.634 399.573 256.354 C 399.165 255.523 399.568 253.925 399.757 253.017 z" fill="rgb(11,10,10)" transform="translate(0,0)"></path>
<path d="M 456.744 374.031 C 461.501 378.625 472.847 400.777 476.576 407.764 C 471.651 406.982 457.124 379.082 456.744 374.031 z" fill="rgb(11,10,10)" transform="translate(0,0)"></path>
<path d="M 476.855 408.501 C 480.013 414.401 493.741 435.159 493.473 440.577 C 492.167 439.742 490.72 438.424 490.006 437.049 C 486.672 430.628 475.486 414.981 476.855 408.501 z" fill="rgb(11,10,10)" transform="translate(0,0)"></path>
<path d="M 444.152 346.77 C 439.213 346.014 433.215 329.966 431.461 325.114 L 432.65 322.725 C 436.432 330.531 440.679 338.882 444.152 346.77 z" fill="rgb(11,10,10)" transform="translate(0,0)"></path>
<path d="M 444.135 348.333 C 447.538 351.951 452.454 362.997 454.482 367.95 C 449.958 366.915 442.797 352.105 444.135 348.333 z" fill="rgb(11,10,10)" transform="translate(0,0)"></path>
<path d="M 507.323 462.983 C 510.172 467.154 515.988 476.202 518.386 480.675 L 515.645 479.952 C 512.7 476.268 507.383 468.971 505.718 464.69 L 507.323 462.983 z" fill="rgb(11,10,10)" transform="translate(0,0)"></path>
<path d="M 503.857 455.664 L 500.737 455.327 C 496.635 450.914 495.291 448.304 493.539 442.586 L 495.163 440.843 C 498.463 447.764 499.846 449.644 503.857 455.664 z" fill="rgb(11,10,10)" transform="translate(0,0)"></path>
<path d="M 312.129 1025.06 C 314.816 981.746 318 938.468 321.68 895.231 C 322.491 884.439 324.729 844.761 326.67 836.235 L 328.293 835.356 L 331.2 839.22 C 335.057 839.436 330.989 839.055 334.92 836.711 C 357.162 838.988 379.978 842.55 402.348 844.928 C 409.629 845.702 438.566 848.762 444.065 850.406 C 445.897 853.513 445.256 852.813 444.876 857.222 L 445.986 857.048 L 445.762 852.032 L 446.923 850.766 L 449.357 851.179 C 451.015 855.921 450.062 869.276 449.231 874.306 C 448.092 898.262 446.38 922.74 444.753 947.053 C 442.517 965.937 444.755 1003.78 438.801 1020.15 C 427.577 1051 332.297 1032.94 312.129 1025.06 z" fill="rgb(255,255,255)" transform="translate(0,0)"></path>
<path d="M 444.876 857.222 L 445.986 857.048 L 445.762 852.032 L 446.923 850.766 L 449.357 851.179 C 451.015 855.921 450.062 869.276 449.231 874.306 C 447.599 863.009 441.918 866.833 444.876 857.222 z" fill="rgb(246,244,246)" transform="translate(0,0)"></path>
<path d="M 910.486 1314.31 C 914.006 1324.68 919.362 1354.95 921.16 1365.79 C 937.156 1462.21 933.334 1560.41 926.794 1657.5 C 923.623 1708.22 919.653 1758.9 914.886 1809.5 C 911.447 1847.49 908.361 1885.76 904.858 1923.75 C 904.235 1930.51 899.507 1924.62 895.072 1928.06 L 895.984 1929.21 C 899.291 1929.41 900.23 1929.3 903.27 1930.43 C 904.414 1933.58 902.752 1948.98 902.409 1953.39 L 886.75 1952.82 C 879.451 1952.34 872.162 1951.71 864.889 1950.92 C 865.065 1945.5 864.594 1930.66 868.023 1927.29 L 871.638 1927.55 L 872.739 1926.43 L 871.89 1925.04 L 867.156 1924.95 C 865.8 1922.61 867.839 1896.94 868.071 1892.53 C 869.757 1858 871.727 1823.49 873.979 1789 L 885.968 1593.5 C 890.675 1512.65 895.248 1433.76 905.735 1353.36 C 907.41 1340.52 907.812 1326.95 910.486 1314.31 z" fill="rgb(255,255,255)" transform="translate(0,0)"></path>
<path d="M 1362.17 1318.61 C 1366.39 1329.6 1368.46 1369.69 1370.08 1383.22 C 1380.15 1467.33 1382.14 1552.02 1386.89 1636.54 C 1389.22 1678 1392.64 1718.74 1395.89 1760.15 C 1398.37 1796.21 1401.07 1832.25 1404 1868.28 C 1405 1880.03 1406.1 1891.78 1407.28 1903.51 C 1407.81 1908.65 1409.72 1918.92 1408.39 1923.43 C 1405.6 1926.33 1406.44 1925.42 1401.8 1926.46 L 1401.28 1927.91 L 1402.71 1929.09 L 1407.57 1928.42 C 1411.22 1931.28 1411.4 1946.53 1411.77 1951.46 L 1398 1952.77 C 1390.14 1953.33 1382.29 1953.84 1374.43 1954.28 C 1374.05 1948.56 1373.19 1942.85 1373.06 1937.11 C 1372.96 1932.84 1372.54 1933.16 1375.56 1930.2 L 1374.86 1929.01 C 1374.66 1928.65 1372.57 1925.31 1372.57 1925.27 C 1370.01 1900.16 1367.83 1874.95 1365.05 1849.79 C 1359.12 1798.2 1354.15 1746.51 1350.14 1694.73 C 1341.38 1589.82 1336.15 1485.99 1350.37 1381.11 C 1352.69 1364 1356.89 1334.54 1362.17 1318.61 z" fill="rgb(255,255,255)" transform="translate(0,0)"></path>
<path d="M 316.381 494.755 C 322.782 502.009 332.119 576.314 333.242 588.559 C 335.466 612.791 338.635 768.151 331.641 779.23 C 328.504 779.101 325.912 778.637 323.183 780.077 C 320.632 784.04 317.796 820.689 318.768 827.333 C 321.667 847.132 319.196 861.133 317.525 881.148 L 311.909 952.415 C 309.28 986.404 306.907 1020.41 304.79 1054.44 C 304.245 1062.7 303.756 1099.48 299.332 1104.2 L 295.014 1103.99 L 294.43 1105.55 C 296.2 1108.87 297.752 1105.04 301.003 1108.05 C 301.349 1113.52 300.057 1127.49 298.005 1132.36 L 295.236 1133.09 C 285.107 1132.31 274.964 1131.73 264.812 1131.35 C 265.543 1125.96 266.258 1107.29 267.712 1104.46 L 270.268 1104.47 L 270.852 1103.29 C 269.989 1102.57 269.416 1102.12 268.484 1101.46 L 267.638 1100.87 C 269.656 1041.83 276.096 975.779 280.234 916.5 C 286.505 826.662 292.669 735.743 300.194 646.058 C 304.326 596.815 311.427 544.542 316.381 494.755 z" fill="rgb(255,255,255)" transform="translate(0,0)"></path>
<path d="M 772.731 490.506 C 774.957 497.862 776.863 524.728 778.022 533.968 C 782.38 568.694 786.278 604.206 789.051 639.097 C 794.072 702.256 795.183 766.39 799.49 829.532 C 804.807 899.765 809.377 970.052 813.2 1040.38 C 813.839 1051.26 818.001 1094.64 816.521 1102.94 C 814.086 1104.79 808.71 1104.4 805.147 1104.64 L 804.956 1105.92 C 808.646 1107.46 813.458 1106.87 817.636 1106.75 C 818.166 1115.52 819.055 1121.92 820.349 1130.55 L 805.611 1131.05 L 789.281 1131.89 C 789.258 1123.47 788.18 1116.15 788.581 1107.6 L 791.142 1107.52 C 791.101 1101.78 788.483 1105.92 788.075 1098.56 C 783.566 1016.9 775.17 935.43 770.358 853.768 C 769.577 840.527 773.768 791.509 765.699 783.848 C 761.887 782.041 757.183 782.73 752.77 782.876 C 747.976 712.435 750.201 553.387 772.731 490.506 z" fill="rgb(255,255,255)" transform="translate(0,0)"></path>
<path d="M 610.797 158.667 C 624.397 179.831 647.086 202.336 668.075 215.819 C 674.319 219.83 691.513 232.017 696.374 236.557 C 689.006 257.97 676.077 280.158 665.822 300.495 C 636.436 358.774 603.19 415.016 568.973 470.559 C 567.222 473.4 563.18 480.629 560.399 481.838 C 558.552 480.141 558.56 477.835 558.096 475.22 L 560.917 474.081 C 563.845 466.726 574.913 450.416 575.971 445.74 L 574.926 445.595 C 572.853 446.967 559.821 470.079 557.577 474.183 C 553.484 463.5 548.343 448.853 544.981 437.836 C 557.848 395.69 569.692 353.238 580.502 310.518 C 592.428 264.323 606.126 206.316 610.797 158.667 z" fill="rgb(255,255,255)" transform="translate(0,0)"></path>
<path d="M 672.519 269.726 C 673.764 271.003 673.222 270.3 673.686 272.326 C 656.343 302.339 642.216 335.612 623.946 365.244 C 621.249 369.618 617.721 376.423 615.049 380.023 C 614.551 379.417 613.984 378.366 613.559 377.656 C 626.949 355.938 639.453 333.686 651.041 310.955 C 657.627 298.245 665.105 281.659 672.519 269.726 z" fill="rgb(11,10,10)" transform="translate(0,0)"></path>
<path d="M 609.488 386.645 L 609.978 388.991 C 607.181 394.533 599.354 409.764 594.911 413.119 L 594.588 410.77 C 597.327 405.16 605.649 391.292 609.488 386.645 z" fill="rgb(11,10,10)" transform="translate(0,0)"></path>
<path d="M 684.53 242.577 L 685.746 244.091 C 684.721 248.407 677.373 265.723 674.347 269.132 L 673.905 268.623 C 673.064 264.645 682.129 247.556 684.53 242.577 z" fill="rgb(11,10,10)" transform="translate(0,0)"></path>
<path d="M 1023.94 972.131 C 1035.58 967.436 1052.37 948.091 1064.73 942.601 C 1103.32 925.464 1168.24 929.437 1209.06 937.112 C 1215.05 938.238 1258.87 972.215 1260.84 975.383 L 1258.1 976.779 L 1258.91 977.763 L 1260.4 977.843 C 1264.78 978.105 1266.75 977.935 1270.05 980.982 L 1271.55 982.678 L 1271.07 983.791 C 1252.09 989.051 1205.5 990.374 1185.01 992.352 C 1160.87 994.684 1019.74 992.182 1010.73 983.001 C 1015.22 978.601 1018.82 977.7 1023.13 973.024 L 1023.94 972.131 z" fill="rgb(255,255,255)" transform="translate(0,0)"></path>
<path d="M 515.874 137.425 C 524.939 136.719 531.762 136.61 540.812 136.622 C 542.308 184.589 540.081 240.46 540.118 289.56 L 540.224 372.318 C 540.266 387.644 540.928 407.229 539.813 422.188 C 537.346 413.171 534.161 403.425 531.393 394.434 C 526.292 380.668 520.053 357.349 515.909 342.95 C 496.313 274.857 481.5 211.511 478.909 140.372 L 515.874 137.425 z" fill="rgb(255,255,255)" transform="translate(0,0)"></path>
<path d="M 546.438 135.918 C 568.048 137.286 585.659 139.315 607.123 142.446 C 607.251 150.802 606.461 157.824 605.342 166.054 C 595.955 235.097 577.838 302.992 559.563 370.2 C 556.151 383.579 550.37 405.041 545.8 417.67 C 545.446 409.916 545.285 401.748 545.358 393.992 C 546.162 308.085 543.611 221.757 546.438 135.918 z" fill="rgb(255,255,255)" transform="translate(0,0)"></path>
<path d="M 751.873 788.408 C 755.877 787.828 760.292 787.461 762.301 791.597 C 767.378 802.045 766.318 819.962 766.56 831.115 C 755.099 833.571 735.467 834.977 723.142 836.182 C 698.034 838.709 672.905 841.029 647.759 843.14 C 642.855 843.715 637.421 844.069 632.458 844.496 L 630.976 801.507 C 670.664 797.716 712.12 792.762 751.873 788.408 z" fill="rgb(255,255,255)" transform="translate(0,0)"></path>
<path d="M 326.776 784.68 C 343.996 785.527 371.765 790.214 389.669 792.163 C 408.673 794.231 435.78 796.152 453.42 799.712 C 455.116 802.481 454.609 800.975 454.652 804.486 C 453.245 806.788 451.692 807.063 449.131 808.162 L 448.063 808.611 C 456.085 822.007 453.212 822.171 452.472 837.985 C 452.339 840.926 452.495 841.766 451.122 844.428 C 440.72 846.377 341.687 831.793 323.95 829.599 C 324.053 816.255 325.826 798.308 326.776 784.68 z" fill="rgb(255,255,255)" transform="translate(0,0)"></path>
<path d="M 395.321 171.895 C 409.733 144.375 437.874 118.211 462.452 99.4922 L 464.659 100.575 C 466.943 98.7983 468.536 93.6955 475.209 90.3173 C 475.862 93.9955 474.196 114.347 473.936 119.678 C 473.525 130.169 473.502 140.671 473.869 151.163 C 467.476 160.105 446.043 191.832 436.695 193.528 C 433.214 191.507 432.269 190.267 428.762 190.937 C 431.799 194.639 433.547 192.819 433.576 198.619 L 432.141 199.8 C 423.736 199.304 400.015 184.024 393.554 177.849 C 392.991 174.549 393.167 175.599 395.321 171.895 z" fill="rgb(255,255,255)" transform="translate(0,0)"></path>
<path d="M 395.321 171.895 C 401.45 173.05 404.625 175.423 409.984 178.568 C 414.614 181.191 425.322 186.673 428.281 190.419 L 428.762 190.937 C 431.799 194.639 433.547 192.819 433.576 198.619 L 432.141 199.8 C 423.736 199.304 400.015 184.024 393.554 177.849 C 392.991 174.549 393.167 175.599 395.321 171.895 z" fill="rgb(246,244,246)" transform="translate(0,0)"></path>
<path d="M 409.984 178.568 C 414.614 181.191 425.322 186.673 428.281 190.419 L 425.923 190.665 C 420.683 188.031 412.32 184.036 409.984 178.568 z" fill="rgb(11,10,10)" transform="translate(0,0)"></path>
<path d="M 608.312 87.4433 C 616.923 90.3659 666.472 141.491 673.493 152.021 C 680.51 162.545 686.2 172.197 692.243 183.989 L 679.396 190.738 C 674.374 193.609 660.498 198.774 654.857 199.706 C 645.545 195.954 618.605 163.167 612.46 153.693 C 611.713 131.853 611.624 108.958 608.312 87.4433 z" fill="rgb(255,255,255)" transform="translate(0,0)"></path>
<path d="M 627.012 111.67 C 630.788 113.046 645.996 128.751 647.09 132.938 L 646.03 132.878 C 638.998 125.547 633.282 119.67 627.012 111.67 z" fill="rgb(11,10,10)" transform="translate(0,0)"></path>
<path d="M 499.316 83.8134 C 518.221 78.7002 581.911 81.98 602.462 86.4594 C 605.289 96.7654 606.002 103.657 606.435 114.37 C 590.252 112.366 560.037 108.757 544.088 109.143 C 532.344 109.203 490.348 111.303 479.94 114.49 C 477.823 110.035 478.977 97.3711 481.471 92.7467 C 483.366 89.2322 485.413 89.5547 488.996 88.5467 C 486.216 86.8729 486.558 87.4869 482.635 87.654 L 481.884 86.2023 L 483.006 84.9597 C 487.72 83.6007 494.24 83.8677 499.316 83.8134 z" fill="rgb(255,255,255)" transform="translate(0,0)"></path>
<path d="M 488.996 88.5467 C 486.216 86.8729 486.558 87.4869 482.635 87.654 L 481.884 86.2023 L 483.006 84.9597 C 487.72 83.6007 494.24 83.8677 499.316 83.8134 C 498.005 88.7324 493.608 90.2316 488.996 88.5467 z" fill="rgb(246,244,246)" transform="translate(0,0)"></path>
<path d="M 479.94 114.49 C 490.348 111.303 532.344 109.203 544.088 109.143 L 544.898 110.995 C 543.422 112.621 543 112.553 540.92 113.42 L 543.268 115.43 C 549.172 113.839 600.708 117.481 606.314 120.333 C 607.618 125.212 607.243 132.217 607.208 137.44 C 550.789 128.219 536.177 129.543 478.091 135.696 C 478.064 132.239 477.627 123.949 478.842 121.28 L 479.655 120.987 C 479.986 118.705 479.929 116.779 479.94 114.49 z" fill="rgb(255,255,255)" transform="translate(0,0)"></path>
<path d="M 479.94 114.49 C 490.348 111.303 532.344 109.203 544.088 109.143 L 544.898 110.995 C 543.422 112.621 543 112.553 540.92 113.42 L 539.033 115.79 L 537.776 115.58 L 536.604 113.526 L 533.803 113.348 C 533.724 114.701 533.72 114.851 533.054 116.115 L 530.378 116.012 L 530.667 113.409 L 529.05 113.255 L 526.77 116.46 C 524.125 115.7 520.396 114.124 518.137 114.694 L 516.875 116.86 C 512.228 117 510.362 115.854 506.64 115.961 C 501.362 116.114 484.002 120.711 479.655 120.987 C 479.986 118.705 479.929 116.779 479.94 114.49 z" fill="rgb(11,10,10)" transform="translate(0,0)"></path>
<path d="M 587.125 602.887 L 589.68 603.821 C 592.847 613.673 595.009 617.889 596.959 628.472 C 595.996 628.157 593.846 626.688 592.865 626.072 C 594.797 621.9 588.25 610.697 587.125 602.887 z" fill="rgb(246,244,246)" transform="translate(0,0)"></path>
<metadata><recraft-signature>{"signed_by": "recraft", "signature_b64": "L4ghhG2Yn/nRMZiDIHNr1qMqSFYaIaIfizxwzyKb4RWbMYnZOf9DJUsFLAVX1VTjmKO2eTulBnpkXOzAlH8ABw==", "signing_algo": "Ed25519", "generation_timestamp": 1784469033, "identifier": "e9534305-07d7-4628-a9b3-1104b49a350e"}</recraft-signature></metadata></svg>