<svg xmlns="http://www.w3.org/2000/svg" height="1536" preserveAspectRatio="none" style="display: block;" version="1.1" viewBox="0 0 1365 2048" width="1024">
<path d="M 0 0 L 1365 0 L 1365 2048 L 0 2048 L 0 0 z" fill="rgb(254,254,254)" transform="translate(0,0)"></path>
<path d="M 949.593 68.4522 C 980.019 67.2543 1015.68 67.7303 1046.34 67.8397 C 1079.93 67.9595 1123.92 67.7181 1157.03 70.9108 C 1157.77 84.0857 1155.64 131.062 1158.34 139.305 C 1176.45 194.591 1209.19 255.62 1223.37 311.805 C 1245.15 398.101 1253.89 486.96 1261.75 574.894 C 1274.6 735.139 1283.09 895.703 1287.21 1056.41 C 1293.65 1252.42 1298.14 1448.49 1300.68 1644.59 C 1301.05 1667.64 1304.92 1898.89 1305.34 1899.59 C 1308.54 1899.62 1309.6 1899.4 1312.46 1900.63 C 1315.49 1906.15 1315.07 1955.52 1314.96 1965.17 C 1253.66 1983.35 1139.18 1982.38 1076.25 1974.04 C 1075.51 1960.55 1073.05 1916.75 1074.47 1905.19 C 1077.58 1902.09 1077.05 1905.55 1081.55 1903.02 C 1082.13 1890.8 1080.59 1866.7 1080.14 1853.79 C 1079.04 1820.41 1077.73 1787.05 1076.19 1753.69 C 1072.68 1659.41 1068.26 1565.18 1062.92 1470.99 L 1041.82 1101.62 C 1033.91 964.73 1025.52 820.071 1011.73 683.761 C 1010.07 667.137 1008.61 650.109 1006.1 633.618 C 995.314 710.988 988.033 795.444 981.998 873.866 C 958.127 1192.17 940.799 1510.94 930.026 1829.96 C 929.741 1841.43 926.142 1897.7 930.109 1904.28 L 934.777 1905.1 C 937.5 1908.7 932.73 1964.94 931.695 1972.63 C 872.34 1988.02 751.359 1978.35 691.982 1962.85 C 691.983 1941.56 690.851 1920.02 691.364 1898.83 L 703.88 1900.55 C 707.752 1587.87 715.249 1275.25 726.372 962.751 C 730.812 832.861 738.464 703.101 749.323 573.589 C 755.917 500.322 763.825 422.061 778.946 350.235 C 789.577 299.742 809.06 244.865 828.859 197.354 C 833.218 186.908 838.003 176.645 843.202 166.592 C 846.319 160.435 851.252 151.497 853.52 145.017 C 857.556 133.485 852.076 78.7794 857.678 72.283 C 867.759 69.4482 934.728 68.8697 949.593 68.4522 z" fill="rgb(24,23,23)" transform="translate(0,0)"></path>
<path d="M 1101.66 80.025 L 1108.63 79.9292 C 1113.04 83.1398 1115.54 82.3416 1121.21 82.0218 L 1121.98 84.3179 C 1125.12 84.0162 1131.68 83.2699 1134.33 84.6296 C 1131.07 85.954 1128.22 86.657 1124.84 87.5795 C 1136.57 89.3391 1139.26 80.4296 1148.17 83.8837 C 1149.68 88.9204 1149.24 133.132 1148.81 140.51 C 1136.48 143.022 1123.58 143.647 1111.03 144.429 L 1112.33 148.399 L 1111.21 150.214 L 1112.62 150.662 C 1116.14 153.678 1136.08 193.568 1140.36 201.195 C 1165.02 245.214 1191.46 288.143 1216.18 332.108 C 1221.17 340.978 1222.93 345.842 1225.23 355.584 C 1222.42 351.107 1218.3 344.043 1214.88 340.316 L 1214.12 341.007 C 1216.45 348.207 1225.95 357.193 1227.11 362.746 C 1228.99 371.735 1230.54 383.434 1231.95 392.663 C 1235.76 417.538 1239.22 442.465 1242.33 467.438 C 1253.25 560.151 1261.01 653.21 1265.58 746.453 C 1270.5 824.215 1274.1 902.054 1276.39 979.938 C 1283.65 1191.19 1288.79 1402.51 1291.8 1613.86 C 1292.94 1709.75 1294.79 1805.63 1297.33 1901.5 C 1265.97 1906.07 1234.78 1910.3 1203.05 1911.32 L 1194.33 1645.3 C 1185.24 1443.65 1175.06 1242.06 1163.81 1040.52 C 1160.22 976.288 1156.31 912.078 1152.07 847.889 L 1147.57 778.484 C 1147.06 770.881 1147.72 751.832 1143 746.864 L 1141.42 747.292 C 1138.79 754.928 1148.91 890.572 1150.26 911.832 C 1170.74 1244.86 1186.56 1578.16 1197.7 1911.63 C 1161.68 1913.11 1125.61 1911.27 1089.94 1906.12 C 1089.77 1868.62 1087.24 1824.96 1085.74 1787.16 C 1083.04 1712.56 1079.75 1637.98 1075.88 1563.42 C 1065 1345.73 1052.38 1128.13 1038.03 910.639 C 1033.47 840.306 1028.06 770.031 1021.8 699.829 C 1019.53 676.403 1017.36 652.979 1014.9 629.572 C 1013.67 617.951 1010.01 602.314 1009.93 591.182 C 1033.05 570.96 1061.62 550.033 1086.95 532.547 C 1092.32 528.841 1101.1 526.06 1103.53 520.747 L 1102.43 518.964 C 1096.57 517.785 1076.14 529.187 1069.78 532.18 L 1010.48 559.991 C 1009.11 516.873 1010.96 472.443 1010.88 429.266 L 1009.95 153.02 C 1021.13 152.65 1032.31 152.484 1043.49 152.521 C 1045.87 154.258 1045.11 153.785 1045.92 157.611 L 1047.08 158.124 C 1047.64 156.39 1048.21 154.661 1048.79 152.938 C 1052.25 151.818 1083.54 150.282 1090.15 149.844 L 1090.45 148.612 C 1091.57 154.86 1089.39 157.133 1095.45 160.736 C 1097.33 160.772 1105.01 157.306 1108.59 156.418 C 1111.24 152.97 1109.88 145.76 1109.29 141.52 C 1106.55 121.909 1108.4 102.706 1109.47 82.9614 C 1107.36 80.4817 1105.53 80.8569 1101.66 80.025 z" fill="rgb(254,254,254)" transform="translate(0,0)"></path>
<path d="M 1121.98 84.3179 C 1125.12 84.0162 1131.68 83.2699 1134.33 84.6296 C 1131.07 85.954 1128.22 86.657 1124.84 87.5795 C 1136.57 89.3391 1139.26 80.4296 1148.17 83.8837 C 1149.68 88.9204 1149.24 133.132 1148.81 140.51 C 1136.48 143.022 1123.58 143.647 1111.03 144.429 C 1109.04 126.819 1109.61 102.826 1111.09 85.2381 C 1115.5 85.1342 1117.62 85.0237 1121.98 84.3179 z" fill="rgb(254,254,254)" transform="translate(0,0)"></path>
<path d="M 1101.66 80.025 L 1108.63 79.9292 C 1113.04 83.1398 1115.54 82.3416 1121.21 82.0218 L 1121.98 84.3179 C 1117.62 85.0237 1115.5 85.1342 1111.09 85.2381 C 1109.61 102.826 1109.04 126.819 1111.03 144.429 L 1112.33 148.399 L 1111.21 150.214 C 1111.59 153.24 1112.02 154.246 1110.79 156.872 C 1107.96 159.761 1102.86 160.244 1098.62 161.148 L 1114.74 331.921 C 1115.92 345.493 1120.55 388.836 1119.28 400.482 L 1117.43 401.776 L 1118.29 402.822 L 1117.98 402.694 L 1118.89 402.005 L 1117.36 401.839 C 1112.32 390.858 1110 340.154 1108.63 324.171 L 1098.79 218.395 C 1097.42 202.606 1096.19 186.561 1094.61 170.802 C 1093.68 161.528 1088.01 160.843 1090.15 149.844 L 1090.45 148.612 C 1091.57 154.86 1089.39 157.133 1095.45 160.736 C 1097.33 160.772 1105.01 157.306 1108.59 156.418 C 1111.24 152.97 1109.88 145.76 1109.29 141.52 C 1106.55 121.909 1108.4 102.706 1109.47 82.9614 C 1107.36 80.4817 1105.53 80.8569 1101.66 80.025 z" fill="rgb(4,5,4)" transform="translate(0,0)"></path>
<path d="M 899.954 150.303 C 902.719 150.85 903.956 150.471 905.381 152.98 C 905.609 153.812 911.545 159.549 911.551 159.479 C 905.17 230.14 897.612 300.89 891.46 371.632 C 890.805 379.168 887.657 396.73 890.052 402.678 L 891.808 403.012 C 898.063 397.99 911.485 168.504 919.214 158.82 C 922.226 158.592 923.579 158.715 926.613 158.951 C 930.571 156.128 928.736 155.173 931.381 151.581 C 938.56 150.681 955.308 152.081 963.732 152.425 C 977.68 152.99 991.639 153.194 1005.6 153.035 L 1005.64 562.019 C 990.946 571.236 909.427 609.267 905.709 618.427 L 906.445 619.711 C 912.483 619.77 934.489 606.174 941.503 602.392 C 962.522 591.128 983.607 579.988 1004.76 568.973 L 1004.76 588.948 C 994.999 596.492 945.283 636.363 944.266 644.294 L 944.513 644.33 C 954.381 641.356 991.406 606.488 1002.84 597.192 C 988.603 700.354 978.072 803.993 971.263 907.909 C 965.391 982.846 960.322 1057.84 956.057 1132.89 C 944.365 1316.76 934.586 1500.75 926.72 1684.83 C 923.691 1759.06 922.938 1832.84 920.207 1906.75 C 884.042 1910.8 847.64 1912.36 811.261 1911.41 C 815.721 1746.29 822.238 1581.22 830.808 1416.25 C 833.608 1360.45 837.739 1304.55 840.196 1248.75 C 842.069 1223.29 842.975 1195.9 844.499 1170.21 L 859.841 905.945 L 867.675 791.102 C 868.232 783.25 871.655 749.436 870.536 744.61 L 868.466 743.735 L 866.826 744.81 C 862.599 754.531 855.657 882.915 854.438 901.433 C 832.295 1237.68 815.861 1574.27 805.145 1911.07 C 775.613 1910 740.433 1906.7 711.547 1901.64 C 712.245 1879.65 711.953 1856.68 712.359 1834.55 L 716.119 1618.15 C 721.21 1341.95 730.02 1065.84 742.546 789.879 C 748.177 686.123 755.05 576.676 767.807 473.559 C 771.578 441.531 776.16 409.604 781.549 377.808 C 782.647 371.489 783.837 364.789 785.269 358.518 C 786.133 354.735 790.716 349.531 790.657 346.283 L 788.952 345.502 C 789.702 338.744 807.135 311.759 811.363 304.394 L 854.488 228.286 C 861.82 215.275 892.779 158.076 899.954 150.303 z" fill="rgb(254,254,254)" transform="translate(0,0)"></path>
<path d="M 942.582 87.8322 C 971.681 88.2779 1000.78 88.3038 1029.88 87.9099 C 1037.03 87.7846 1084.17 86.2214 1088.6 87.2609 L 1088.45 89.193 C 1085.31 90.1649 1084.98 90.0568 1081.62 89.9192 L 1080.14 91.1666 C 1082.18 91.9689 1088.32 91.8634 1088.34 92.7434 C 1088.65 102.613 1090.9 130.716 1088.53 138.937 L 1086.84 140.114 L 1084.29 141.297 L 1088.61 142.352 L 1089.37 143.902 L 1088.31 145.409 C 1069.22 147.303 937.36 149.728 929.329 144.852 L 928.394 140.991 C 930.359 132.885 927.89 105.895 928.751 95.9315 C 929.51 87.1426 932.268 94.3047 937.325 90.2675 C 934.826 88.6094 933.241 90.4051 929.559 88.8946 C 933.928 87.0874 937.843 87.6394 942.582 87.8322 z" fill="rgb(254,254,254)" transform="translate(0,0)"></path>
<path d="M 928.394 140.991 C 937.167 139.724 968.182 141.185 979.063 141.717 C 993.799 142.437 1016.28 140.791 1028.8 141.568 C 1039.73 142.247 1081.42 139.011 1086.84 140.114 L 1084.29 141.297 L 1088.61 142.352 L 1089.37 143.902 L 1088.31 145.409 C 1069.22 147.303 937.36 149.728 929.329 144.852 L 928.394 140.991 z" fill="rgb(244,243,245)" transform="translate(0,0)"></path>
<path d="M 942.582 87.8322 C 971.681 88.2779 1000.78 88.3038 1029.88 87.9099 C 1037.03 87.7846 1084.17 86.2214 1088.6 87.2609 L 1088.45 89.193 C 1085.31 90.1649 1084.98 90.0568 1081.62 89.9192 L 1080.14 91.1666 C 1069.06 95.9974 960.967 92.242 941.887 92.423 L 941.09 91.1712 L 942.582 87.8322 z" fill="rgb(244,243,245)" transform="translate(0,0)"></path>
<path d="M 1017.74 101.979 C 1036.43 100.194 1043.09 116.661 1028.18 128.061 C 1011.08 131.917 1004.35 113.285 1017.74 101.979 z" fill="rgb(4,5,4)" transform="translate(0,0)"></path>
<path d="M 1021.3 108.027 C 1024.84 106.99 1028.57 108.932 1029.76 112.429 C 1030.94 115.926 1029.15 119.733 1025.71 121.059 C 1023.35 121.967 1020.68 121.51 1018.76 119.867 C 1016.84 118.225 1015.97 115.662 1016.5 113.19 C 1017.03 110.719 1018.88 108.737 1021.3 108.027 z" fill="rgb(254,254,254)" transform="translate(0,0)"></path>
<path d="M 924.529 1913.49 L 925.744 1913.29 L 926.846 1914.41 C 927.594 1921.19 925.276 1956.06 924.978 1965.67 C 889.19 1971.98 848.285 1973.05 812.23 1971.54 L 811.376 1971.19 C 809.048 1967.64 810.675 1925.9 810.814 1918.28 C 851.435 1919.46 884.51 1917.62 924.529 1913.49 z" fill="rgb(254,254,254)" transform="translate(0,0)"></path>
<path d="M 1081.97 1912.5 C 1123.9 1918.47 1155.48 1919.43 1197.71 1918.55 C 1197.94 1936.02 1198.3 1953.49 1198.78 1970.95 C 1160.6 1972.22 1122.39 1970.67 1084.44 1966.3 C 1083.76 1948.36 1082.94 1930.43 1081.97 1912.5 z" fill="rgb(254,254,254)" transform="translate(0,0)"></path>
<path d="M 699.936 1907.16 C 734.598 1913.22 769.638 1916.87 804.805 1918.09 C 805.018 1935.77 804.832 1953.45 804.248 1971.12 C 776.041 1970.44 726.458 1962.91 700.365 1956.4 C 700.054 1940.02 699.588 1923.52 699.936 1907.16 z" fill="rgb(254,254,254)" transform="translate(0,0)"></path>
<path d="M 1300.17 1908.34 L 1304.52 1907.89 C 1307.1 1910.66 1306.66 1950.69 1306.74 1957.8 C 1274.75 1966.59 1242.84 1968.64 1209.96 1970.91 C 1206.04 1970.81 1206.68 1971.47 1204.56 1969.43 C 1203.07 1957.2 1203.52 1932.12 1203.37 1918.87 C 1208.36 1918.32 1213.8 1918.08 1218.84 1917.83 C 1246.42 1916.46 1272.93 1912.78 1300.17 1908.34 z" fill="rgb(254,254,254)" transform="translate(0,0)"></path>
<path d="M 861.951 145.922 C 870.557 146.153 883.018 147.609 891.878 148.366 C 888.619 155.158 885.116 161.588 881.468 168.168 C 856.573 213.066 829.831 257.119 805.812 302.5 C 802.041 309.582 798.21 316.631 794.32 323.648 C 805.951 269.877 838.439 195.818 861.951 145.922 z" fill="rgb(254,254,254)" transform="translate(0,0)"></path>
<path d="M 1143.73 146.376 C 1146.61 145.735 1146.5 145.772 1149.45 146.137 C 1157.87 155.553 1211.94 301.675 1217.58 322.044 L 1208.76 306.586 C 1178.65 255.92 1146.29 201.732 1120.29 149.22 L 1143.73 146.376 z" fill="rgb(254,254,254)" transform="translate(0,0)"></path>
<path d="M 864.736 142.049 C 862.779 143.214 863.876 142.956 861.255 142.322 C 859.1 137.834 859.6 85.8688 860.342 78.0591 C 862.923 76.4663 864.707 76.9279 868.064 76.7796 L 868.7 77.9243 C 877.819 79.9189 900.192 75.7803 906.831 79.7322 L 907.106 82.6162 C 904.416 85.696 895.34 83.2749 892.019 84.0047 C 893.995 87.0764 892.865 86.3163 896.029 87.0559 C 899.276 86.9865 904.049 86.5241 906.888 87.6264 L 907.562 89.1669 C 905.128 89.4168 903.335 89.5522 900.889 89.6132 L 900.596 90.6558 C 902.995 90.8008 904.344 90.8466 906.685 91.3457 C 908.739 94.7491 908.656 136.032 906.151 139.599 L 900.122 138.964 L 901.053 140.986 C 903.498 141.281 903.874 141.236 906.362 141.058 L 907.145 142.671 L 906.388 144.099 C 899.283 145.646 873.308 143.009 864.736 142.049 z" fill="rgb(254,254,254)" transform="translate(0,0)"></path>
<path d="M 864.736 142.049 C 862.779 143.214 863.876 142.956 861.255 142.322 C 859.1 137.834 859.6 85.8688 860.342 78.0591 C 862.923 76.4663 864.707 76.9279 868.064 76.7796 L 868.7 77.9243 C 877.819 79.9189 900.192 75.7803 906.831 79.7322 L 907.106 82.6162 C 904.416 85.696 895.34 83.2749 892.019 84.0047 C 893.995 87.0764 892.865 86.3163 896.029 87.0559 L 895.58 89.4758 C 891.612 91.5143 867.501 91.8561 864.862 87.4851 L 867.448 84.5086 L 863.25 84.3524 C 860.147 89.1301 861.881 98.2999 861.729 104.503 C 861.631 111.379 860.608 137.168 862.861 141.606 L 864.736 142.049 z" fill="rgb(244,243,245)" transform="translate(0,0)"></path>
<path d="M 864.736 142.049 C 862.779 143.214 863.876 142.956 861.255 142.322 C 859.1 137.834 859.6 85.8688 860.342 78.0591 C 862.923 76.4663 864.707 76.9279 868.064 76.7796 L 868.7 77.9243 C 865.408 78.6222 864.647 78.1123 863.243 80.1157 C 870.31 82.8673 882.531 80.4813 887.566 83.922 C 882.762 87.1381 873.517 85.1834 867.448 84.5086 L 863.25 84.3524 C 860.147 89.1301 861.881 98.2999 861.729 104.503 C 861.631 111.379 860.608 137.168 862.861 141.606 L 864.736 142.049 z" fill="rgb(4,5,4)" transform="translate(0,0)"></path>
<path d="M 861.729 104.503 L 864.353 104.868 C 867.545 109.71 866.456 130.142 866.493 137.448 C 877.72 137.465 888.94 137.971 900.122 138.964 L 901.053 140.986 C 903.498 141.281 903.874 141.236 906.362 141.058 L 907.145 142.671 L 906.388 144.099 C 899.283 145.646 873.308 143.009 864.736 142.049 L 862.861 141.606 C 860.608 137.168 861.631 111.379 861.729 104.503 z" fill="rgb(244,243,245)" transform="translate(0,0)"></path>
<path d="M 1091.89 79.5652 C 1091.27 80.0729 1091.11 80.2439 1090.48 80.622 C 1087.11 82.6425 944.992 85.1076 934.657 82.4975 C 932.268 81.8941 930.966 81.6046 929.652 79.5483 C 929.867 79.3278 930.07 79.0938 930.298 78.8868 C 935.183 74.4582 1066.23 76.7593 1082.82 77.0996 C 1085.98 77.5963 1089.44 77.7409 1091.89 79.5652 z" fill="rgb(254,254,254)" transform="translate(0,0)"></path>
<path d="M 913.713 77.4496 C 917.422 77.3382 920.031 76.8216 922.59 78.9182 C 924.969 93.2448 922.186 132.887 922.915 149.563 C 923.004 151.596 922.189 151.674 920.75 152.735 C 917.627 152.697 914.77 153.092 912.276 151.479 C 912.828 127.262 913.831 103.259 912.254 79.0071 L 913.713 77.4496 z" fill="rgb(254,254,254)" transform="translate(0,0)"></path>
<path d="M 1098.03 82.8419 C 1101.06 83.0433 1101.3 82.9943 1104.03 84.1896 C 1105.06 87.9915 1104.69 109.318 1104.51 113.964 C 1104.22 121.446 1106.57 151.024 1103.35 155.321 C 1100.7 155.277 1099.25 155.144 1096.62 154.808 C 1093.97 148.801 1094.94 97.9929 1094.98 87.6538 C 1094.99 84.8489 1096.24 84.3056 1098.03 82.8419 z" fill="rgb(254,254,254)" transform="translate(0,0)"></path>
<path d="M 1059.81 543.107 L 1060.28 544.045 C 1056.15 548.16 1048.36 553.191 1043.42 556.915 C 1032.28 565.147 1021.48 573.819 1011.03 582.91 C 1009.37 581.024 1010.05 569.801 1010.09 566.67 C 1026.47 558.661 1043.31 550.933 1059.81 543.107 z" fill="rgb(254,254,254)" transform="translate(0,0)"></path>
<path d="M 1125.02 78.8674 C 1131.9 78.9243 1139.81 78.7483 1146.54 79.6926 C 1139.47 81.3486 1124.34 80.864 1121.21 82.0218 C 1115.54 82.3416 1113.04 83.1398 1108.63 79.9292 C 1112.39 78.7602 1120.83 78.9192 1125.02 78.8674 z" fill="rgb(244,243,245)" transform="translate(0,0)"></path>
<path d="M 1082.82 77.0996 C 1091.29 77.1867 1117.84 77.7976 1125.02 78.8674 C 1120.83 78.9192 1112.39 78.7602 1108.63 79.9292 L 1101.66 80.025 C 1098.41 79.7853 1095.15 79.632 1091.89 79.5652 C 1089.44 77.7409 1085.98 77.5963 1082.82 77.0996 z" fill="rgb(164,163,167)" transform="translate(0,0)"></path>
<path d="M 408.553 67.4228 C 417.838 66.5012 432.903 66.6187 442.745 66.5937 C 486.927 66.4817 517.639 68.552 558.41 85.1018 C 562.251 105.264 572.744 141.241 578.065 162.483 C 574.273 164.659 568.159 167.123 563.98 168.948 C 568.795 184.138 579.196 207.187 585.155 224.037 C 600.605 267.654 612.653 312.402 621.193 357.879 C 634.829 430.283 640.337 502.759 645.223 576.097 C 655.153 725.129 651.163 871.323 646.301 1020.21 C 640.006 1198.72 632.498 1377.19 623.776 1555.59 C 617.793 1675.93 614.163 1796.38 612.887 1916.86 C 585.531 1912.97 547.07 1903.7 518.906 1898.49 C 494.935 1894.06 451.222 1886.78 429.357 1880.3 C 431.01 1806.33 433.701 1732.39 437.428 1658.5 C 440.628 1588.67 443.248 1518.81 445.286 1448.93 C 448.698 1371.26 450.269 1293.53 450.001 1215.78 C 449.478 1172.58 447.894 1129.39 445.251 1086.26 C 439.843 981.423 430.83 876.807 418.228 772.593 C 414.27 790.096 411.272 812.958 408.438 831.043 L 393.536 925.238 C 388.332 963.575 380.266 1007.65 373.78 1046.01 L 337.197 1264.62 C 299.535 1493.37 268.373 1723.14 243.749 1953.65 C 231.949 1965.3 213.793 1978.48 200.369 1991.01 C 181.196 1984.22 156.762 1972.41 137.321 1964.34 C 106.889 1951.69 75.7168 1938.89 45.9291 1924.97 C 46.4786 1895.51 51.2806 1856.14 53.8914 1825.94 C 58.9195 1765.14 64.2817 1704.37 69.9779 1643.63 L 118.273 1110.36 C 128.456 997.477 137.294 884.474 144.785 771.378 C 152.601 651.109 157.79 536.276 176.511 417.006 C 186.566 356.631 201.101 297.089 219.996 238.872 C 226.18 219.691 232.358 200.112 240.046 181.505 C 236.767 179.965 233.079 178.593 229.693 177.243 L 229.935 101.642 C 289.57 84.9945 346.634 71.2414 408.553 67.4228 z" fill="rgb(24,23,23)" transform="translate(0,0)"></path>
<path d="M 311.09 195.009 C 313.124 195.425 314.805 195.978 316.773 196.588 C 316.353 198.107 315.967 199.634 315.613 201.169 L 317.042 201.135 L 320.334 197.408 C 327.141 196.498 351.766 198.986 359.827 200.11 C 361.264 200.311 362.937 205.566 364.173 207.322 C 366.117 210.082 372.425 210.104 376.206 210.616 C 377.207 213.845 377.315 235.574 377.403 239.901 C 378.459 289.317 378.101 338.754 376.33 388.15 C 375.915 397.397 372.938 432.519 374.579 439.347 L 376.513 440.171 C 377.083 439.908 377.841 439.88 378.222 439.382 C 383.601 432.366 383.356 288.63 382.96 265 C 382.683 248.446 381.097 231.54 381.695 215.02 C 381.83 211.28 382.172 203.179 384.654 200.245 C 386.979 197.497 430.646 196.113 436.966 195.726 C 439.752 208.61 445.525 211.036 457.771 210.412 C 458.662 274.697 458.479 338.992 457.222 403.27 C 456.479 435.929 455.904 469.992 453.099 502.486 C 449.974 538.697 442.333 575.951 436.168 611.945 L 413.866 747.495 L 341.314 1191.15 C 320.665 1315.21 301.481 1439.51 283.765 1564.03 L 240.464 1905.45 L 206.517 1932.05 L 338.715 822.196 C 339.86 802.761 343.148 778.541 345.071 758.746 C 349.357 714.351 353.147 669.91 356.439 625.43 C 357.483 609.89 358.651 594.119 359.565 578.555 C 359.713 576.052 358.893 574.729 357.285 572.995 L 355.999 573.33 C 352.932 579.537 348.608 652.216 347.673 663.892 C 343.345 718.927 338.148 773.89 332.082 828.761 C 317.362 958.061 301.376 1087.21 284.125 1216.2 L 250.867 1492.49 L 217.655 1782.9 C 212.149 1831.61 207.31 1888.66 199.837 1936.42 C 162.269 1922.22 122.53 1904.69 84.8974 1889.41 C 97.5134 1716.11 111.525 1542.91 126.931 1369.84 L 141.436 1177.13 C 150.898 1041.44 161.629 905.845 173.628 770.357 C 184.96 636.25 197.925 495.274 218.592 362.265 C 222.428 357.563 222.653 358.653 223.547 353.36 L 221.452 356.749 C 225.494 337.734 238.138 321.574 248.682 304.195 C 263.091 280.855 277.17 257.312 290.913 233.574 C 297.588 221.863 306.199 207.318 311.09 195.009 z" fill="rgb(254,254,254)" transform="translate(0,0)"></path>
<path d="M 356.558 201.781 L 357.501 203.107 C 356.365 216.492 348.029 243.335 343.84 256.84 C 328.19 307.349 309.896 357 289.036 405.59 C 285.828 413.072 277.153 434.604 272.191 439.304 L 270.509 436.678 C 270.389 433.699 293.601 380.563 296.933 372.341 C 310.535 338.509 323.051 304.251 334.46 269.619 C 341.563 247.721 347.681 222.695 356.558 201.781 z" fill="rgb(4,5,4)" transform="translate(0,0)"></path>
<path d="M 539.512 178.216 C 540.699 178.169 540.273 178.255 541.614 179.038 C 552.586 228.065 560.965 277.636 566.715 327.545 C 568.856 345.962 570.678 364.099 571.885 382.59 C 572.071 385.434 572.783 388.391 575.11 390.179 L 576.823 389.946 C 579.957 385.503 576.651 366.349 576.128 359.997 C 571.225 300.489 561.903 242.66 548.613 184.483 L 559.975 179.595 C 617.78 326.73 630.115 443.771 638.434 601.343 C 646.724 758.375 642.246 908.596 636.808 1065.31 C 627.619 1330.14 611.002 1594.48 605.496 1859.35 L 590.991 1856.41 L 617.621 1223.65 C 622.446 1131.86 626.26 1040.02 629.062 948.145 C 632.137 850.554 633.657 750.209 624.927 652.856 C 620.47 606.004 613.745 559.396 604.775 513.195 C 603.591 506.934 602.945 498.408 598.105 494.544 L 597.172 494.885 C 595.178 500.736 608.276 565.28 609.939 576.345 C 621.282 651.789 625.373 727.751 625.831 803.989 C 625.658 862.16 624.436 920.324 622.166 978.451 C 617.658 1105.73 611.961 1232.97 605.076 1360.15 C 601.877 1422.77 600.188 1485.82 597.657 1548.5 L 585.131 1855.7 C 545.263 1847.53 505.31 1839.78 465.279 1832.45 C 467.699 1758.54 472.519 1684.87 474.687 1610.65 C 481.01 1413.1 481.68 1215.41 476.697 1017.82 C 474.639 932.535 470.667 835.567 461.527 750.879 C 458.464 721.834 454.639 692.874 450.055 664.03 C 448.138 652.209 443.769 636.014 442.759 625.04 C 442.199 618.95 446.926 596.247 448.247 589.125 C 450.727 575.467 453.018 561.775 455.12 548.054 C 481.357 527.635 508.425 514.602 538.799 502.031 C 543.197 500.211 553.196 497.952 554.459 493.794 L 552.843 492.468 C 535.1 490.791 472.099 528.337 455.8 539.841 C 463.052 473.124 463.608 399.364 464.234 331.914 C 464.597 292.766 464.856 248.157 463.061 209.362 C 472.081 207.999 488.997 203.877 496.49 203.887 C 498.463 207.072 496.955 213.184 498.395 218.427 L 499.269 218.108 C 500.247 214.339 499.186 208.304 498.724 204.206 C 509.84 195.033 505.949 195.847 512.658 185.25 C 517.14 182.133 533.423 179.467 539.512 178.216 z" fill="rgb(254,254,254)" transform="translate(0,0)"></path>
<path d="M 499.04 389.615 L 500.107 390.91 C 501.217 399.956 496.256 409.77 492.165 417.525 C 485.153 430.818 476.235 438.064 464.169 446.138 C 464.082 446.001 463.954 445.883 463.909 445.728 C 463.342 443.782 479.481 432.52 481.986 429.893 C 492.885 418.464 495.448 404.236 499.04 389.615 z" fill="rgb(24,23,23)" transform="translate(0,0)"></path>
<path d="M 499.999 337.485 C 503.617 340.14 502.39 363.004 501.404 367.624 L 499.669 367.351 C 499.01 364.762 499.891 341.527 499.999 337.485 z" fill="rgb(81,81,80)" transform="translate(0,0)"></path>
<path d="M 499.701 288.522 C 500.298 288.976 501.135 289.992 501.677 290.592 C 502.147 295.306 502.489 306.332 501.467 310.859 L 500.006 309.476 C 499.833 302.492 499.731 295.508 499.701 288.522 z" fill="rgb(81,81,80)" transform="translate(0,0)"></path>
<path d="M 247.868 183.554 C 250.903 184.216 252.863 184.33 255.239 186.317 C 254.744 190.465 244.432 224.336 242.578 231.824 C 236.193 257.616 229.688 283.777 223.607 309.686 C 210.385 366.019 203.732 424.131 196.484 481.559 C 185.386 574.532 176.033 667.705 168.431 761.029 C 152.814 942.54 138.71 1124.18 126.119 1305.92 C 112.697 1481.09 94.887 1655.99 83.5128 1831.34 C 82.3001 1850.04 80.5078 1868.64 79.7129 1887.38 L 71.969 1884.03 C 67.3234 1881.87 62.2813 1879.85 57.529 1877.86 C 58.8364 1853.94 61.9708 1825.77 64.0311 1801.61 L 80.8419 1615.09 L 129.045 1082.31 C 138.88 972.002 147.278 861.574 154.237 751.05 C 161.909 633.554 168.18 501.22 189.92 386.753 C 203.751 317.575 223.13 249.622 247.868 183.554 z" fill="rgb(254,254,254)" transform="translate(0,0)"></path>
<path d="M 439.417 642.695 C 439.623 642.899 439.829 643.104 440.035 643.308 C 463.764 742.457 470.343 999.399 472.04 1087 C 475.249 1259.77 474.286 1432.59 469.15 1605.32 C 466.865 1680.67 462.277 1755.87 459.511 1831.17 L 441.16 1827.81 C 440.319 1827.58 439.816 1827.08 439.03 1826.53 C 438.132 1810.1 440.125 1781.81 440.857 1764.54 L 445.607 1651.56 C 450.926 1517.49 457.803 1380.59 457.916 1246.62 C 457.136 1130.54 451.042 1014.56 439.655 899.036 C 436.667 865.86 433.228 832.726 429.339 799.644 C 426.979 779.682 421.559 753.45 424.683 734.064 C 429.568 703.749 433.678 672.833 439.417 642.695 z" fill="rgb(254,254,254)" transform="translate(0,0)"></path>
<path d="M 238.03 108.557 C 278.179 122.766 317.09 127.903 359.038 131.772 C 359.136 151.399 360.031 172.269 360.841 191.907 C 324.034 191.552 271.969 184.362 237.654 172.142 C 237.533 150.946 237.659 129.75 238.03 108.557 z" fill="rgb(254,254,254)" transform="translate(0,0)"></path>
<path d="M 438.123 1834.73 C 455.194 1839.71 481.309 1843.64 499.336 1847.05 C 534.617 1853.64 569.847 1860.51 605.021 1867.66 C 604.975 1876.3 605.613 1899.71 604.616 1906.64 C 562.029 1899.47 519.357 1889.86 476.885 1881.89 C 463.724 1879.41 450.206 1876.78 437.268 1873.43 C 437.157 1861.09 437.815 1847.18 438.123 1834.73 z" fill="rgb(254,254,254)" transform="translate(0,0)"></path>
<path d="M 427.424 75.4391 C 462.06 74.1784 516.563 76.3187 548.682 88.8732 C 544.546 89.8565 532.463 92.5759 528.196 94.8952 C 520.975 98.8206 526.894 105.823 516.261 106.783 C 513.187 107.06 508.081 108.106 505.348 108.521 C 501.538 103.536 496.334 94.9608 489.635 96.3278 C 453.473 103.708 415.824 102.846 379.167 105.815 C 349.48 106.17 317.751 111.908 288.22 113.806 C 282.25 114.189 258.015 106.361 251.144 104.002 C 316.161 88.0305 360.786 78.3359 427.424 75.4391 z" fill="rgb(254,254,254)" transform="translate(0,0)"></path>
<path d="M 489.245 103.289 C 495.627 103.351 497.789 113.524 498.064 118.628 C 499.218 140.107 506.663 171.688 501.212 192.045 C 499.427 198.711 458.079 202.997 450.84 203.497 C 449.505 203.188 446.54 201.266 446.304 200.505 C 442.042 186.811 436.219 124.304 439.031 113.95 C 443.616 110.25 480.635 104.991 489.245 103.289 z" fill="rgb(254,254,254)" transform="translate(0,0)"></path>
<path d="M 481.511 118.291 C 484.882 117.83 485.289 117.56 488.141 119.055 C 490.396 123.566 494.411 180.573 492.988 186.049 C 486.844 191.191 469.459 192.186 460.785 193.306 C 458.662 193.4 457.089 193.213 454.998 193.023 C 454.407 192.523 453.708 191.93 452.9 191.246 C 450.043 174.353 447.65 139.671 446.307 123.995 C 454.694 121.98 472.349 119.771 481.511 118.291 z" fill="rgb(4,5,4)" transform="translate(0,0)"></path>
<path d="M 480.842 125.376 L 482.1 125.605 C 484.272 130.587 486.619 173.125 487.319 182.275 C 477.742 184.513 469.965 185.477 460.237 186.557 L 458.748 186.036 C 457.53 181.631 456.901 167.441 456.501 162.097 C 455.608 151.222 454.598 140.356 453.473 129.503 C 462.407 128.358 471.891 126.741 480.842 125.376 z" fill="rgb(254,254,254)" transform="translate(0,0)"></path>
<path d="M 57.1127 1885.24 C 64.681 1887.77 78.4149 1894.25 86.3084 1897.53 L 153.447 1925.21 C 166.359 1930.65 186.685 1939.92 199.5 1944.05 C 197.898 1955.91 196.959 1967.86 196.686 1979.84 C 162.443 1966.97 128.689 1951.53 94.7998 1937.71 C 81.393 1932.24 67.5709 1926.1 54.702 1919.54 C 55.1092 1908.08 55.9132 1896.64 57.1127 1885.24 z" fill="rgb(254,254,254)" transform="translate(0,0)"></path>
<path d="M 259.672 186.732 C 275.431 190.034 289.745 192.985 305.771 194.456 C 286.518 231.509 263.608 268.648 242.068 304.581 L 223.754 335.229 C 232.298 292.758 247.788 227.77 259.672 186.732 z" fill="rgb(254,254,254)" transform="translate(0,0)"></path>
<path d="M 422.93 129.417 C 425.998 128.995 426.467 129.031 429.576 129.316 C 433.073 133.111 435.894 181.154 436.542 189.056 C 423.566 190.657 410.032 191.187 396.942 191.903 L 384.059 192.097 L 382.145 131.965 C 395.073 130.828 409.725 130.377 422.93 129.417 z" fill="rgb(254,254,254)" transform="translate(0,0)"></path>
<path d="M 527.429 111.239 L 528.754 111.16 C 534.253 115.529 540.985 161.927 542.111 170.41 L 519.38 175.51 L 510.288 177.156 C 509.7 157.472 507.067 136.064 504.633 116.491 C 512.161 114.431 519.798 112.88 527.429 111.239 z" fill="rgb(254,254,254)" transform="translate(0,0)"></path>
<path d="M 238.704 1914.75 C 239.384 1919.57 236.399 1942.93 235.66 1949.17 C 225.008 1958.97 213.949 1968.31 202.513 1977.18 C 201.655 1973.22 204.727 1948.25 205.311 1941.98 C 216.851 1933.42 227.994 1924.33 238.704 1914.75 z" fill="rgb(254,254,254)" transform="translate(0,0)"></path>
<path d="M 368.663 115.931 C 370.772 116.127 372.448 116.577 374.494 117.056 C 374.989 117.631 375.485 118.206 375.98 118.781 C 377.166 146.064 377.469 173.743 377.955 201.057 C 377.997 203.379 374.955 204.545 373.029 205.741 C 370.252 204.708 370.335 204.764 368.036 202.904 C 364.065 192.946 366.929 137.992 364.301 123.354 C 363.421 118.446 364.796 118.009 368.663 115.931 z" fill="rgb(254,254,254)" transform="translate(0,0)"></path>
<path d="M 542.411 95.0418 C 544.303 95.1141 543.357 94.9397 545.207 96.4106 C 552.163 117.038 556.363 152.483 558.207 174.316 C 555.655 176.087 552.267 177.749 549.481 179.234 C 547.854 176.884 546.924 157.809 546.121 152.866 C 544.225 141.197 542.046 129.604 539.091 118.09 C 537.449 111.69 533.883 105.185 533.258 98.7188 C 535.742 96.4212 539.024 95.9568 542.411 95.0418 z" fill="rgb(254,254,254)" transform="translate(0,0)"></path>
<path d="M 429.543 109.478 C 430.365 109.337 431.453 109.585 432.364 109.704 C 430.703 114.927 430.203 116.346 430.184 121.838 L 430.188 123.015 C 416.662 124.603 396.789 125.669 383.283 125.986 C 379.772 120.272 385.218 123.221 379.689 113.905 L 380.14 112.794 C 388.861 111.102 419.148 110.042 429.543 109.478 z" fill="rgb(254,254,254)" transform="translate(0,0)"></path>
<path d="M 353.175 114.42 C 355.601 114.079 357.004 113.598 359.205 114.625 C 360.657 119.397 359.872 120.985 357.458 125.321 C 350.265 126.677 330.292 122.996 321.989 121.716 C 317.674 121.193 311.758 119.799 307.362 118.892 L 353.175 114.42 z" fill="rgb(254,254,254)" transform="translate(0,0)"></path>
<path d="M 552.8 98.6988 C 557.474 104.55 567.97 150.894 569.321 160.156 C 566.39 160.125 566.229 160.603 564.137 159.302 C 560.938 140.248 555.435 116.428 552.8 98.6988 z" fill="rgb(254,254,254)" transform="translate(0,0)"></path>
<metadata><recraft-signature>{"signed_by": "recraft", "signature_b64": "FSP7y3h99CGcB3T6Xpd1f0M4QVVFuQ4ihv2Ah/VDEpvMeVbWH8SL5P2KWstiz74t64rzq/A3w5pHrmkfz2AAAA==", "signing_algo": "Ed25519", "generation_timestamp": 1784515564, "identifier": "ec9612dc-48ff-4c05-a5c0-c0d090a33c91"}</recraft-signature></metadata></svg>