<svg xmlns="http://www.w3.org/2000/svg" height="1536" preserveAspectRatio="none" style="display: block;" version="1.1" viewBox="0 0 1365 2048" width="1024">
<path d="M 0 0 L 1365 0 L 1365 2048 L 0 2048 L 0 0 z" fill="rgb(255,255,255)" transform="translate(0,0)"></path>
<path d="M 35.7006 32.8953 L 1328.72 32.7854 L 1328.91 1994.02 C 1328.88 1997.25 1329.23 2006.49 1327.81 2008.68 L 1324.25 2009.12 C 1248.19 2009.99 1170.24 2008.9 1094 2008.83 L 634.708 2008.58 L 263.4 2008.64 C 188.147 2008.76 110.921 2009.75 35.8627 2008.61 L 35.7006 32.8953 z" fill="rgb(3,2,2)" transform="translate(0,0)"></path>
<path d="M 47.2459 44.8658 C 97.3436 44.1792 149.093 44.8208 199.309 44.8142 L 490.064 44.7626 L 1316.97 44.9374 C 1318.67 190.362 1317.05 339.294 1317.08 484.953 L 1317.18 1316.06 L 1317.27 1772.4 L 1317.22 1919.42 C 1317.2 1941.67 1318.24 1974.05 1316.96 1995.55 C 1314.86 1997.66 1315.35 1996.96 1311.25 1997.02 L 47.7144 1997.13 C 47.1491 1911.41 47.0931 1825.69 47.5466 1739.97 L 47.7036 1221.37 L 47.2459 44.8658 z" fill="rgb(255,255,255)" transform="translate(0,0)"></path>
<path d="M 321.812 370.842 C 318.748 372.892 316.028 375.654 312.586 377.095 C 308.814 378.674 305.691 377.277 302.224 375.679 C 252.558 352.791 104.974 212.867 86.6384 161.486 C 83.5583 152.855 86.6362 142.395 90.349 134.448 C 95.0939 124.292 113.405 89.9168 122.623 86.8603 C 124.012 86.3996 123.746 86.3338 125.162 87.0886 C 126.732 94.5022 102.759 126.019 98.978 135.334 C 95.9122 142.887 91.4882 151.862 95.5016 160.422 C 123.433 219.994 254.521 343.497 309.622 370.087 C 331.416 343.843 343.789 326.783 368.919 303.193 C 324.132 263.566 282.679 220.921 241.445 177.665 C 229.921 165.575 217.998 152.678 207.486 139.704 C 196.879 140.381 183.874 142.09 174.024 138.797 L 173.492 136.75 C 179.455 132.187 198.655 131.726 207.004 131.045 C 218.35 118.678 227.301 103.868 239.375 92.526 C 240.369 91.5924 242.673 92.4809 243.882 92.7771 L 244.567 94.6547 C 242.666 102.624 221.407 127.465 215.177 135.297 C 230.92 156.026 255.953 180.67 274.072 199.718 C 293.468 220.109 316.199 244.356 337.3 262.614 C 345.168 243.431 356.313 225.496 364.166 207.259 C 367.846 198.712 369.043 171.328 369.871 160.717 C 364.507 153.172 345.972 113.149 350.6 105.57 L 352.174 105.301 C 358.656 108.866 369.961 144.335 374.906 154.749 C 423.238 176.926 514.199 189.672 568.674 192.558 C 591.21 193.752 624.25 191.164 646.136 185.235 C 659.598 181.587 667.345 178.62 674.318 166.547 C 672.015 144.374 665.719 122.793 664.036 100.767 C 664.036 100.767 665.798 98.1649 665.98 97.8968 L 668.115 97.6906 C 675.213 104.415 682.164 158.074 681.93 169.672 C 675.372 178.729 675.666 179.231 682.062 189.292 C 684.76 193.537 684.276 197.193 684.243 202.019 C 694.21 201.975 704.178 202.016 714.145 202.141 C 705.471 202.988 696.765 203.471 688.051 203.588 L 688.565 203.605 L 684.866 203.953 C 687.708 204.162 695.115 204.171 696.667 205.847 C 693.691 206.125 687.347 205.982 684.113 206.008 C 685.017 212.865 689.093 232.821 683.911 237.899 C 681.026 238.653 680.114 238.582 678.359 240.761 C 677.717 244.41 678.787 250.315 679.489 254.134 C 688.499 303.161 698.184 351.711 706.962 400.816 C 709.932 417.059 712.757 433.329 715.437 449.622 C 718.066 465.949 720.098 482.168 724.745 498.065 L 897.538 498.615 C 928.179 498.579 959.237 498.42 989.903 498.62 C 992.12 498.634 992.8 498.86 994.436 500.184 L 993.524 501.551 C 988.222 502.854 930.112 502.171 919.926 502.157 L 726.189 502.173 C 745.338 567.833 763.536 633.767 780.775 699.955 C 786.771 723.011 791.789 746.385 797.997 769.359 C 840.127 769.977 882.262 770.175 924.396 769.952 C 942.614 769.951 972.467 769.069 989.762 770.591 L 990.643 771.999 C 986.324 775.29 935.661 773.632 926.236 773.638 L 799.22 773.662 C 816.478 855.357 841.359 944.774 844.74 1027.93 C 864.909 1027.92 988.872 1026.09 998.963 1029.62 C 992.669 1032.48 861.437 1031.11 844.565 1031.1 C 841.457 1094.89 833.914 1158.5 827.667 1222.01 C 818.37 1316.54 805.657 1410.96 796.772 1505.49 C 858.814 1506.63 921.691 1504.81 983.802 1505.41 C 988.614 1505.45 1003.3 1504.63 1006.48 1507.38 C 999.183 1511.34 820.899 1509.09 796.329 1509.22 C 793.012 1540.99 788.244 1573.25 784.889 1605.17 C 783.927 1614.31 780.768 1647.58 779.055 1654.87 C 777.122 1656.38 776.041 1657 773.901 1658.23 C 793.488 1674.85 809.314 1697.47 832.601 1709.37 C 858.732 1722.73 932.577 1729.17 947.153 1743.22 C 953.002 1748.86 953.582 1755.66 957.334 1762.35 C 958.47 1764.38 960.338 1765.7 961.678 1767.52 C 963.788 1770.38 964.343 1774.91 963.504 1778.31 C 962.207 1783.57 957.606 1787.36 953.042 1789.85 C 945.122 1794.18 935.695 1796.82 927.11 1799.48 C 885.55 1812.36 831.366 1820.34 789.085 1806.33 C 775.715 1801.91 762.917 1794.98 750.142 1789.05 C 733.453 1781.19 716.167 1774.67 698.448 1769.54 C 698.44 1776.46 700.037 1785.95 693.353 1789.6 C 683.687 1791.27 610.076 1781.05 595.945 1777.22 C 595.071 1776.99 592.111 1775.65 591.635 1774.4 C 588.523 1766.24 590.208 1753.31 590.106 1744.2 C 589.76 1713.06 588.85 1686.66 600.911 1657.29 C 604.522 1648.5 608.756 1640.31 612.356 1631.31 C 611.722 1629.45 610.449 1625.85 610.629 1623.95 C 613.137 1597.48 615.445 1570.71 617.611 1544.24 L 644.82 1194.95 C 647.785 1151.27 653.577 1107.71 654.005 1063.92 C 654.117 1052.51 651.522 1041.97 648.679 1031.03 L 534.322 1031.29 C 530.984 1051.11 528.81 1073.86 526.284 1094 L 511.389 1212.72 L 465.915 1578.58 C 460.611 1620.44 456.61 1661.45 450.626 1703.52 C 446.622 1708.07 445.042 1709.33 440.174 1713.04 C 456.376 1745.36 489.27 1781.18 517.706 1802.36 C 544.317 1822.18 559.836 1827.85 570.875 1862.23 C 573.048 1866.62 576.858 1870.9 577.203 1875.85 C 578.779 1898.46 531.66 1899.01 514.556 1897.92 C 475.761 1895.45 414.024 1890.66 382.631 1865.28 C 376.142 1860.03 360.383 1833.1 350.336 1822.48 C 345.161 1826.57 343.294 1827.81 337.438 1830.84 C 326.077 1825.37 290.738 1805.86 282.042 1798.04 C 281.735 1771.95 280.075 1747.39 284.766 1721.59 C 286.967 1709.49 297.735 1682.78 298.164 1674.56 C 297.59 1673.87 294.946 1670.62 294.951 1670.16 C 295.491 1611.2 299.661 1510.44 301.286 1455.8 L 314.095 995.754 C 316.595 903.853 319.595 811.788 320.398 719.908 C 321.181 630.229 288.648 449.597 321.812 370.842 z" fill="rgb(30,29,29)" transform="translate(0,0)"></path>
<path d="M 431.056 249.48 C 431.352 245.153 430.605 246.127 433.049 243.901 C 436.226 244.607 435.214 244.356 437.865 247.105 C 438.159 248.929 438.451 250.636 438.659 252.476 L 439.5 247.956 L 440.656 247.3 C 444.142 247.173 473.858 253.239 481.09 254.442 C 493.138 256.408 505.227 258.118 517.348 259.572 C 522.128 260.17 534.532 261.401 538.552 262.662 L 538.884 263.472 C 540.05 266.252 540.078 266.7 542.152 268.722 C 549.252 269.849 556.72 271.062 563.026 266.826 C 565.991 264.834 617.121 263.137 625.59 262.85 C 626.335 345.339 618.583 417.547 604.127 498.131 C 575.898 498.132 546.879 498.441 518.712 498.056 C 520.17 485.882 532.85 405.336 530.828 400.539 L 529.651 400.518 C 526.751 405.343 516.199 485.424 514.56 498.201 C 483.103 498.558 451.643 498.58 420.186 498.269 C 411.821 498.237 378.506 496.914 373.449 499.781 L 373.289 501.52 C 376.828 502.576 408.011 502.247 414.169 502.253 L 514.1 502.319 C 482.164 774.413 456.249 1047.18 436.374 1320.42 L 417.889 1571.2 C 415.799 1599.78 410.563 1637.17 409.714 1664.86 C 377.226 1653.42 350.735 1640.67 320.801 1623.82 C 323.978 1577.8 325.269 1532.22 327.099 1486.18 L 334.211 1319.23 L 356.123 787.613 L 363.669 579.701 L 365.571 518.711 C 365.787 511.87 365.067 488.878 369.098 484.424 L 367.085 482.6 C 406.557 440.715 435.406 394.031 438.169 335.388 C 438.394 330.629 439.585 324.491 437.822 320.11 L 439.187 319.919 C 443.889 325.688 452.005 327.555 455.793 332.684 C 457.774 334.232 462.411 336.012 464.93 337.117 C 461.251 332.519 458.53 329.35 454.46 325.108 L 453.389 326.029 C 452.776 325.369 450.525 323.091 450.054 322.478 C 444.813 315.656 438.001 314.16 431.842 307.944 C 430.589 302.487 429.696 253.436 431.056 249.48 z" fill="rgb(255,255,255)" transform="translate(0,0)"></path>
<path d="M 431.056 249.48 C 431.352 245.153 430.605 246.127 433.049 243.901 C 436.226 244.607 435.214 244.356 437.865 247.105 C 438.159 248.929 438.451 250.636 438.659 252.476 L 439.5 247.956 L 440.656 247.3 C 442.79 260.19 443.433 299.52 441.928 312.32 C 446.671 316.625 450.609 319.92 454.46 325.108 L 453.389 326.029 C 452.776 325.369 450.525 323.091 450.054 322.478 C 444.813 315.656 438.001 314.16 431.842 307.944 C 430.589 302.487 429.696 253.436 431.056 249.48 z" fill="rgb(255,255,255)" transform="translate(0,0)"></path>
<path d="M 438.659 252.476 L 439.5 247.956 L 440.656 247.3 C 442.79 260.19 443.433 299.52 441.928 312.32 C 446.671 316.625 450.609 319.92 454.46 325.108 L 453.389 326.029 C 452.776 325.369 450.525 323.091 450.054 322.478 C 444.813 315.656 438.001 314.16 431.842 307.944 C 430.589 302.487 429.696 253.436 431.056 249.48 L 431.22 250.732 C 432.989 264.872 431.788 292.155 433.446 306.953 C 434.644 308.025 435.685 308.956 436.569 309.747 L 438.589 310.098 C 441.121 306.446 438.976 260.004 438.659 252.476 z" fill="rgb(3,2,2)" transform="translate(0,0)"></path>
<path d="M 437.822 320.11 L 439.187 319.919 C 443.889 325.688 452.005 327.555 455.793 332.684 C 449.845 330.131 447.448 328.806 441.98 325.319 C 440.125 375.261 426.407 411.286 397.296 452.107 C 391.303 460.509 380.477 474.253 372.951 481.283 C 371.728 482.403 370.442 483.452 369.098 484.424 L 367.085 482.6 C 406.557 440.715 435.406 394.031 438.169 335.388 C 438.394 330.629 439.585 324.491 437.822 320.11 z" fill="rgb(3,2,2)" transform="translate(0,0)"></path>
<path d="M 611.543 502.206 L 717.08 502.177 C 727.316 529.97 735.855 565.113 744.097 594.065 C 767.096 675.611 787.767 757.796 806.087 840.519 C 818.296 895.028 836.42 974.525 836.216 1027.97 L 712.791 1027.95 C 702.799 982.363 689.542 949.152 672.928 905.491 C 655.144 857.998 636.367 810.881 616.61 764.174 C 612.129 753.382 595.734 712.167 590.269 704.765 L 588.563 703.943 L 587.916 705.162 C 615.388 772.93 645.163 839.664 670.252 908.511 C 684.36 947.225 701.391 987.163 708.662 1027.8 L 657.423 1027.99 C 643.322 976.388 624.172 920.654 605.977 870.216 L 580.885 802.517 C 578.51 796.088 569.343 774.054 569.729 769.134 C 572.205 737.563 577.834 704.903 582.641 673.624 C 585.37 655.871 587.47 637.645 591.124 620.382 C 602.853 636.468 613.532 653.643 625.337 669.439 C 656.679 711.032 693.256 748.408 734.163 780.642 C 746.151 789.989 761.907 802.588 776.08 807.64 C 768.679 799.299 738.985 780.928 727.094 770.806 C 681.607 732.09 641.027 688.221 608.07 638.287 C 605.635 634.598 592.454 616.643 591.219 614.314 C 590.184 611.219 591.492 604.615 592.277 601.238 C 593.641 595.367 592.919 596.46 597.094 593.815 C 594.723 588.885 609.419 512.027 611.543 502.206 z" fill="rgb(255,255,255)" transform="translate(0,0)"></path>
<path d="M 597.094 593.815 C 606.508 599.6 616.902 607.438 626.171 613.747 C 632.165 617.827 643.568 625.147 648.487 629.51 L 648.716 630.627 C 637.874 627.862 605.58 604.254 595.142 596.582 C 594.317 601.418 593.161 610.157 591.219 614.314 C 590.184 611.219 591.492 604.615 592.277 601.238 C 593.641 595.367 592.919 596.46 597.094 593.815 z" fill="rgb(3,2,2)" transform="translate(0,0)"></path>
<path d="M 613.628 689.502 C 615.591 690.079 616.696 690.097 617.792 692.01 C 627.265 708.549 635.288 725.78 645.732 741.789 C 674.398 786.626 707.326 828.59 744.057 867.098 C 754.817 878.227 766.01 888.307 777.973 898.095 C 782.296 901.632 790.516 907.798 793.475 912.161 C 785.201 912.369 763.304 890.532 756.844 884.318 C 706.522 835.353 663.17 779.704 628.003 718.934 C 623.797 711.518 615.791 697.558 613.628 689.502 z" fill="rgb(3,2,2)" transform="translate(0,0)"></path>
<path d="M 518.278 502.146 L 603.146 502.062 C 592.182 560.15 582.51 618.474 574.137 676.991 C 560.221 768.021 547.721 859.262 536.642 950.681 L 452.699 1620.1 C 451.345 1631.25 449.928 1642.39 448.448 1653.52 C 436.612 1658.96 426.334 1662.2 413.693 1664.97 C 414.386 1642.78 418.226 1611.45 420.174 1588.64 L 429.991 1459.42 C 441.132 1288.92 454.823 1118.59 471.059 948.502 C 480.928 845.617 491.357 742.786 502.345 640.015 C 507.109 596.976 511.072 544.024 518.278 502.146 z" fill="rgb(255,255,255)" transform="translate(0,0)"></path>
<path d="M 730.575 1031.49 C 765.759 1031.22 800.945 1031.16 836.13 1031.32 C 836.197 1049.34 833.991 1074.29 832.345 1092.34 C 829.329 1125.4 826.095 1158.8 822.734 1191.83 L 788.501 1505.47 C 766.219 1505.77 743.525 1504.66 721.287 1505.93 L 720.529 1506.85 C 731.469 1511.56 773.824 1509.24 787.645 1509.34 L 783.778 1545.24 C 781.009 1564.45 778.935 1586.69 776.647 1606.14 C 738.64 1606.54 706.376 1603.09 669.455 1596.16 C 670.211 1582.67 672.463 1566.81 673.741 1553.08 C 676.84 1518.03 680.169 1482.99 683.727 1447.99 L 703.568 1230.08 C 706.633 1200.87 709.362 1171.62 711.754 1142.35 C 715.919 1096.22 719.57 1078.14 713.563 1031.58 L 730.575 1031.49 z" fill="rgb(255,255,255)" transform="translate(0,0)"></path>
<path d="M 324.702 387.621 C 325.968 388.569 343.469 415.41 346.82 419.772 C 355.745 431.512 365.634 442.486 376.383 452.581 C 371.88 459.123 369.023 462.686 363.33 468.322 C 358.492 624.965 352.634 781.576 345.755 938.143 L 318.853 1596.69 C 318.32 1604.9 317.635 1613.1 316.798 1621.28 C 312.284 1619.39 309.026 1617.27 304.866 1614.72 L 320.779 1048.11 C 323.513 967.764 325.835 887.402 327.744 807.029 C 328.394 760.783 329.359 715.552 326.975 669.643 C 323.421 601.235 303.119 450.376 324.702 387.621 z" fill="rgb(255,255,255)" transform="translate(0,0)"></path>
<path d="M 657.839 1031.32 C 674.753 1030.92 692.609 1031.2 709.599 1031.23 C 715.841 1072.9 712.776 1089.09 709.146 1129.81 C 707.36 1151.16 705.453 1172.51 703.426 1193.85 L 691.309 1325.91 L 676.275 1486.24 C 673.308 1518.45 670.739 1554.39 666.54 1586.24 C 666.286 1589.26 666.462 1592.27 664.737 1594.55 C 656.536 1595.67 631.414 1587.15 622.865 1584.13 C 624.485 1545.42 629.818 1497.78 632.843 1458.54 C 638.538 1377.34 644.661 1296.17 651.212 1215.04 L 657.061 1142.74 C 660.42 1104.7 665.218 1068.79 657.839 1031.32 z" fill="rgb(255,255,255)" transform="translate(0,0)"></path>
<path d="M 615.157 1645.72 C 643.429 1666.63 680.114 1698.44 719.193 1686.41 C 721.176 1685.8 727.209 1681.21 729.787 1679.83 L 730.3 1679.56 L 732.577 1678.4 L 732.088 1676.44 C 733.85 1672.7 736.22 1667.75 739.191 1664.83 C 743.197 1660.89 753.793 1656.05 758.326 1660.94 L 756.697 1664.78 C 758.493 1668.05 757.883 1668.18 760.615 1669.7 C 762.274 1668.78 763.913 1667.83 765.53 1666.83 L 766.736 1667.45 L 765.904 1669.98 C 767.564 1671.43 767.127 1670.97 769.806 1671.23 C 768.721 1673.14 769.436 1672.3 767.304 1673.55 C 769.247 1675.54 770.909 1675.96 772.073 1678.46 C 773.688 1681.11 773.155 1681.23 775.449 1682.19 C 776.185 1681.52 776.873 1681.06 777.328 1680.27 C 777.627 1676.5 778.29 1675.17 779.623 1671.75 L 780.773 1671.6 C 781.633 1673.49 782.439 1675.16 783.093 1677.15 C 784.903 1678.23 787.124 1679.48 788.787 1680.7 L 788.15 1681.39 L 790.401 1684.35 C 788.624 1688.14 785.49 1689.37 781.781 1692.17 C 786.779 1693.73 784.362 1693.13 790.211 1691.28 L 788.707 1694.33 L 790.645 1696.63 C 793.631 1694.25 794.23 1693.47 797.35 1693.64 C 803.325 1698.28 808.785 1703.25 814.781 1708.17 C 837.216 1726.57 866.888 1728.32 893.858 1735.7 C 897.973 1736.13 901.219 1737.92 905.378 1738.21 C 915.687 1738.92 962.591 1751.49 943.993 1768.13 C 931.899 1775.92 912.66 1781.05 899.057 1784.28 C 867.688 1791.73 824.425 1794.95 793.983 1783.7 C 767.971 1774.09 740.498 1756.66 713.781 1750.44 C 676.592 1741.77 636.657 1734.14 599.035 1729.37 C 598.186 1694.65 600.196 1677.88 615.157 1645.72 z" fill="rgb(255,255,255)" transform="translate(0,0)"></path>
<path d="M 732.577 1678.4 L 732.088 1676.44 C 733.85 1672.7 736.22 1667.75 739.191 1664.83 C 743.197 1660.89 753.793 1656.05 758.326 1660.94 L 756.697 1664.78 C 758.493 1668.05 757.883 1668.18 760.615 1669.7 C 762.274 1668.78 763.913 1667.83 765.53 1666.83 L 766.736 1667.45 L 765.904 1669.98 C 767.564 1671.43 767.127 1670.97 769.806 1671.23 C 768.721 1673.14 769.436 1672.3 767.304 1673.55 C 769.247 1675.54 770.909 1675.96 772.073 1678.46 C 773.688 1681.11 773.155 1681.23 775.449 1682.19 C 776.185 1681.52 776.873 1681.06 777.328 1680.27 C 777.627 1676.5 778.29 1675.17 779.623 1671.75 L 780.773 1671.6 C 781.633 1673.49 782.439 1675.16 783.093 1677.15 C 784.903 1678.23 787.124 1679.48 788.787 1680.7 L 788.15 1681.39 L 790.401 1684.35 C 788.624 1688.14 785.49 1689.37 781.781 1692.17 C 786.779 1693.73 784.362 1693.13 790.211 1691.28 L 788.707 1694.33 L 790.645 1696.63 L 790.315 1698.21 C 795.75 1711.08 796.356 1729.45 780.077 1727.66 C 766.853 1726.2 738.369 1689.37 730.3 1679.56 L 732.577 1678.4 z" fill="rgb(255,255,255)" transform="translate(0,0)"></path>
<path d="M 732.577 1678.4 C 741.394 1688.78 769.504 1723.35 781.434 1725.73 C 791.831 1724.22 793.524 1706.52 788.525 1702.91 C 781.423 1701.62 779.455 1699.86 779.558 1692.88 L 781.781 1692.17 C 786.779 1693.73 784.362 1693.13 790.211 1691.28 L 788.707 1694.33 L 790.645 1696.63 L 790.315 1698.21 C 795.75 1711.08 796.356 1729.45 780.077 1727.66 C 766.853 1726.2 738.369 1689.37 730.3 1679.56 L 732.577 1678.4 z" fill="rgb(3,2,2)" transform="translate(0,0)"></path>
<path d="M 772.073 1678.46 C 770.801 1681.83 770.023 1682.51 767.1 1684.58 C 761.124 1684.39 760.873 1679.72 760.662 1674.84 L 760.618 1673.71 L 759.451 1673.26 C 756.586 1674.01 756.348 1674.02 753.364 1673.95 C 748.395 1671.25 746.877 1666.87 748.509 1661.63 L 750.367 1660.76 C 753.808 1661.27 754.29 1662.29 756.697 1664.78 C 758.493 1668.05 757.883 1668.18 760.615 1669.7 C 762.274 1668.78 763.913 1667.83 765.53 1666.83 L 766.736 1667.45 L 765.904 1669.98 C 767.564 1671.43 767.127 1670.97 769.806 1671.23 C 768.721 1673.14 769.436 1672.3 767.304 1673.55 C 769.247 1675.54 770.909 1675.96 772.073 1678.46 z" fill="rgb(3,2,2)" transform="translate(0,0)"></path>
<path d="M 777.328 1680.27 C 777.627 1676.5 778.29 1675.17 779.623 1671.75 L 780.773 1671.6 C 781.633 1673.49 782.439 1675.16 783.093 1677.15 C 784.903 1678.23 787.124 1679.48 788.787 1680.7 L 788.15 1681.39 C 784.914 1684.73 780.965 1688.34 778.994 1692.45 L 776.372 1693.71 C 773.174 1692.44 771.603 1691.23 771.38 1687.8 C 773.25 1684.15 777.255 1682.11 780.761 1679.84 L 780.359 1678.65 L 777.328 1680.27 z" fill="rgb(3,2,2)" transform="translate(0,0)"></path>
<path d="M 305.535 1680.56 L 316.02 1688.27 C 324.197 1713.76 343.339 1735.27 370.404 1740.39 C 381.975 1758.55 394.248 1780.55 409.452 1795.68 C 414.406 1803.21 440.349 1782.28 439.549 1780.49 C 434.716 1769.71 453.977 1766.39 464.226 1763.51 C 479.819 1781.19 497.097 1797.31 515.815 1811.65 C 541.03 1830.93 545.592 1826.66 560.03 1858.21 C 561.251 1861.48 562.617 1866.32 563.708 1869.76 C 530.928 1886.38 432.412 1869.95 400.617 1850.13 C 392.404 1845.01 367.274 1812.14 356.047 1801.95 C 334.548 1782.45 313.793 1772.48 290.205 1756.51 C 289.017 1730.51 297.495 1704.83 305.535 1680.56 z" fill="rgb(255,255,255)" transform="translate(0,0)"></path>
<path d="M 566.278 788.687 C 570.425 792.414 612.649 915.073 617.147 927.487 C 625.602 950.824 642.469 1002.43 648.026 1027.79 L 617.5 1027.84 L 534.803 1027.99 C 537.222 1013.34 538.792 995.867 540.772 980.866 L 560.087 834.874 C 562.235 819.539 563.687 803.904 566.278 788.687 z" fill="rgb(255,255,255)" transform="translate(0,0)"></path>
<path d="M 666.635 253.1 L 669.35 253.317 C 671.693 256.303 673.85 268.528 674.59 272.685 C 685.263 332.628 698.611 391.999 707.753 452.232 C 710.08 467.559 712.615 483.139 716.467 498.137 L 663.5 498.238 L 612.419 498.166 L 614.538 481.218 C 665.368 452.58 657.246 305.451 656.561 255.755 L 666.635 253.1 z" fill="rgb(255,255,255)" transform="translate(0,0)"></path>
<path d="M 324.792 365.184 C 340.867 344.827 354.633 326.904 374.092 309.565 C 391.543 311.755 403.172 310.071 420.456 309.996 C 425.123 312.94 432.961 318.253 437.822 320.11 C 439.585 324.491 438.394 330.629 438.169 335.388 C 435.406 394.031 406.557 440.715 367.085 482.6 C 366.675 478.351 367.217 474.337 367.612 470.088 C 404.354 432.271 431.647 379.167 432.097 325.763 C 429.019 323.451 425.614 320.258 422.678 317.647 C 427.097 366.402 406.678 404.404 380.659 444.206 C 359.515 428.168 333.582 390.491 324.792 365.184 z" fill="rgb(255,255,255)" transform="translate(0,0)"></path>
<path d="M 368.082 219.653 C 375.811 223.879 385.16 227.928 392.44 232.044 C 397.636 234.981 399.4 243.752 410.567 244.247 C 417.489 244.554 416.48 237.814 422.912 242.265 C 426.002 250.226 425.823 291.218 425.527 301.185 C 420.621 301.111 414.256 301.635 409.248 301.903 C 397.598 302.603 390.601 302.508 378.97 302.029 C 370.928 292.398 354.295 278.989 344.3 268.917 C 351.19 249.607 358.15 237.348 368.082 219.653 z" fill="rgb(255,255,255)" transform="translate(0,0)"></path>
<path d="M 421.656 194.312 C 460.965 203.444 498.327 211.475 538.825 214.372 C 538.83 220.573 539.401 249.42 537.706 253.11 C 500.028 250.077 453.766 244.141 418.735 230.193 C 418.985 219.536 420.605 205.183 421.656 194.312 z" fill="rgb(255,255,255)" transform="translate(0,0)"></path>
<path d="M 320.475 1628.24 C 348.908 1643.95 378.538 1657.39 409.088 1668.43 C 408.509 1684.65 406.499 1700.76 405.922 1717.05 C 378.398 1710.01 342.175 1692.76 317.826 1678.13 C 318.527 1661.49 319.41 1644.86 320.475 1628.24 z" fill="rgb(255,255,255)" transform="translate(0,0)"></path>
<path d="M 669.449 1600.26 C 708.78 1607.3 735.803 1609.94 775.845 1610.25 C 774.409 1623.84 772.735 1637.41 770.823 1650.94 C 731.352 1651.73 703.33 1650.21 664.818 1641.67 C 666.53 1628.17 667.04 1613.39 669.449 1600.26 z" fill="rgb(255,255,255)" transform="translate(0,0)"></path>
<path d="M 648.911 208.361 C 655.883 207.548 659.356 206.448 665.97 204.471 C 666.122 216.887 666.297 228.8 665.82 241.23 C 656.147 245.739 650.038 248.649 639.674 251.63 C 631.369 253.212 623.284 255.019 614.835 255.312 C 604.555 257.26 575.342 256.595 563.945 256.437 L 564.158 216.059 C 568.366 215.89 572.862 215.917 577.095 215.874 L 577.351 214.992 C 585.27 212.906 609.66 211.077 618.055 210.984 L 620.944 210.643 C 625.273 209.581 643.888 208.442 648.911 208.361 z" fill="rgb(3,2,2)" transform="translate(0,0)"></path>
<path d="M 577.351 214.992 C 585.27 212.906 609.66 211.077 618.055 210.984 L 617.26 213.107 C 617.544 220.417 619.299 249.439 615.024 254.315 C 580.861 253.529 569.688 253.732 577.095 215.874 L 577.351 214.992 z" fill="rgb(3,2,2)" transform="translate(0,0)"></path>
<path d="M 577.351 214.992 C 585.27 212.906 609.66 211.077 618.055 210.984 L 617.26 213.107 C 604.028 212.979 589.571 215.394 577.351 214.992 z" fill="rgb(141,141,143)" transform="translate(0,0)"></path>
<path d="M 607.966 217.433 L 610.045 217.813 C 612.674 222.525 611.066 243.3 610.786 249.965 C 603.433 248.922 595.477 247.164 588.143 245.704 C 585.339 245.218 585.072 245.24 582.625 243.888 C 578.826 238.035 580.973 226.542 581.608 219.241 L 607.966 217.433 z" fill="rgb(255,255,255)" transform="translate(0,0)"></path>
<path d="M 648.911 208.361 C 655.883 207.548 659.356 206.448 665.97 204.471 C 666.122 216.887 666.297 228.8 665.82 241.23 C 656.147 245.739 650.038 248.649 639.674 251.63 C 631.369 253.212 623.284 255.019 614.835 255.312 C 604.555 257.26 575.342 256.595 563.945 256.437 L 564.158 216.059 C 568.366 215.89 572.862 215.917 577.095 215.874 C 569.688 253.732 580.861 253.529 615.024 254.315 C 619.299 249.439 617.544 220.417 617.26 213.107 L 618.055 210.984 L 620.944 210.643 L 620.971 212.34 C 621.055 226.123 621.321 240.162 619.387 253.822 C 624.876 252.711 631.67 251.536 636.998 250.193 C 657.79 243.599 662.218 237.928 656.987 214.563 C 656.47 212.253 653.088 211.459 651.126 210.757 L 648.472 209.58 L 648.911 208.361 z" fill="rgb(255,255,255)" transform="translate(0,0)"></path>
<path d="M 620.944 210.643 C 625.273 209.581 643.888 208.442 648.911 208.361 L 648.472 209.58 L 651.126 210.757 C 640.11 210.784 631.975 211.344 620.971 212.34 L 620.944 210.643 z" fill="rgb(141,141,143)" transform="translate(0,0)"></path>
<path d="M 627.059 216.16 C 650.746 214.753 653.521 211.919 652.795 236.412 L 645.542 241.151 C 637.341 244.513 634.411 245.402 625.997 247.397 C 626.722 237.001 627.076 226.582 627.059 216.16 z" fill="rgb(255,255,255)" transform="translate(0,0)"></path>
<path d="M 651.252 257.24 L 652.011 257.355 L 653.047 258.937 C 653.81 300.47 654.871 395.908 642.834 431.91 C 637.376 448.234 628.23 461.859 617.822 475.358 L 616.614 475.641 C 616.284 474.066 624.233 422.676 625.077 415.203 C 630.992 364.074 633.94 312.646 633.904 261.176 L 651.252 257.24 z" fill="rgb(255,255,255)" transform="translate(0,0)"></path>
<path d="M 598.05 1737.85 C 636.71 1744.01 678.681 1749.8 716.054 1761.41 C 740.972 1769.15 766.191 1783.26 789.909 1792.07 C 827.457 1806.03 880.78 1799.93 918.326 1788.52 C 930.736 1784.74 942.651 1778.89 953.977 1775.84 L 954.732 1776.36 C 947.682 1781.46 944.242 1782.61 936.278 1785.75 C 894.086 1802.31 827.414 1812.11 784.11 1794.19 C 753.022 1781.32 724.288 1764.03 689.916 1757.98 L 689.937 1782.22 C 661.852 1778.38 625.828 1774.93 598.541 1769.65 C 598.05 1759.15 598.108 1748.39 598.05 1737.85 z" fill="rgb(255,255,255)" transform="translate(0,0)"></path>
<path d="M 395.784 1722.94 C 400.92 1725.37 401.249 1726.43 404.803 1730.94 C 414.984 1730.4 432.084 1725.76 438.898 1728.72 L 438.633 1730.12 C 431.976 1733.83 402.372 1734.67 402.755 1743.75 C 403.757 1767.57 441.025 1728.88 450.451 1745.89 C 443.683 1749.6 431.854 1749.83 424.642 1752.85 C 419.529 1755 412.206 1762.04 414.95 1767.94 C 420.819 1770.02 423.913 1766.52 428.846 1763.21 C 433.242 1757.1 453.351 1750.33 458.91 1757.05 C 456.835 1761.19 433.108 1760.21 429.834 1772.29 C 430.464 1775.83 432.979 1777.38 435.802 1779.9 C 428.283 1786.52 422.597 1790.39 413.69 1794.92 C 402.004 1785.54 383.094 1754.4 374.842 1740.61 C 389.039 1738.62 389.677 1734.55 395.784 1722.94 z" fill="rgb(255,255,255)" transform="translate(0,0)"></path>
<path d="M 290.583 1766.64 C 309.361 1780.86 339.995 1796 355.042 1812.24 C 385.362 1844.95 389.771 1865.88 438.306 1874.59 C 469.884 1882.11 500.691 1885.62 533.097 1885.15 C 543.907 1885 562.828 1878.91 568.881 1879.22 C 563.543 1882.84 561.34 1883.38 555.116 1885.4 C 515.717 1892.67 418.743 1884.82 388.656 1856.77 C 375.337 1844.35 363.322 1815.21 338.057 1800.64 L 337.002 1800.04 L 337.577 1821.6 C 323.843 1813.52 302.863 1802.36 290.823 1793.02 C 290.595 1784.37 290.655 1775.33 290.583 1766.64 z" fill="rgb(255,255,255)" transform="translate(0,0)"></path>
<path d="M 622.251 1588.24 C 638.014 1593.29 648.945 1596.24 665.227 1599.08 L 661.381 1640.6 C 654.73 1640.07 627.145 1631.32 622.552 1625.49 C 616.8 1618.19 621.227 1598.45 622.251 1588.24 z" fill="rgb(255,255,255)" transform="translate(0,0)"></path>
<path d="M 619.062 1636.74 C 621.647 1636.97 637.01 1643.08 640.662 1644.37 C 670.218 1654.77 700.962 1657.11 731.968 1659.61 C 728.861 1665.47 727.579 1667.5 723.46 1672.7 C 695.903 1697.24 640.922 1655.66 619.062 1636.74 z" fill="rgb(255,255,255)" transform="translate(0,0)"></path>
<path d="M 445.297 1658.96 C 446.626 1658.81 446.003 1658.85 447.499 1659.58 C 448.022 1665.36 443.738 1693.23 442.626 1701.17 C 432.244 1708.7 424.161 1712.93 412.244 1717.3 C 410.31 1717.18 411.018 1717.37 409.353 1716.28 C 408.69 1712.37 412.486 1675.65 413.109 1668.71 C 423.678 1667 435.315 1662.75 445.297 1658.96 z" fill="rgb(255,255,255)" transform="translate(0,0)"></path>
<path d="M 376.041 177.4 L 401.723 189 C 399.546 200.552 398.374 212.064 397.053 223.731 L 395.25 224.501 C 387.031 221.73 379.645 216.811 372.498 211.978 L 376.041 177.4 z" fill="rgb(255,255,255)" transform="translate(0,0)"></path>
<path d="M 327.289 1694.35 C 331.004 1695.34 347.248 1703.89 352.399 1706.14 C 363.893 1711.17 375.065 1715.7 386.744 1720.35 L 381.951 1727.87 C 364.159 1744.08 334.308 1709.38 327.289 1694.35 z" fill="rgb(255,255,255)" transform="translate(0,0)"></path>
<path d="M 424.574 180.215 C 454.783 186.554 485.053 193.609 515.879 196.204 C 523.412 196.838 531.51 197.533 538.917 198.86 C 540.595 201.388 539.998 202.559 539.999 206.024 C 522.557 204.181 431.313 192.672 424.038 184.014 L 424.574 180.215 z" fill="rgb(255,255,255)" transform="translate(0,0)"></path>
<path d="M 546.552 198.279 C 550.155 198.516 551.481 198.514 554.968 199.696 C 557.13 202.844 555.433 257.276 555.36 264.81 C 551.479 264.701 550.284 264.772 546.518 263.559 C 542.87 258.107 545.629 207.594 546.552 198.279 z" fill="rgb(255,255,255)" transform="translate(0,0)"></path>
<path d="M 661.66 189.055 L 663.728 189.321 C 664.88 192.787 664.964 191.37 663.614 194.507 C 649.14 205.904 587.463 207.169 567.75 207.244 L 565.037 206.745 C 563.613 204.189 563.883 205.541 564.373 202.522 C 567.942 200.186 575.339 200.467 579.613 200.744 C 608.631 202.622 633.957 197.405 661.66 189.055 z" fill="rgb(255,255,255)" transform="translate(0,0)"></path>
<path d="M 304.702 1619.24 L 316.498 1626 L 313.886 1675.53 C 311.149 1673.95 305.641 1669.89 302.816 1667.95 C 303.244 1651.71 303.872 1635.47 304.702 1619.24 z" fill="rgb(255,255,255)" transform="translate(0,0)"></path>
<path d="M 411.737 177.191 C 413.075 177.669 416.195 178.734 416.184 179.535 C 416.043 189.746 410.757 227.322 409.676 235.351 C 407.671 234.644 406.318 234.011 404.421 233.124 C 401.75 228.435 410.214 185.392 411.737 177.191 z" fill="rgb(255,255,255)" transform="translate(0,0)"></path>
<path d="M 669.576 184.603 L 672.105 185.894 C 676.287 194.976 674.599 232.376 673.534 243.533 L 672.031 242.854 C 671.52 241.728 670.245 192.607 669.576 184.603 z" fill="rgb(255,255,255)" transform="translate(0,0)"></path>
<path d="M 375.465 164.937 C 379.043 165.118 401.974 173.28 405.408 175.746 L 405.868 179.23 C 399.748 181.201 377.95 171.932 375.465 164.937 z" fill="rgb(255,255,255)" transform="translate(0,0)"></path>
<path d="M 440.009 1734.27 L 441.807 1734.47 L 442.655 1736.22 C 441.723 1737.11 419.243 1744.45 415.253 1746.05 L 413.263 1745.99 L 413.281 1744.68 C 418.91 1738.69 432.083 1735.9 440.009 1734.27 z" fill="rgb(255,255,255)" transform="translate(0,0)"></path>
<path d="M 714.145 202.141 C 800.38 200.955 886.924 202.758 973.182 202.062 C 975.88 202.04 985.71 202.895 987.7 204.52 C 980.117 206.605 950.771 205.954 941.06 205.948 L 863.721 205.863 L 753.045 205.906 C 735.673 205.919 713.551 206.587 696.667 205.847 C 695.115 204.171 687.708 204.162 684.866 203.953 L 688.565 203.605 L 688.051 203.588 C 696.765 203.471 705.471 202.988 714.145 202.141 z" fill="rgb(3,2,2)" transform="translate(0,0)"></path>
<path d="M 1139.05 807.125 C 1148.95 806.921 1165.26 805.352 1163.13 820 C 1156.13 829.186 1166.93 824.91 1163.68 839.594 C 1156.41 845.944 1148.28 844.772 1138.98 844.661 C 1138.77 832.35 1139.01 819.481 1139.05 807.125 z" fill="rgb(3,2,2)" transform="translate(0,0)"></path>
<path d="M 1144.53 827.118 C 1150.49 826.953 1153.8 825.929 1158.03 830.367 C 1158.95 834.016 1158.37 835.149 1157.28 838.705 C 1152.94 839.496 1149.5 840.315 1145.75 838.418 C 1143.79 835.285 1144.45 831.062 1144.53 827.118 z" fill="rgb(255,255,255)" transform="translate(0,0)"></path>
<path d="M 1144.38 811.939 C 1149.22 811.878 1152.69 811.532 1156.37 814.572 C 1157.89 818.652 1157.56 816.978 1156.71 821.951 C 1152.59 822.855 1149.15 823.809 1145.49 821.994 C 1143.58 818.856 1144.21 815.772 1144.38 811.939 z" fill="rgb(255,255,255)" transform="translate(0,0)"></path>
<path d="M 1131.01 1485.91 C 1135.79 1485.75 1137.68 1486.98 1142 1489.02 C 1143.33 1487.91 1143.78 1487.62 1145.27 1486.72 L 1146.87 1487.71 C 1149.89 1495.4 1149.03 1508.6 1146.72 1516.68 C 1143.82 1526.84 1126.57 1529.47 1122.7 1519.97 C 1126.59 1518.59 1142.16 1525.29 1142.74 1513.11 C 1139.24 1509.61 1125.69 1516.73 1123.02 1509.14 C 1119.31 1498.58 1121.59 1490.71 1131.01 1485.91 z" fill="rgb(3,2,2)" transform="translate(0,0)"></path>
<path d="M 1132.75 1489.81 C 1145.4 1492.22 1146.19 1503.34 1136.23 1509.62 C 1132.9 1509.04 1130.59 1508.35 1128.62 1505.42 C 1127.05 1503.12 1126.48 1500.27 1127.06 1497.55 C 1127.91 1493.43 1129.46 1492.06 1132.75 1489.81 z" fill="rgb(255,255,255)" transform="translate(0,0)"></path>
<path d="M 1119.36 1006.02 C 1130.12 1005.53 1151.79 1006.7 1139.17 1023.12 C 1139.12 1028.08 1144.74 1025.06 1142.38 1037.08 C 1135.23 1043.69 1128.74 1042.41 1119.47 1042.15 L 1119.36 1006.02 z" fill="rgb(3,2,2)" transform="translate(0,0)"></path>
<path d="M 1124.68 1025.82 C 1129.4 1025.78 1132.97 1025.37 1136.54 1028.39 C 1137.87 1032.56 1137.63 1030.85 1136.56 1035.8 C 1132.59 1037.26 1129.61 1038.97 1125.81 1036.54 C 1124.08 1033.26 1124.61 1029.69 1124.68 1025.82 z" fill="rgb(255,255,255)" transform="translate(0,0)"></path>
<path d="M 1124.9 1009.91 C 1129.17 1009.79 1132.37 1009.51 1135.57 1012.3 C 1137.22 1015.5 1136.75 1016.71 1136.18 1020.34 C 1132.21 1021.45 1129.7 1022.2 1126.09 1021.01 C 1124.06 1017.82 1124.77 1013.92 1124.9 1009.91 z" fill="rgb(255,255,255)" transform="translate(0,0)"></path>
<path d="M 1009.59 804.606 C 1012.01 804.563 1012.97 804.695 1015.38 805.028 C 1020.16 809.435 1025.39 827.972 1027.99 835.306 C 1030.52 829.233 1037.32 807.83 1040.9 804.748 L 1042.74 805.211 C 1047.09 810.784 1049.26 838.5 1044.9 843.863 L 1043.17 843.761 C 1041.36 841.096 1041.63 824.768 1041.5 820.244 L 1040.79 818.051 C 1038.13 820.051 1030.3 843.042 1027.99 848.314 C 1023.38 839.806 1018.56 822.965 1014.26 812.464 C 1014.03 819.57 1015.06 841.448 1009.52 844.87 L 1008.7 844.208 C 1007.19 839.055 1009.27 811.226 1009.59 804.606 z" fill="rgb(3,2,2)" transform="translate(0,0)"></path>
<path d="M 1198.34 1187.08 C 1200.88 1187.52 1210.9 1187.88 1211.33 1188.83 C 1215.7 1198.65 1214.5 1228.1 1197.4 1224.33 C 1192.49 1223.24 1192.22 1223.51 1189.68 1220.02 C 1196.68 1217 1201.8 1223.34 1206.57 1215.21 C 1203.83 1211.61 1179.08 1215.05 1189.66 1192.37 C 1191.24 1188.97 1195.06 1188.12 1198.34 1187.08 z" fill="rgb(3,2,2)" transform="translate(0,0)"></path>
<path d="M 1196.42 1191.61 C 1198.68 1191.62 1202.85 1191.33 1204.63 1192.93 C 1209.77 1197.59 1208.15 1204.68 1203.46 1209.09 C 1192.05 1208.25 1190.62 1200.4 1196.42 1191.61 z" fill="rgb(255,255,255)" transform="translate(0,0)"></path>
<path d="M 1188.77 1248.18 C 1207.13 1248.15 1205.84 1259.87 1202.36 1274.2 C 1199.65 1285.34 1184.65 1292.87 1179.87 1278.64 C 1185.69 1278.51 1193.09 1285.57 1196.95 1275.38 C 1193.1 1271.17 1170.9 1277.92 1181.35 1252.56 C 1182.42 1249.96 1186.33 1248.94 1188.77 1248.18 z" fill="rgb(3,2,2)" transform="translate(0,0)"></path>
<path d="M 1189.69 1252.14 C 1191.93 1252.6 1194.74 1252.71 1196.17 1254.49 C 1200.39 1259.72 1198.26 1266.77 1193.74 1270.88 C 1182.83 1268.76 1180.85 1257.71 1189.69 1252.14 z" fill="rgb(255,255,255)" transform="translate(0,0)"></path>
<path d="M 1225.34 1002.52 C 1226.91 1003.03 1228.94 1003.28 1229.29 1004.8 C 1230.77 1011.22 1230.99 1036.57 1229.15 1041.79 C 1224.93 1043.15 1225.53 1040.48 1224.35 1040.72 C 1218.34 1041.93 1216.47 1042.86 1210.3 1041.65 C 1206.36 1037.95 1200.12 1027.45 1204.78 1022.55 C 1209.55 1017.54 1216.58 1017.03 1223.02 1016.33 C 1224.96 1013.26 1223.93 1007.12 1225.34 1002.52 z" fill="rgb(3,2,2)" transform="translate(0,0)"></path>
<path d="M 1213.84 1020.89 C 1226.28 1020.47 1228.56 1029.86 1220.62 1037.56 C 1208.37 1038.18 1206.8 1029.1 1213.84 1020.89 z" fill="rgb(255,255,255)" transform="translate(0,0)"></path>
<path d="M 1060.68 1294.34 C 1065.09 1297.22 1070.36 1311.02 1073.01 1316.83 C 1076.4 1311.35 1080.39 1299.13 1084.48 1296.86 C 1088.66 1301.24 1088.48 1330.67 1084.76 1334.53 L 1082.77 1333.97 C 1080.99 1331.06 1081.48 1324.88 1081.47 1321.09 C 1081.47 1318.02 1081.22 1316.3 1080.8 1313.23 L 1080.07 1313.29 C 1078.36 1317.03 1076.66 1322.56 1072.59 1323.72 C 1069.66 1321.75 1066.58 1314.63 1064.66 1311.04 C 1064.81 1316.81 1066.98 1332.84 1061.73 1334.94 C 1057.88 1331.25 1058.85 1303.76 1058.52 1297.16 C 1058.52 1297.16 1060.44 1294.66 1060.68 1294.34 z" fill="rgb(3,2,2)" transform="translate(0,0)"></path>
<path d="M 1087.9 543.605 C 1092.75 542.18 1097.98 543.514 1101.55 547.085 C 1105.12 550.655 1106.46 555.89 1105.03 560.733 C 1103.6 565.577 1099.64 569.253 1094.71 570.319 C 1087.46 571.885 1080.26 567.432 1078.43 560.242 C 1076.6 553.051 1080.79 545.701 1087.9 543.605 z" fill="rgb(3,2,2)" transform="translate(0,0)"></path>
<path d="M 1087.89 547.839 C 1101.64 546.534 1102.38 558.327 1095.08 566.9 C 1083.61 566.318 1080.65 556.355 1087.89 547.839 z" fill="rgb(255,255,255)" transform="translate(0,0)"></path>
<path d="M 1034.62 1248.21 C 1054.39 1245.91 1061.15 1263.22 1046.32 1274.25 C 1028.36 1278.23 1021.83 1258.93 1034.62 1248.21 z" fill="rgb(3,2,2)" transform="translate(0,0)"></path>
<path d="M 1038.65 1251.66 C 1040.81 1252.09 1043.46 1252.5 1045.16 1253.9 C 1047.1 1255.5 1048.26 1257.85 1048.35 1260.37 C 1048.54 1265.22 1046.46 1267.79 1043.54 1271.11 C 1032 1268.48 1030.38 1259.48 1038.65 1251.66 z" fill="rgb(255,255,255)" transform="translate(0,0)"></path>
<path d="M 1112.07 754.011 C 1130.61 754.169 1133.68 774.212 1117.03 781.781 C 1098.56 780.987 1096.04 762.074 1112.07 754.011 z" fill="rgb(3,2,2)" transform="translate(0,0)"></path>
<path d="M 1110.67 758.74 C 1123.43 758.731 1124.2 767.127 1118.64 776.704 C 1105.65 777.978 1105.39 767.168 1110.67 758.74 z" fill="rgb(255,255,255)" transform="translate(0,0)"></path>
<path d="M 1098.07 243.942 C 1115.17 244.25 1117.79 263.287 1101.95 271.372 C 1086.39 270.941 1080.87 251.416 1098.07 243.942 z" fill="rgb(3,2,2)" transform="translate(0,0)"></path>
<path d="M 1097.03 248.539 C 1109.31 249.258 1109.19 258.843 1102.5 266.739 C 1100.33 266.65 1097.77 266.603 1096 265.258 C 1094.37 263.998 1093.31 262.143 1093.06 260.101 C 1092.42 255.295 1094.34 252.086 1097.03 248.539 z" fill="rgb(255,255,255)" transform="translate(0,0)"></path>
<path d="M 1114.9 243.352 C 1117.7 243.455 1117.58 243.431 1120.15 244.525 C 1123.79 249.25 1125.61 256.287 1127.83 262.165 C 1129.3 257.435 1131.6 245.521 1136.73 244.829 C 1140.75 248.497 1142.95 256.839 1144.8 262.264 C 1147.08 255.382 1148.92 248.436 1154.37 243.369 L 1155.74 243.902 C 1156.14 247.552 1154.7 250.226 1153.37 253.74 C 1152.55 256.151 1151.71 258.554 1150.85 260.95 C 1149.47 264.777 1148.89 267.505 1145.14 269.265 L 1143 268.487 C 1139.66 264.803 1137.6 257.417 1135.86 252.495 C 1134.94 255.29 1133.99 258.077 1133.01 260.855 C 1131.39 265.426 1130.94 267.594 1126.54 269.677 C 1121.3 266.757 1117.08 249.959 1114.9 243.352 z" fill="rgb(3,2,2)" transform="translate(0,0)"></path>
<path d="M 1030.35 173.549 C 1034.44 175.912 1034.24 208.237 1030.89 211.045 L 1028.37 210.492 C 1026.4 207.343 1027.13 199.456 1027.12 195.028 L 1011 195.094 C 1011.05 200.964 1011.23 205.503 1010.28 211.351 C 1007.11 210.735 1007.95 211.34 1005.81 209.378 C 1003.76 202.604 1003.39 181.276 1008.33 176.395 L 1009.56 177.229 C 1011.71 181.413 1011.1 185.692 1010.96 190.449 L 1026.86 190.264 C 1026.63 183.321 1025.04 178.359 1030.35 173.549 z" fill="rgb(3,2,2)" transform="translate(0,0)"></path>
<path d="M 1158.5 1295.21 C 1166.48 1296.28 1161.8 1307.39 1163.54 1314.27 C 1169.54 1314.61 1177.09 1303.44 1184.43 1300.16 L 1184.58 1301.41 C 1181.93 1307.74 1179.12 1310.53 1174.71 1315.66 L 1185.41 1330.48 C 1186.89 1332.92 1186.62 1331.66 1186.46 1334.34 C 1175.29 1338.66 1174.17 1317.25 1164.76 1318.26 C 1160.89 1322.51 1163.36 1330.49 1160.03 1334.93 L 1158.46 1334.41 C 1155.6 1329.82 1157.52 1301.4 1158.5 1295.21 z" fill="rgb(3,2,2)" transform="translate(0,0)"></path>
<path d="M 1035.88 754.101 C 1044.03 753.624 1050.97 754.521 1052.38 764.373 C 1049.43 772.495 1039.08 767.557 1034.49 772.283 C 1036.03 777.26 1039.24 776.619 1043.63 777.084 C 1048.91 776.523 1047.74 775.924 1052.15 777.892 L 1052.29 779.156 C 1033.97 789.914 1017.42 766.519 1035.88 754.101 z" fill="rgb(3,2,2)" transform="translate(0,0)"></path>
<path d="M 1037.68 757.572 C 1042.05 757.83 1044.58 758.496 1046.44 762.714 C 1045.79 765.429 1046.49 764.297 1044 766.039 C 1039.9 766.12 1037.38 766.742 1034.53 764.517 C 1034.47 761.655 1036.02 760.053 1037.68 757.572 z" fill="rgb(255,255,255)" transform="translate(0,0)"></path>
<path d="M 1037.64 543.034 C 1046.92 542.577 1050.56 543.733 1053.88 553.493 C 1055.72 558.904 1055.47 564.063 1052.84 569.269 C 1046.32 570.094 1039.69 572.006 1034.07 569.342 C 1023.94 555.558 1044.28 556.584 1047.52 551.093 C 1043.8 545.513 1039.93 549.21 1033.29 547.626 C 1034.02 545.199 1035.31 544.856 1037.64 543.034 z" fill="rgb(3,2,2)" transform="translate(0,0)"></path>
<path d="M 1043.93 557.623 L 1046.54 558.085 C 1048.62 560.059 1047.97 558.847 1048.18 562.005 C 1046.68 565.539 1045.53 566.161 1042.53 568.49 C 1038.94 566.457 1037.99 565.913 1037.06 562.566 C 1039.3 559.214 1040.04 559.585 1043.93 557.623 z" fill="rgb(255,255,255)" transform="translate(0,0)"></path>
<path d="M 1192.12 753.884 C 1199.6 754.117 1207.61 757.863 1206.81 766.597 C 1201.53 772.905 1191.13 767.312 1187.67 772.277 C 1191.41 779.268 1195.6 777.938 1202.56 776.827 C 1203.38 776.497 1203.11 776.698 1204.4 777.197 L 1204.34 779.114 C 1190.91 792.398 1168.51 766.812 1192.12 753.884 z" fill="rgb(3,2,2)" transform="translate(0,0)"></path>
<path d="M 1193.27 757.592 C 1197.23 758.182 1200.99 760.297 1200.34 764.789 L 1198.02 765.704 C 1194.21 765.688 1191.68 766.145 1188.87 764.214 C 1189.22 761.174 1191.05 759.895 1193.27 757.592 z" fill="rgb(255,255,255)" transform="translate(0,0)"></path>
<path d="M 1037.99 484.99 C 1049.7 484.448 1052.56 487.981 1054.98 499.94 C 1055.82 504.106 1054.8 507.973 1052.14 511.395 C 1045.97 512.079 1041.54 513.029 1035.38 512.079 C 1032.87 509.021 1032.14 507.031 1032.23 503.225 C 1036.12 495.038 1041.37 498.582 1047.62 493.391 L 1047.27 491.45 C 1042.19 488.98 1039.28 491.502 1034.87 489.408 C 1035.19 486.752 1035.4 487.378 1037.99 484.99 z" fill="rgb(3,2,2)" transform="translate(0,0)"></path>
<path d="M 1045.93 498.969 C 1048.6 500.245 1048.21 501.912 1048.12 504.191 C 1045.91 507.993 1045.14 508.255 1041.29 510.105 C 1038.36 507.399 1037.69 506.539 1038.22 502.67 C 1040.58 499.964 1042.4 499.896 1045.93 498.969 z" fill="rgb(255,255,255)" transform="translate(0,0)"></path>
<path d="M 1157.75 1471.4 C 1162.83 1473.81 1161.13 1483.8 1160.96 1488.84 C 1184.02 1478.57 1182.75 1507.84 1175.93 1511.74 L 1174.27 1510.27 C 1172.38 1506.2 1173.1 1500.39 1173.28 1495.75 L 1172.76 1493 C 1171.46 1491.77 1169.64 1490.19 1167.64 1490.47 C 1155.77 1492.11 1166.05 1506.2 1159.71 1513.47 L 1158.05 1512.71 C 1157.47 1511.55 1156.45 1508.82 1156.44 1507.62 C 1156.32 1499.32 1153.17 1477.71 1157.75 1471.4 z" fill="rgb(3,2,2)" transform="translate(0,0)"></path>
<path d="M 1112.43 1173.28 C 1115.14 1173.69 1115.01 1173.63 1117.3 1175.13 C 1120.09 1180.96 1115.78 1182.91 1118.51 1189.53 C 1137.75 1180.41 1140.3 1205.1 1132.52 1213.68 L 1131.15 1213.23 C 1129.79 1208.83 1130.14 1203.44 1130.18 1198.75 C 1129.47 1193.46 1127.44 1191.31 1121.75 1192.06 C 1116.63 1196.48 1118.74 1206.1 1116.15 1213.77 L 1114.75 1214.25 L 1113.25 1212.81 C 1111.48 1208.46 1112.11 1179.35 1112.43 1173.28 z" fill="rgb(3,2,2)" transform="translate(0,0)"></path>
<path d="M 1226.71 803.311 C 1237.14 805.323 1229.36 811.425 1232.42 818.869 C 1236.94 817.451 1242.28 815.196 1246.44 818.664 C 1252.87 824.028 1251.12 838.922 1246.57 844.861 L 1245.1 844.412 C 1243.86 839.405 1244.17 833.941 1244.21 828.75 C 1244.03 825.474 1244.16 825.161 1242.35 822.588 C 1238.8 821.046 1240.3 821.202 1236.65 821.808 C 1230.39 826.974 1233.03 838.562 1229.4 844.969 L 1228.04 843.899 C 1225.98 839.903 1226.7 809.886 1226.71 803.311 z" fill="rgb(3,2,2)" transform="translate(0,0)"></path>
<path d="M 1079.27 1547.99 C 1086.94 1547.62 1096.12 1553.79 1093.47 1561.13 C 1087.46 1564.42 1078.2 1560.25 1075.6 1565.84 C 1078.07 1573.64 1083.46 1572.34 1090.52 1571.85 L 1091.75 1571.59 L 1092.3 1573.16 C 1079.26 1586.63 1055.87 1562.54 1079.27 1547.99 z" fill="rgb(3,2,2)" transform="translate(0,0)"></path>
<path d="M 1079.8 1551.45 C 1083.71 1552.11 1087.14 1553.54 1087.53 1557.86 L 1086 1559.05 C 1081.91 1559.02 1079.42 1559.61 1076.23 1557.78 C 1076.5 1554.56 1077.5 1554.32 1079.8 1551.45 z" fill="rgb(255,255,255)" transform="translate(0,0)"></path>
<path d="M 1076.9 816.932 C 1085.29 816.688 1091.39 820.342 1092.86 828.997 C 1090.06 835.978 1079.65 830.444 1075.18 834.588 C 1075.94 837.22 1075.95 837.072 1077.97 839.008 C 1081.6 840.611 1083.9 840.159 1087.8 839.914 L 1089.56 838.984 L 1091.15 839.894 L 1090.15 841.887 C 1070.88 854.397 1062.5 827.491 1076.9 816.932 z" fill="rgb(3,2,2)" transform="translate(0,0)"></path>
<path d="M 1078.06 820.349 C 1082.29 820.972 1085.43 822.651 1086.28 827.102 L 1084.74 828.556 C 1081.2 828.698 1078.64 829.241 1075.67 827.54 C 1075.34 823.956 1076.13 823.909 1078.06 820.349 z" fill="rgb(255,255,255)" transform="translate(0,0)"></path>
<path d="M 1071.9 1187.14 C 1073.88 1187.26 1078.78 1187.6 1080.21 1188.73 C 1086.08 1193.34 1087.35 1208.02 1083.52 1213.67 C 1078.83 1214.65 1082.5 1214.24 1078 1211.76 C 1072.72 1214.03 1071.74 1214.68 1066.19 1213.44 C 1057.01 1196.57 1074.64 1200.71 1078.53 1195.38 L 1077.83 1193.25 C 1074.97 1191.53 1070.14 1192.07 1066.52 1192.08 L 1065.96 1190.87 C 1068.28 1187.93 1067.91 1188.75 1071.9 1187.14 z" fill="rgb(3,2,2)" transform="translate(0,0)"></path>
<path d="M 1071.88 1201.09 C 1074.29 1199.8 1077.29 1200.7 1078.58 1203.11 C 1079.88 1205.51 1078.98 1208.51 1076.58 1209.81 C 1074.17 1211.12 1071.16 1210.22 1069.86 1207.81 C 1068.56 1205.39 1069.46 1202.38 1071.88 1201.09 z" fill="rgb(255,255,255)" transform="translate(0,0)"></path>
<path d="M 1067.57 1248.23 C 1071.25 1248.35 1072.17 1248.25 1075.47 1249.79 C 1080.29 1254.72 1082.09 1268.12 1078.25 1274.05 C 1070.7 1274.22 1066.02 1275.76 1059.62 1272.88 C 1058.87 1269.46 1058.11 1267.67 1059.2 1264.39 C 1061.7 1260.78 1068.18 1258.88 1072.74 1256.69 L 1073.21 1255.08 C 1071.08 1253.31 1062.58 1252.82 1059.11 1252.38 L 1058.45 1251.51 C 1061.35 1249.14 1063.93 1248.96 1067.57 1248.23 z" fill="rgb(3,2,2)" transform="translate(0,0)"></path>
<path d="M 1067.38 1261.78 C 1071.77 1261.86 1072.42 1261.34 1074.35 1265.31 C 1073.81 1268.87 1072.9 1269.45 1070.3 1272.05 C 1066.56 1270.71 1066.29 1270.7 1064.39 1267.84 C 1064.93 1263.92 1064.46 1265.4 1067.38 1261.78 z" fill="rgb(255,255,255)" transform="translate(0,0)"></path>
<path d="M 1215.93 544.06 C 1219.44 543.613 1224.99 543.164 1227.3 546.011 C 1230.19 549.585 1233.76 552.281 1232.44 557.028 C 1228.63 561.026 1219.88 557.633 1214.67 559.807 L 1214.19 561.438 C 1216.79 565.507 1218.74 566.363 1223.21 566.698 C 1227.28 566.194 1226.74 565.578 1229.48 567.245 L 1229.59 568.906 C 1219.54 578.414 1195.75 560.146 1215.93 544.06 z" fill="rgb(3,2,2)" transform="translate(0,0)"></path>
<path d="M 1216.76 547.759 C 1220.23 547.759 1220.68 547.783 1223.84 549.183 C 1226.03 552.228 1225.43 550.815 1225.67 555.068 C 1222.24 555.236 1218.27 555.897 1215.41 554.415 C 1214.61 551.02 1215.07 551.756 1216.76 547.759 z" fill="rgb(255,255,255)" transform="translate(0,0)"></path>
<path d="M 1162.44 485.105 C 1166.05 484.974 1170.38 484.51 1173.18 487.292 C 1177.54 491.628 1179.25 507.356 1175.21 511.663 C 1169.88 512.191 1164.12 513.237 1159.13 511.477 C 1148.05 497.89 1167.29 497.888 1171.12 492.485 L 1170.16 490.459 C 1167.86 489.359 1161.74 489.884 1158.85 489.953 L 1157.75 488.862 C 1159.57 485.989 1159.01 486.878 1162.44 485.105 z" fill="rgb(3,2,2)" transform="translate(0,0)"></path>
<path d="M 1169.62 499.064 C 1171.62 500.844 1171.14 502.288 1170.68 504.48 C 1168.4 507.64 1167.51 507.859 1163.89 509.478 C 1161.61 506.065 1161.72 505.828 1162.22 502.592 C 1164.42 500.051 1166.31 499.945 1169.62 499.064 z" fill="rgb(255,255,255)" transform="translate(0,0)"></path>
<path d="M 1044.9 1186.91 C 1052.7 1186.85 1059.5 1189.05 1060.87 1197.79 C 1057.85 1203.44 1051.09 1200.85 1043.52 1203.29 L 1043.1 1205.01 C 1043.49 1205.52 1043.89 1206.03 1044.3 1206.52 C 1047.79 1210.64 1049.51 1210.1 1055.17 1210.58 L 1056.78 1210.11 L 1058.11 1211.07 L 1057.32 1212.7 C 1042.2 1221.86 1027.19 1199.6 1044.9 1186.91 z" fill="rgb(3,2,2)" transform="translate(0,0)"></path>
<path d="M 1046.55 1190.97 C 1050.18 1191.47 1051.95 1192.05 1054.18 1194.86 L 1053.85 1196.43 L 1051.74 1197.74 C 1047.64 1197.6 1046.44 1198.1 1043.28 1196.08 C 1043.74 1192.94 1043.8 1193.78 1046.55 1190.97 z" fill="rgb(255,255,255)" transform="translate(0,0)"></path>
<path d="M 1088.27 471.209 C 1097.76 473.41 1090.82 479.947 1094.03 487.185 C 1107.33 483.673 1112.92 485.953 1111.69 501.16 C 1111.4 504.723 1110.35 509.918 1107.5 512.226 C 1105.35 509.932 1105.89 497.893 1105.88 494.069 C 1105.33 492.379 1104.93 492.06 1103.94 490.583 C 1100.77 489.331 1100.16 488.968 1096.83 489.414 C 1089.13 495.512 1095.69 506.359 1091.56 512.49 L 1090.04 512.439 C 1085.24 507.578 1087.32 478.785 1088.27 471.209 z" fill="rgb(3,2,2)" transform="translate(0,0)"></path>
<path d="M 1161.96 1548.15 C 1169.57 1549.15 1172.86 1550.49 1174.96 1558.85 C 1172.39 1565.76 1162.02 1560.04 1156.05 1564.1 L 1155.72 1566.2 C 1159.1 1571.5 1165.04 1571.78 1170.51 1570.82 L 1170.8 1570.72 L 1171.92 1571.41 C 1171.66 1574.02 1171.86 1573.12 1169.34 1575.39 C 1152.38 1581.24 1140.34 1555.74 1161.96 1548.15 z" fill="rgb(3,2,2)" transform="translate(0,0)"></path>
<path d="M 1161.88 1551.6 C 1165.79 1552.26 1167.21 1552.47 1168.38 1556.43 C 1166.59 1559.3 1167.24 1558.38 1163.15 1559.71 C 1158.97 1558.94 1158.58 1559.51 1156.63 1556.94 C 1157.65 1554.01 1159.21 1553.41 1161.88 1551.6 z" fill="rgb(255,255,255)" transform="translate(0,0)"></path>
<path d="M 1090.1 1015 C 1097.22 1015.04 1104.23 1019.43 1103.88 1026.99 C 1099.66 1032.56 1091.89 1028.57 1086.48 1032.01 C 1087.16 1035.13 1087.37 1034.49 1090.05 1037.21 C 1093.42 1038.57 1096.09 1037.96 1099.77 1037.64 L 1101.35 1037.77 L 1101.87 1039.19 L 1100.58 1040.94 C 1082.16 1048.37 1071.14 1025.56 1090.1 1015 z" fill="rgb(3,2,2)" transform="translate(0,0)"></path>
<path d="M 1089.62 1018.42 C 1093.21 1018.95 1098.72 1021.11 1097.49 1025.55 L 1094.75 1026.52 C 1091.65 1026.6 1089.48 1027.06 1086.97 1025.43 C 1086.68 1022.05 1087.62 1021.79 1089.62 1018.42 z" fill="rgb(255,255,255)" transform="translate(0,0)"></path>
<path d="M 1163.33 1247.06 C 1169.43 1247.87 1171.42 1248.47 1173.15 1254.92 C 1174.76 1260.92 1175.91 1266.54 1174.31 1272.68 C 1171.91 1274.36 1159.54 1274.78 1156.18 1274.52 C 1153.28 1270.49 1152.33 1268.6 1153.6 1263.93 C 1158.24 1258.9 1166.14 1261.39 1168.38 1255.62 C 1164.47 1248.85 1160.31 1253.61 1156.58 1250.57 C 1158.3 1248.1 1160.32 1247.94 1163.33 1247.06 z" fill="rgb(3,2,2)" transform="translate(0,0)"></path>
<path d="M 1164.8 1261.32 C 1168.07 1262.07 1168.16 1263.27 1168.41 1266.05 C 1166.94 1269.53 1166.03 1269.97 1162.95 1272.27 C 1159.52 1269.99 1159.74 1270.06 1158.94 1266.98 C 1160.19 1263.81 1161.87 1263.2 1164.8 1261.32 z" fill="rgb(255,255,255)" transform="translate(0,0)"></path>
<path d="M 1125.58 1536.36 C 1129.07 1537.16 1128.04 1536.44 1130.33 1538.78 C 1131.8 1545.96 1131.06 1553.83 1130.97 1561.36 C 1137.75 1554.85 1137.21 1552.96 1146.27 1548.95 L 1147.35 1549.57 C 1145.91 1553.88 1141.16 1558.11 1137.87 1561.52 L 1144.7 1570.17 C 1146.57 1572.04 1146.55 1571.92 1147.59 1574.32 L 1146.37 1575.48 C 1138.76 1574.04 1137.14 1566.34 1132.42 1564.39 C 1129.8 1566.84 1130.69 1569.21 1130.48 1573.9 L 1128.49 1575.68 L 1127.1 1574.88 C 1123.82 1568.14 1125.34 1544.83 1125.58 1536.36 z" fill="rgb(3,2,2)" transform="translate(0,0)"></path>
<path d="M 1155.72 185.044 C 1160.31 184.859 1166.5 184.102 1170.26 186.463 C 1172.45 191.058 1174.24 208.018 1168.85 210.55 C 1167.94 209.935 1167.02 209.334 1166.1 208.748 C 1161.07 210.895 1160.37 211.17 1154.93 211.126 C 1152.17 207.986 1151.34 206.662 1150.65 202.629 C 1152.86 195.365 1158.78 198.084 1166.49 193.249 L 1166.88 191.427 C 1164.33 188.57 1159.96 189.03 1156.52 189.322 L 1155.3 189.432 L 1154.38 188.133 L 1155.72 185.044 z" fill="rgb(3,2,2)" transform="translate(0,0)"></path>
<path d="M 1162.61 197.579 C 1165 197.927 1164.93 198.072 1166.67 199.623 L 1166.77 201.987 C 1165.08 205.208 1164.02 205.588 1160.85 207.499 C 1157.01 205.241 1157.44 206.313 1156.3 203.026 C 1157.52 200.096 1159.77 199.279 1162.61 197.579 z" fill="rgb(255,255,255)" transform="translate(0,0)"></path>
<path d="M 1063.89 1015.07 C 1071.01 1015.28 1076.89 1017.78 1076.86 1025.9 C 1073.31 1031.98 1067.75 1028.96 1060.31 1032.07 C 1060.86 1039.23 1069.39 1038.03 1074.24 1037.72 L 1075.45 1037.61 L 1075.89 1039.47 L 1074.47 1041.16 C 1055.6 1049.1 1045.48 1024.54 1063.89 1015.07 z" fill="rgb(3,2,2)" transform="translate(0,0)"></path>
<path d="M 1151.99 1015.97 C 1155.24 1015.64 1160.07 1015.09 1162.8 1017.03 C 1169.07 1021.49 1171.91 1034.91 1167.52 1041.19 C 1160.7 1041.55 1158.07 1042.64 1151.25 1041.53 C 1148.88 1038.23 1148.19 1037.35 1148.12 1033.34 C 1151.37 1025.87 1155.22 1028 1162.69 1023.07 L 1162.05 1021.42 C 1158.91 1019.39 1153.84 1020.12 1149.59 1019.91 L 1149.33 1018.47 L 1151.99 1015.97 z" fill="rgb(3,2,2)" transform="translate(0,0)"></path>
<path d="M 1157.89 1028.47 C 1161.95 1029.33 1162.33 1029.59 1163.17 1033.42 C 1162.1 1036.93 1161.21 1037.42 1158.53 1040 C 1154.73 1037.43 1154.56 1037.55 1153.25 1034.03 C 1154.77 1030.24 1154.13 1031.54 1157.89 1028.47 z" fill="rgb(255,255,255)" transform="translate(0,0)"></path>
<path d="M 1083.03 173.332 L 1087.49 174.144 C 1091.27 178.899 1086.45 178.866 1089.46 185.748 C 1093.88 185.982 1099.43 183.735 1103.08 187.523 C 1107.76 192.376 1107.36 206.335 1102.33 210.731 L 1101.23 209.987 C 1100.07 205.778 1100.35 200.229 1100.36 195.75 C 1100.09 193.156 1099.87 193.109 1098.57 190.937 C 1083.78 182.928 1091.51 205.204 1086.93 210.819 L 1083.98 210.871 C 1082.19 208.379 1083.01 178.708 1083.03 173.332 z" fill="rgb(3,2,2)" transform="translate(0,0)"></path>
<path d="M 1152.1 532.204 L 1152.87 532.226 C 1158.38 532.428 1159.93 532.19 1163.11 535.56 C 1161.51 540.165 1153.27 534.942 1146.99 540.328 C 1147.24 548.852 1166.38 550.296 1164.99 563.013 C 1161.93 568.226 1157.8 569.733 1152.36 571.219 C 1148.09 570.868 1146.66 570.85 1142.49 569.374 C 1140.64 566.92 1141.09 568.282 1141.23 565.108 C 1145.8 563.461 1152.35 570.627 1158.32 562.327 C 1157.72 553.305 1123.64 541.177 1152.1 532.204 z" fill="rgb(3,2,2)" transform="translate(0,0)"></path>
<path d="M 1210.16 1236.31 C 1221.14 1237.07 1212.55 1242.88 1216.66 1250.08 C 1235.21 1241.35 1237.71 1266.01 1231.13 1274.34 L 1229.62 1273.94 C 1227.36 1269.8 1228.02 1265.53 1228.19 1260.75 C 1228.14 1256.27 1227.91 1254.61 1223.96 1252.55 C 1212.24 1253.16 1216.21 1267.06 1214.83 1273.38 C 1212.36 1274.56 1213.64 1274.44 1210.88 1273.54 C 1209.8 1268.78 1210.15 1242.98 1210.16 1236.31 z" fill="rgb(3,2,2)" transform="translate(0,0)"></path>
<path d="M 1190.89 543.014 C 1199.46 542.861 1204.17 546.435 1204.82 555.303 C 1201.88 561.558 1193.21 555.974 1188.21 560.13 C 1188.66 563.646 1188.12 562.299 1190.47 565.195 C 1194.07 566.786 1198.02 566.186 1202.09 566.037 L 1203.44 566.298 L 1203.69 567.654 C 1203.1 568.288 1201.83 569.499 1201.02 569.708 C 1187.84 573.136 1185.91 569.841 1182.38 558.663 C 1184.32 550.194 1184.21 548.284 1190.89 543.014 z" fill="rgb(3,2,2)" transform="translate(0,0)"></path>
<path d="M 1192.82 546.407 C 1196.68 548.199 1198.6 548.947 1198.45 553.281 L 1196.01 555.253 C 1191.9 554.572 1190.69 555.055 1188.42 552.54 C 1188.93 549.699 1190.69 548.51 1192.82 546.407 z" fill="rgb(255,255,255)" transform="translate(0,0)"></path>
<path d="M 1116.76 1295.19 C 1141.18 1298.98 1123.26 1310.63 1126.38 1314.67 C 1142.91 1336.14 1113.99 1338.65 1104.68 1331.47 L 1105.25 1329.94 L 1108.17 1329 C 1115.22 1330.76 1119.96 1333.04 1125.01 1326.97 C 1125.78 1323.94 1125.78 1323.85 1124.61 1320.87 C 1120.87 1316.27 1117.37 1318.79 1114.91 1314.96 L 1115.64 1313.11 C 1120.19 1311.42 1123 1311.2 1124.8 1306.45 C 1124.12 1303.33 1124.67 1303.41 1122.79 1301.58 C 1118.24 1300.77 1113.64 1301.67 1109.02 1302.25 L 1108.51 1299.68 C 1111.94 1296.82 1112.41 1296.45 1116.76 1295.19 z" fill="rgb(3,2,2)" transform="translate(0,0)"></path>
<path d="M 1037.03 1538.14 C 1044.03 1537.6 1044.94 1536.81 1050.2 1541 C 1048.21 1543.91 1041.8 1542.05 1036.74 1546.02 C 1035.02 1555.34 1069.43 1563.17 1043.24 1576.57 L 1042.28 1576.61 C 1038.03 1576.78 1033.5 1576.86 1030.29 1573.85 C 1029.89 1570.95 1029.53 1571.67 1030.82 1569.85 C 1032.71 1570.22 1034.6 1570.56 1036.5 1570.88 C 1041.15 1571.64 1042.6 1571.95 1046.46 1569.2 L 1046.65 1567.59 C 1041.65 1557.58 1020.67 1551.35 1037.03 1538.14 z" fill="rgb(3,2,2)" transform="translate(0,0)"></path>
<path d="M 1026.63 1476.21 C 1030.91 1476 1032.85 1475.68 1037.01 1477.07 C 1039.4 1479.59 1038.85 1478.14 1038.84 1481.5 C 1035.35 1484.08 1030.9 1477.25 1025.63 1483.69 C 1025.81 1491.36 1036.7 1493.37 1040.5 1502.58 C 1041.02 1509.18 1035.91 1512.1 1030.39 1514.08 C 1025.43 1514.17 1019.51 1514.26 1017.98 1508.91 L 1019.02 1507.07 C 1025.26 1508.79 1030.01 1511.52 1033.83 1505.42 C 1032.68 1494.75 1005.89 1487.55 1026.63 1476.21 z" fill="rgb(3,2,2)" transform="translate(0,0)"></path>
<path d="M 1060.76 183.943 C 1064.74 184.499 1073.49 185.144 1076.41 186.662 C 1073.53 195.109 1078.84 195.776 1070.36 203.085 C 1053.89 204.271 1045.62 192.784 1060.76 183.943 z" fill="rgb(3,2,2)" transform="translate(0,0)"></path>
<path d="M 1062.34 188.502 C 1065.17 187.191 1068.53 188.39 1069.89 191.196 C 1071.25 194.003 1070.11 197.383 1067.33 198.792 C 1065.48 199.726 1063.28 199.593 1061.56 198.443 C 1059.85 197.293 1058.88 195.306 1059.04 193.245 C 1059.2 191.184 1060.46 189.371 1062.34 188.502 z" fill="rgb(255,255,255)" transform="translate(0,0)"></path>
<path d="M 1158.46 1186.26 C 1163.34 1187.72 1163.51 1189.55 1169.5 1187.82 C 1184.92 1183.38 1185.22 1206.36 1178.2 1214.41 L 1176.82 1213.69 C 1175.91 1209.19 1176.13 1203.44 1176.14 1198.75 C 1175.45 1193.58 1173.38 1190.27 1167.56 1191.29 C 1161.59 1197.41 1166.08 1208.99 1161.92 1215.22 L 1159.84 1214.31 C 1156.8 1209.28 1158.25 1193.02 1158.46 1186.26 z" fill="rgb(3,2,2)" transform="translate(0,0)"></path>
<path d="M 1057.61 203.465 C 1064.16 206.31 1079.05 205.65 1078.96 214.831 C 1077.05 218.229 1075.72 218.774 1072.48 220.752 C 1065.71 221.263 1057.33 223.071 1053.46 216.496 C 1053.07 210.432 1055.93 211.068 1054.53 205.584 L 1057.61 203.465 z" fill="rgb(3,2,2)" transform="translate(0,0)"></path>
<path d="M 1059.55 209.961 C 1063.85 209.88 1071.23 209.557 1072.58 214.218 L 1070.77 216.464 C 1066.12 217.058 1059.55 218.382 1057.7 213.43 L 1059.55 209.961 z" fill="rgb(255,255,255)" transform="translate(0,0)"></path>
<path d="M 1171.05 817.118 L 1174.54 818.02 C 1181.2 825.561 1169.56 835.821 1181.67 840.209 C 1194.56 836.326 1184.38 817.722 1193.25 817.806 C 1195.11 820.263 1194.74 821.455 1194.74 824.75 C 1194.84 829.73 1195.77 841.211 1193.52 844.676 L 1191.73 844.738 L 1188.47 841.33 C 1167.88 852.588 1170.77 830.695 1171.05 817.118 z" fill="rgb(3,2,2)" transform="translate(0,0)"></path>
<path d="M 1064.84 235.28 C 1069.76 235.264 1084.16 233.805 1086.33 238.007 L 1085.36 239.286 C 1080.09 241.881 1073.88 237.422 1070.71 241.48 C 1069.73 255.917 1075.85 247.589 1082.4 251.652 L 1082.63 254.843 L 1070.98 255.844 C 1071.08 260.331 1071.98 266.873 1069.71 270.143 C 1066.66 270.696 1067.98 271.015 1065.57 269.378 C 1064.4 262.836 1064.86 242.681 1064.84 235.28 z" fill="rgb(3,2,2)" transform="translate(0,0)"></path>
<path d="M 1127.13 174.154 C 1131.95 174.113 1147.03 172.473 1148.71 176.985 C 1145.12 182.258 1138.33 176.77 1132.9 179.796 C 1131.79 183.622 1132.12 184.966 1132.55 188.806 C 1137.43 191.432 1141 186.987 1145.77 191.014 L 1145.78 194.08 L 1132.12 194.105 C 1132.15 198.839 1132.4 205.454 1131.8 209.96 L 1130.17 211.102 L 1128.2 210.708 C 1125.67 206.986 1127 180.431 1127.13 174.154 z" fill="rgb(3,2,2)" transform="translate(0,0)"></path>
<path d="M 987.95 1237.97 C 992.865 1237.91 997.78 1237.88 1002.7 1237.89 C 1006.17 1237.91 1007.83 1237.66 1010.06 1239.9 C 1006.93 1245.48 1000.11 1240.03 994.317 1243.21 C 993.418 1246.86 993.817 1248.79 994.122 1252.5 C 999.288 1256.44 1003.63 1249.76 1006.79 1258.32 C 1002.87 1259.04 997.549 1258.74 993.445 1258.67 C 993.567 1263.03 994.795 1271.72 991.156 1274.31 L 989.537 1273.4 C 986.628 1267.45 987.827 1245.78 987.95 1237.97 z" fill="rgb(3,2,2)" transform="translate(0,0)"></path>
<path d="M 1185.6 484.562 C 1195.7 486.056 1185.94 488.499 1200.78 485.348 C 1213.03 487.951 1212.39 504.829 1206.62 512.163 L 1205.25 511.973 C 1203.88 507.304 1204.2 502.633 1204.23 497.75 C 1204.26 494.556 1204.42 494.199 1202.96 491.493 C 1200.06 489.771 1199.61 489.788 1196.22 489.957 C 1189.6 495.886 1194.29 508.96 1189.14 512.669 C 1185.97 510.097 1187.24 500.774 1186.7 496.267 C 1186.25 492.454 1186.11 488.482 1185.6 484.562 z" fill="rgb(3,2,2)" transform="translate(0,0)"></path>
<path d="M 1134.66 1237.07 C 1140.19 1236.9 1149.84 1235.14 1152.65 1240.27 L 1151.77 1241.56 C 1148.34 1241.79 1144.91 1241.91 1141.48 1241.94 C 1139.71 1243.76 1140.14 1244.65 1139.62 1247.76 C 1142.42 1255.51 1147.19 1249.4 1152.67 1253.08 C 1152.58 1256.36 1153.16 1256.18 1151.49 1257.93 L 1149.77 1256.71 C 1146.35 1256.23 1145.73 1255.98 1142.43 1256.65 C 1137.03 1261.77 1142.39 1267.23 1140.04 1273.69 C 1137.06 1274.91 1138.5 1274.9 1135.59 1273.95 C 1134.76 1271.14 1134.76 1242.49 1134.66 1237.07 z" fill="rgb(3,2,2)" transform="translate(0,0)"></path>
<path d="M 1015.48 1005.49 C 1024.26 1005.21 1029.28 1004.54 1037.79 1007.38 L 1037.89 1008.57 C 1034.06 1010.87 1031.48 1010.46 1026.99 1010.4 L 1026.97 1039.19 L 1026.23 1041.51 L 1023.75 1042.19 L 1021.96 1040.88 C 1020.09 1034.9 1020.99 1017.4 1021.13 1010.44 C 1017.56 1010.36 1011.36 1010.8 1009.86 1007.02 C 1011.62 1005.41 1013.05 1005.64 1015.48 1005.49 z" fill="rgb(3,2,2)" transform="translate(0,0)"></path>
<path d="M 1183.83 1016.44 C 1188.51 1015.81 1193.69 1015.38 1196.56 1020.11 C 1199.02 1024.17 1199.19 1036.49 1197.9 1040.97 C 1195.51 1042.34 1196.78 1042.12 1193.92 1041.42 C 1189.53 1032.91 1197.22 1027.55 1188.99 1019.24 C 1177.58 1023.55 1184.58 1032.77 1179.94 1041.69 L 1178.26 1041.81 C 1175.99 1037.42 1174.73 1019.44 1178.53 1016.62 L 1182.46 1017.69 L 1183.83 1016.44 z" fill="rgb(3,2,2)" transform="translate(0,0)"></path>
<path d="M 1000.97 535.329 C 1010.39 534.53 1020.49 534.446 1029.74 536.399 L 1030.13 537.948 C 1026.48 539.682 1023.36 539.452 1019.36 539.53 L 1019.5 557.25 C 1019.56 561.016 1020.28 566.952 1018.44 569.84 C 1015.31 570.042 1016.22 570.455 1014.2 568.894 C 1012.81 563.271 1013.51 546.171 1013.61 539.61 C 1006.43 540.118 1003.34 542.159 1000.97 535.329 z" fill="rgb(3,2,2)" transform="translate(0,0)"></path>
<path d="M 1103.8 816.93 C 1111.27 817.017 1112.1 816.295 1116.91 822.37 L 1116.12 823.546 C 1112.29 822.731 1108.24 821.455 1104.53 822.174 L 1103.84 824.182 C 1106.32 828.746 1113.58 829.833 1118.47 835.361 C 1119.55 838.987 1119.64 837.52 1118.29 840.894 C 1114.98 844.038 1113.92 844.302 1109.82 845.87 C 1105.22 845.352 1098.15 844.602 1097.19 839.528 C 1102.72 837.195 1107.06 843.694 1112.83 838.494 C 1110.6 832.219 1097.89 832.268 1097.97 822.694 C 1099.37 819.348 1100.73 818.827 1103.8 816.93 z" fill="rgb(3,2,2)" transform="translate(0,0)"></path>
<path d="M 1131.26 474.261 L 1135.4 475.278 C 1138.39 480.162 1136.88 500.087 1136.77 507.007 C 1144.71 507.023 1151.74 503.808 1154.11 512.291 L 1131 512.446 C 1130.95 499.759 1130.78 486.927 1131.26 474.261 z" fill="rgb(3,2,2)" transform="translate(0,0)"></path>
<path d="M 1196.32 1292.61 C 1206.22 1295.88 1208.35 1315.38 1207.3 1324.06 C 1206.14 1333.54 1204.66 1337.84 1199.97 1345.92 L 1198.71 1346.4 L 1197.1 1345.48 C 1196.4 1341.66 1201.4 1330.05 1201.57 1323.07 C 1201.85 1310.72 1197.52 1303.53 1196.32 1292.61 z" fill="rgb(3,2,2)" transform="translate(0,0)"></path>
<path d="M 1010.84 474.99 C 1014.98 474.937 1025.26 474.278 1028.44 475.801 L 1028.86 477.872 C 1026.14 482.17 1021.31 477.944 1015.34 482.465 C 1014.39 485.531 1015.29 486.845 1016.48 489.986 C 1018.43 491.571 1022.57 490.89 1026.58 491.472 L 1027.35 493.013 L 1025.98 495.338 C 1006.7 494.857 1020.7 504.375 1014.62 511.432 L 1012.18 511.001 C 1010.07 507.585 1010.86 481.203 1010.84 474.99 z" fill="rgb(3,2,2)" transform="translate(0,0)"></path>
<path d="M 1065.84 754.027 C 1071.05 754.093 1071.81 754.19 1076.73 755.865 L 1076.8 756.794 C 1072.68 757.919 1068.3 758.728 1064.87 761.106 C 1065.93 765.006 1075.72 767.807 1078.71 773.792 C 1078.76 780.123 1072.91 780.655 1067.66 781.815 C 1064.46 781.371 1059.3 780.563 1057.28 777.856 L 1058.16 776.066 C 1063.93 774.142 1066.82 779.394 1071.99 775.264 C 1068.98 768.541 1058.09 768.326 1059.15 759.192 C 1061.04 755.943 1062.52 755.566 1065.84 754.027 z" fill="rgb(3,2,2)" transform="translate(0,0)"></path>
<path d="M 1010.6 1178.35 C 1015.58 1177.45 1035.1 1176.59 1038.66 1179.14 L 1038.34 1181.12 C 1034.12 1183.71 1033.45 1180.71 1028.64 1183.04 C 1027.4 1186.52 1027.98 1196.53 1028.04 1200.75 C 1028.14 1205.02 1028.67 1209.38 1027.2 1213.26 L 1025.14 1213.74 L 1023.51 1212.63 C 1021.89 1206.03 1022.67 1189.88 1022.77 1182.42 C 1016.61 1182.54 1014.23 1183.65 1010.6 1178.35 z" fill="rgb(3,2,2)" transform="translate(0,0)"></path>
<path d="M 1047.69 1294.32 L 1049.74 1295.11 C 1050.68 1297.29 1045.67 1312.03 1044.92 1315.98 C 1043.14 1325.37 1051.33 1340.79 1050 1346.69 C 1033.55 1336.74 1038.49 1308.31 1047.69 1294.32 z" fill="rgb(3,2,2)" transform="translate(0,0)"></path>
<path d="M 1007.39 743.237 L 1010.94 744.09 C 1014.09 748.517 1012.75 769.419 1012.69 776.014 C 1019.78 775.75 1025.62 773.461 1027.24 780.871 C 1020.99 781.133 1013.45 780.921 1007.1 780.912 C 1007.04 768.898 1006.65 755.087 1007.39 743.237 z" fill="rgb(3,2,2)" transform="translate(0,0)"></path>
<path d="M 1097.68 1181.68 C 1101.18 1184.26 1099.59 1184.95 1100.79 1186.76 C 1101.49 1187.82 1103.9 1186.63 1105.96 1190.36 L 1104.72 1192.37 C 1102.12 1193.31 1102.84 1192.93 1099.38 1191.36 L 1097.34 1192.16 C 1092.97 1198.68 1105.44 1197.9 1106.81 1208.33 C 1105.7 1211.89 1105.13 1212.19 1102.07 1214.41 C 1096.49 1214.69 1094.05 1215.52 1090.19 1211.17 L 1090.87 1210.29 C 1093.91 1210.07 1096.94 1209.79 1099.97 1209.45 L 1101.17 1207.97 C 1096.14 1195.5 1081.84 1200.83 1097.68 1181.68 z" fill="rgb(3,2,2)" transform="translate(0,0)"></path>
<path d="M 1186.94 172.508 C 1191.77 173.573 1190.55 172.62 1193.19 175.575 C 1192.44 177.907 1189.77 178.649 1187.04 180.199 C 1186.45 182.907 1186.38 181.568 1187.57 184.318 C 1189.91 185.26 1191.03 185.419 1192.4 187.52 L 1191.92 189.503 C 1190.03 189.891 1189.29 190.075 1187.47 190.707 C 1186.21 195.244 1186.81 205.503 1186.91 210.675 L 1183.49 210.741 C 1177.01 203.846 1186.63 193.554 1178.35 189.091 L 1178 187.006 C 1180.55 181.44 1182.26 176.327 1186.94 172.508 z" fill="rgb(3,2,2)" transform="translate(0,0)"></path>
<path d="M 1062.67 535.547 C 1064.54 536.103 1065.25 536.488 1067 537.282 C 1067.45 539.493 1067.88 540.586 1068.64 542.657 C 1071.23 542.88 1071.47 542.868 1073.92 543.634 L 1074.63 546.131 L 1073.83 547.415 L 1068.92 548.128 C 1063.49 553.618 1066.52 558.387 1069.09 564.498 C 1070.05 566.803 1074.32 567.128 1076.58 567.607 C 1076.03 568.493 1075.22 569.905 1074.41 570.13 C 1057.68 574.77 1063.02 558.124 1061.93 548.535 C 1062.16 550.601 1059.17 545.644 1059.09 545.46 C 1061.42 541.682 1061.85 540.9 1062.52 536.538 L 1062.67 535.547 z" fill="rgb(3,2,2)" transform="translate(0,0)"></path>
<path d="M 1183.27 1541.3 L 1186.22 1542.62 L 1187.74 1547.03 C 1189.8 1548.41 1191.99 1548.62 1194.44 1549.11 C 1185.58 1555.94 1186.24 1558.77 1187.25 1569.53 C 1190.59 1573.35 1189.49 1568.86 1195.11 1573.33 C 1193.95 1574.73 1192.43 1575.77 1190.71 1576.35 C 1187.58 1577.42 1187.53 1576.82 1185.11 1575.49 C 1180.62 1569.43 1182.25 1560.74 1180.88 1552.98 L 1177.84 1551.49 C 1177.75 1548.54 1181.33 1544.25 1183.27 1541.3 z" fill="rgb(3,2,2)" transform="translate(0,0)"></path>
<path d="M 1090 1239.18 C 1092 1239.72 1091.9 1239.77 1093.56 1241.06 L 1093.9 1246.51 C 1095.68 1248.92 1096.38 1248.39 1099.94 1249.21 C 1102.18 1253.3 1086.23 1257.98 1095.58 1270.35 C 1098.39 1270.51 1098.9 1270.57 1101.17 1272.24 C 1099.83 1273.89 1096.7 1276.01 1094.78 1275.87 C 1086.93 1275.26 1089.15 1260.59 1087.79 1255.1 C 1087.79 1255.09 1084.39 1251.91 1084.26 1251.79 L 1084.36 1249.61 C 1085.77 1249.04 1087.17 1248.43 1088.56 1247.79 C 1089.22 1244.86 1089.57 1242.14 1090 1239.18 z" fill="rgb(3,2,2)" transform="translate(0,0)"></path>
<path d="M 1110.22 1548.21 C 1113.37 1548.49 1118.42 1549.28 1120.3 1552.01 L 1119.4 1553.41 C 1115.12 1555.14 1112.82 1553.37 1106.89 1553.66 C 1099.15 1558.74 1101.82 1577.31 1118.87 1569.6 C 1120.41 1570.68 1119.71 1570.1 1120.46 1572.52 C 1113.44 1582.69 1088.34 1568.91 1098.86 1555.37 C 1103.57 1549.31 1102.11 1550.1 1110.22 1548.21 z" fill="rgb(3,2,2)" transform="translate(0,0)"></path>
<path d="M 1070.93 485.134 C 1074.13 484.922 1078.76 484.898 1081.43 486.727 C 1081.15 487.64 1080.81 488.715 1080.42 489.952 C 1076 491.128 1069.56 491.288 1066.15 494.599 C 1062.06 498.567 1068.15 504.641 1071.16 507.064 C 1074.92 508.322 1076.81 507.665 1080.74 507.055 C 1081.36 507.613 1081.45 508.456 1081.79 509.46 L 1080.6 511.213 C 1062.31 518.791 1050.69 494.331 1070.93 485.134 z" fill="rgb(3,2,2)" transform="translate(0,0)"></path>
<path d="M 1087.23 747.169 C 1088.16 747.493 1089.5 748.193 1090.43 748.638 L 1090.91 752.532 C 1093.33 754.633 1092.85 753.926 1097.03 753.998 C 1099.38 755.692 1098.57 754.574 1099.28 757.64 C 1095.44 760.82 1084.97 755.549 1091.94 774.088 C 1093.03 776.985 1096.08 777.437 1098.67 778.375 C 1098.01 779.929 1097.79 779.913 1096.49 781.048 C 1093.2 781.589 1091.73 782.222 1088.96 780.657 C 1083.57 774.795 1086.69 767.237 1084.86 759.034 L 1082.52 757.703 L 1082.1 755.554 C 1085.08 752.293 1085.49 751.066 1087.23 747.169 z" fill="rgb(3,2,2)" transform="translate(0,0)"></path>
<path d="M 1107.79 1239.22 C 1109.43 1239.56 1109.95 1239.91 1111.48 1240.62 C 1112.51 1244.37 1115.37 1248.64 1117.38 1252.31 C 1111.19 1258.43 1109.17 1263 1114.57 1270.24 C 1117.37 1271.1 1118.08 1271.44 1120.2 1273.46 C 1116.86 1275.38 1114.61 1275.86 1110.91 1274.78 C 1105.62 1270.01 1108.22 1262.68 1106.72 1254.46 L 1103.37 1252.59 L 1103.19 1250.57 C 1107.1 1246.07 1107.44 1245.18 1107.79 1239.22 z" fill="rgb(3,2,2)" transform="translate(0,0)"></path>
<path d="M 1202.31 176.764 L 1203.65 178.628 C 1203.74 181.453 1203.46 182.85 1205.02 185.028 L 1207.96 185.13 C 1210.21 186.818 1209.51 185.723 1210.03 188.591 C 1207.94 189.779 1207.46 189.796 1205.18 190.287 L 1204.49 190.433 C 1203.93 193.221 1203.23 203.341 1205.29 205.64 C 1205.98 206.411 1207.93 205.365 1210.17 208.421 L 1209.64 211.678 C 1208.93 211.622 1204.97 211.305 1204.56 211.111 C 1195.07 206.633 1192.39 182.276 1202.31 176.764 z" fill="rgb(3,2,2)" transform="translate(0,0)"></path>
<path d="M 1211.11 816.954 C 1211.92 816.97 1212.73 817.004 1213.54 817.055 C 1217.63 817.313 1219.68 818.133 1222.41 821.275 C 1221.64 823.562 1222.27 822.475 1219.74 824.157 C 1212.3 820.463 1204.82 823.442 1205.95 832.208 C 1206.29 834.75 1207.66 837.039 1209.75 838.528 C 1212.69 840.662 1216.04 839.797 1219.44 839.236 L 1219.85 838.928 L 1220.88 839.392 L 1221.04 841.822 L 1219.27 843.777 C 1202.07 850.721 1191.77 826.606 1211.11 816.954 z" fill="rgb(3,2,2)" transform="translate(0,0)"></path>
<path d="M 1219.51 478.187 C 1221.99 478.904 1221.88 478.82 1223.76 480.564 C 1223.84 483.096 1223.57 484.828 1225.05 486.809 L 1229.6 487.316 L 1230.5 489.053 L 1229.61 489.728 C 1223.3 494.56 1219.82 499.286 1225.61 506.198 C 1228.96 506.991 1229.86 507.067 1232.38 509.404 C 1230.14 511.776 1227.78 512.405 1224.74 513.17 C 1218.55 511.179 1219.02 503.549 1218.97 498.02 C 1218.89 489.486 1217.33 493.557 1214.98 489.522 C 1217.73 485.255 1218.19 484.359 1219.27 479.355 L 1219.51 478.187 z" fill="rgb(3,2,2)" transform="translate(0,0)"></path>
<path d="M 1243.98 1240.46 L 1246.53 1242.38 C 1247.03 1252.64 1249.1 1245.89 1253.13 1250.13 C 1247.69 1255.31 1243.63 1262.33 1248.04 1269.55 C 1250.62 1269.94 1250.99 1269.99 1253.38 1270.98 L 1254.53 1273.8 C 1238.92 1279.77 1241.61 1263.57 1241.1 1254.2 C 1240.06 1253.5 1239.04 1252.77 1238.03 1252.03 C 1238.17 1250.36 1242.75 1242.49 1243.98 1240.46 z" fill="rgb(3,2,2)" transform="translate(0,0)"></path>
<path d="M 1089.66 1486.02 C 1094.8 1485.88 1099.44 1484.99 1102.86 1489.26 L 1102.53 1491.47 C 1097.64 1494 1096.09 1489.02 1089.55 1491.68 C 1085.25 1498.16 1086.87 1508.91 1097.21 1508.51 C 1101.48 1507.98 1100.72 1507.37 1103.55 1509.17 L 1103.33 1511 C 1088.71 1521.35 1071.88 1498 1089.66 1486.02 z" fill="rgb(3,2,2)" transform="translate(0,0)"></path>
<path d="M 1047.35 1479.56 L 1050.97 1481.14 C 1051.75 1482.96 1052.26 1483.93 1053.19 1485.63 L 1059.19 1487 L 1059.97 1488.46 L 1059.09 1489.83 C 1047.38 1491.62 1051.06 1496.91 1053.22 1506.22 C 1053.84 1508.89 1057.85 1509.68 1060.23 1510.52 C 1059.21 1512.05 1057.27 1513.95 1055.55 1514.39 C 1045.78 1516.87 1047.45 1495.7 1046.15 1490.85 C 1043.96 1490.17 1044.04 1490.28 1042.27 1488.85 L 1042.59 1487.14 L 1045.06 1486.64 C 1047.09 1484.74 1046.79 1482.83 1047.35 1479.56 z" fill="rgb(3,2,2)" transform="translate(0,0)"></path>
<path d="M 1188.91 1479.18 L 1192.43 1480.31 C 1192.88 1483.08 1192.8 1482.96 1194.35 1485.28 L 1199.06 1486.14 L 1200.14 1488.01 L 1199.59 1489.65 L 1194.55 1490.25 C 1192.37 1492.84 1192.87 1505.2 1194.93 1508.07 C 1198.18 1508.95 1198.91 1509.08 1201.3 1511.44 C 1197.72 1514.17 1195.61 1514.96 1191.49 1513.07 C 1187.29 1508.16 1188.12 1497.77 1187.94 1490.99 C 1186.08 1489.83 1185.7 1489.85 1184.85 1487.83 C 1187.79 1484.51 1188.35 1483.8 1188.91 1479.18 z" fill="rgb(3,2,2)" transform="translate(0,0)"></path>
<path d="M 1065.77 1480.21 C 1067.07 1480.56 1068.5 1481.08 1069.79 1481.51 L 1071.51 1485.18 C 1073.55 1485.65 1075.34 1486 1077.41 1486.36 L 1078.15 1488.43 L 1077.17 1490.05 L 1072.11 1490.66 C 1068.58 1495.38 1069.66 1502.42 1072.11 1507.35 C 1075.46 1509.82 1075.05 1509.06 1079.86 1509.33 C 1076.69 1513.13 1073.67 1515.07 1069.06 1512.85 C 1064.26 1506.74 1066.73 1498.34 1064.84 1491.2 L 1062.32 1490.43 L 1061.88 1488.66 C 1064.25 1485.39 1065.01 1484.32 1065.77 1480.21 z" fill="rgb(3,2,2)" transform="translate(0,0)"></path>
<path d="M 1057.52 1534.43 C 1059.63 1534.82 1059.84 1534.93 1061.83 1535.76 C 1064.47 1541.92 1063.43 1569.08 1062.85 1576.98 C 1061.65 1576.53 1060.32 1575.89 1059.14 1575.35 C 1056.88 1570.87 1056.98 1540.52 1057.52 1534.43 z" fill="rgb(3,2,2)" transform="translate(0,0)"></path>
<path d="M 1111.35 542.52 C 1116.1 543.224 1114.05 543.793 1118.28 545.256 C 1121.82 543.219 1123.22 541.908 1126.75 544.35 L 1126.8 546.451 C 1124.64 549.341 1122.71 549.171 1118.98 550.714 C 1117.38 553.465 1117.73 555.518 1117.74 558.75 C 1117.71 561.835 1117.64 564.92 1117.55 568.004 C 1115.8 570.978 1116.73 570.394 1114.03 571.463 C 1110.38 567.37 1111.37 548.828 1111.35 542.52 z" fill="rgb(3,2,2)" transform="translate(0,0)"></path>
<path d="M 1160.33 755.168 C 1164.72 754.979 1169.19 754.292 1173.08 755.956 C 1176.86 763.244 1165.87 767.907 1178.98 780.798 C 1176 782.154 1173.83 782.234 1170.79 781.398 C 1164.22 775.081 1169.04 767.917 1166.2 760.357 C 1165.59 758.743 1162.76 761.461 1160.33 755.168 z" fill="rgb(3,2,2)" transform="translate(0,0)"></path>
<path d="M 1152.6 744.284 C 1154.86 744.513 1154.91 744.413 1157.04 745.475 C 1159.8 752.26 1158.14 773.674 1157.73 782.108 L 1154.09 780.893 C 1151.39 775.64 1152.52 751.615 1152.6 744.284 z" fill="rgb(3,2,2)" transform="translate(0,0)"></path>
<path d="M 1223.49 753.937 C 1226.93 754.352 1225.84 753.726 1228.04 755.94 L 1227.81 758.304 C 1210.38 763.075 1223.01 771.363 1217.19 782.539 C 1210.19 779.551 1212.7 763.813 1213.43 757.116 C 1213.6 755.58 1219.45 756.07 1223.49 753.937 z" fill="rgb(3,2,2)" transform="translate(0,0)"></path>
<path d="M 1012.46 1247.46 C 1015.4 1247.93 1016.06 1248.36 1018.26 1250.35 C 1021.82 1249.13 1023.1 1248.61 1026.91 1248.21 L 1027.51 1249.11 C 1024.6 1253.78 1020.77 1254.6 1017.79 1258.97 C 1018.08 1264.91 1018.63 1268.33 1016.62 1273.88 L 1015.14 1274.49 C 1011.26 1267.03 1012.19 1255.8 1012.46 1247.46 z" fill="rgb(3,2,2)" transform="translate(0,0)"></path>
<path d="M 1134.82 753.368 C 1136.75 753.787 1137.44 754.559 1138.99 755.78 L 1139.62 756.276 C 1143 754.741 1145.17 753.209 1148.22 755.65 C 1146.27 761.022 1141.33 758.054 1139.2 766.931 C 1139.3 771.589 1139.91 776.059 1137.72 780.062 L 1136.41 780.405 C 1132.85 774.376 1132.93 760.036 1134.82 753.368 z" fill="rgb(3,2,2)" transform="translate(0,0)"></path>
<path d="M 1055.71 817.358 C 1066.52 819.085 1058.58 829.364 1062.2 837.913 C 1065.04 840.349 1065.65 840.725 1066.74 844.247 C 1061.34 844.618 1063.12 845.131 1058.85 843.118 C 1054.2 837.758 1055.8 825.369 1055.71 817.358 z" fill="rgb(3,2,2)" transform="translate(0,0)"></path>
<path d="M 1144.45 1186.37 L 1148.36 1187.46 C 1151.69 1192.45 1149.96 1208.34 1149.62 1214.75 C 1147.81 1214.42 1147.24 1214.09 1145.56 1213.37 C 1142.35 1207.82 1144.04 1193.14 1144.45 1186.37 z" fill="rgb(3,2,2)" transform="translate(0,0)"></path>
<path d="M 1042.24 1014.31 L 1045.63 1015.14 C 1049.16 1018.95 1047.59 1035.91 1047.42 1041.87 C 1045.79 1042.07 1044.83 1041.77 1043.21 1041.48 C 1040.17 1037.06 1041.93 1020.17 1042.24 1014.31 z" fill="rgb(3,2,2)" transform="translate(0,0)"></path>
<path d="M 1170.42 543.262 L 1174.06 543.965 C 1177.55 548.115 1175.78 565.919 1175.34 571.753 C 1174.21 571.391 1172.93 570.835 1171.81 570.388 C 1168.83 564.127 1170.1 550.502 1170.42 543.262 z" fill="rgb(3,2,2)" transform="translate(0,0)"></path>
<path d="M 1110.21 1485.21 L 1113.51 1486.49 C 1116.55 1491.34 1114.99 1507.6 1114.71 1513.82 L 1111.07 1512.66 C 1108.02 1507.92 1109.51 1491.06 1110.21 1485.21 z" fill="rgb(3,2,2)" transform="translate(0,0)"></path>
<path d="M 1040.64 185.25 L 1044.44 186.174 C 1047.63 190.784 1045.93 205.659 1045.58 211.752 C 1043.37 211.425 1043.06 211.586 1041.34 210.119 C 1039.23 204.186 1040.32 191.976 1040.64 185.25 z" fill="rgb(3,2,2)" transform="translate(0,0)"></path>
<metadata><recraft-signature>{"signed_by": "recraft", "signature_b64": "rJK2LwemjnpVqJsS9mcLVXJW1iF1c9jdaYYmNmMVpbpSJK8TxfhFWLR49wmvAyCJW3XhQwk9dapUkJ5YpMfFBQ==", "signing_algo": "Ed25519", "generation_timestamp": 1784516572, "identifier": "8f0bc974-d4a4-4bad-a78a-82394f265fc1"}</recraft-signature></metadata></svg>