<svg xmlns="http://www.w3.org/2000/svg" height="1280" preserveAspectRatio="none" style="display: block;" version="1.1" viewBox="0 0 1638 2048" width="1024">
<defs>
	<linearGradient gradientUnits="userSpaceOnUse" id="Gradient1" x1="637.901" x2="704.783" y1="1031.35" y2="1073.35">
		<stop class="stop0" offset="0" stop-color="rgb(212,211,212)" stop-opacity="1"></stop>
		<stop class="stop1" offset="1" stop-color="rgb(249,248,248)" stop-opacity="1"></stop>
	</linearGradient>
</defs>
<path d="M 0 0 L 728.987 0 L 759.149 0 L 849.588 0 L 884.2 0 L 1198.04 0 L 1215.18 0 L 1247.48 0 L 1259.8 0 L 1638 0 L 1638 1734.27 L 1638 1740.13 L 1638 2048 L 917.941 2048 L 885.148 2048 L 791.694 2048 L 760.764 2048 L 439.349 2048 L 424.544 2048 L 392.369 2048 L 379.158 2048 L 0 2048 L 0 312.383 L 0 308.793 L 0 0 z" fill="rgb(144,142,142)" transform="translate(0,0)"></path>
<path d="M 1198.04 0 L 1215.18 0 L 1247.48 0 L 1259.8 0 L 1638 0 L 1638 1734.27 L 1638 1740.13 L 1638 2048 L 917.941 2048 L 885.148 2048 L 791.694 2048 C 822.96 2032.76 856.967 2021.59 888.359 2006.48 C 897.803 2001.93 908.558 1996.07 918.431 1993 C 939.572 2000.3 980.86 1996.68 982.04 1966.87 C 981.12 1961.89 980.262 1959.19 978.734 1954.41 C 970.784 1929.61 958.762 1916.21 940.843 1897.7 C 937.727 1894.3 931.112 1891.37 928.382 1887.91 C 905.913 1859.43 889.409 1829.74 862.646 1804.7 C 853.612 1796.25 838.889 1763.59 834.855 1751.34 C 842.187 1730.09 835.889 1709.47 834.297 1687.96 C 833.623 1678.87 834.461 1666.71 834.941 1657.42 C 850.769 1656.93 861.539 1652.39 879.328 1655.13 C 896.986 1657.56 913.959 1666.85 930.684 1671.52 C 968.099 1681.96 1049.22 1691.04 1066.56 1646.7 C 1057.2 1606.97 1016.15 1601.97 983.095 1590.29 C 954.037 1579.78 925.036 1569.11 896.095 1558.28 C 900.762 1547.37 898.008 1538.02 901.922 1530.11 C 931.014 1471.29 966.52 1415.8 992.659 1355.51 C 1018 1297.06 1024.05 1230.46 1032.76 1167.88 C 1041.73 1099.02 1046.42 1027.38 1045.77 957.918 C 1060.18 970.422 1072.58 987.749 1086.58 1000.84 C 1107.7 1020.58 1115.81 999.069 1110.7 979.256 C 1101.95 945.348 1084.51 915.845 1064.92 887.171 C 1059.58 879.357 1038.72 857.13 1040.63 848.779 C 1045.74 846.446 1048.61 850.696 1054.69 848.165 C 1058.17 841.999 1051.2 819.988 1049.29 812.76 C 1047.91 804.656 1044.63 792.234 1042.69 783.966 C 1039.77 773.702 1036.74 761.798 1032.78 752.091 C 1026.18 735.934 1019.43 722.251 1017.33 704.639 C 1016.61 698.583 1014.91 691.145 1013.83 684.932 C 1011.2 677.55 1004.13 669.215 1004.11 668.484 C 1003.74 652.887 1007.85 653.504 998.629 638.05 C 1003.83 630.889 1026.59 549.842 1031.3 534.609 L 1099.8 316.198 L 1162.15 116.935 C 1173.61 80.6613 1189.81 35.8301 1198.04 0 z" fill="rgb(144,142,142)" transform="translate(0,0)"></path>
<path d="M 1049.29 812.76 C 1053.53 809.609 1089.82 792.692 1097.73 788.491 C 1152.34 759.867 1207.25 731.809 1262.44 704.322 C 1282.41 694.238 1324.44 671.043 1343.39 663.918 C 1349.27 692.888 1356.35 721.271 1362.71 750.119 L 1396.41 909.425 C 1408.86 970.676 1413.48 954.654 1395.5 1013.97 L 1371.95 1091.5 L 1293.85 1347.47 C 1252.94 1486.99 1211.03 1626.22 1168.13 1765.15 C 1158.97 1793.96 1150.78 1822.65 1142.03 1851.53 C 1138.83 1862.07 1132.57 1882.8 1128.09 1892.09 C 1078.41 1912.72 1028.61 1934.76 978.734 1954.41 C 970.784 1929.61 958.762 1916.21 940.843 1897.7 C 937.727 1894.3 931.112 1891.37 928.382 1887.91 C 905.913 1859.43 889.409 1829.74 862.646 1804.7 C 853.612 1796.25 838.889 1763.59 834.855 1751.34 C 842.187 1730.09 835.889 1709.47 834.297 1687.96 C 833.623 1678.87 834.461 1666.71 834.941 1657.42 C 850.769 1656.93 861.539 1652.39 879.328 1655.13 C 896.986 1657.56 913.959 1666.85 930.684 1671.52 C 968.099 1681.96 1049.22 1691.04 1066.56 1646.7 C 1057.2 1606.97 1016.15 1601.97 983.095 1590.29 C 954.037 1579.78 925.036 1569.11 896.095 1558.28 C 900.762 1547.37 898.008 1538.02 901.922 1530.11 C 931.014 1471.29 966.52 1415.8 992.659 1355.51 C 1018 1297.06 1024.05 1230.46 1032.76 1167.88 C 1041.73 1099.02 1046.42 1027.38 1045.77 957.918 C 1060.18 970.422 1072.58 987.749 1086.58 1000.84 C 1107.7 1020.58 1115.81 999.069 1110.7 979.256 C 1101.95 945.348 1084.51 915.845 1064.92 887.171 C 1059.58 879.357 1038.72 857.13 1040.63 848.779 C 1045.74 846.446 1048.61 850.696 1054.69 848.165 C 1058.17 841.999 1051.2 819.988 1049.29 812.76 z" fill="rgb(237,236,236)" transform="translate(0,0)"></path>
<path d="M 1259.8 0 L 1638 0 L 1638 1734.27 C 1629.74 1707.89 1622.17 1668.05 1616.02 1640.2 L 1580.57 1479.05 L 1492.5 1079.65 L 1354.17 438.73 C 1321.59 292.732 1290.13 146.484 1259.8 0 z" fill="rgb(237,236,236)" transform="translate(0,0)"></path>
<path d="M 1215.18 0 L 1247.48 0 L 1259.8 0 C 1290.13 146.484 1321.59 292.732 1354.17 438.73 L 1492.5 1079.65 L 1580.57 1479.05 L 1616.02 1640.2 C 1622.17 1668.05 1629.74 1707.89 1638 1734.27 L 1638 1740.13 L 1638 2048 L 917.941 2048 L 885.148 2048 L 791.694 2048 C 822.96 2032.76 856.967 2021.59 888.359 2006.48 C 897.803 2001.93 908.558 1996.07 918.431 1993 C 939.572 2000.3 980.86 1996.68 982.04 1966.87 C 1000.08 1961.78 1034.26 1945.1 1053.21 1937.24 C 1118.95 1910.09 1184.35 1882.11 1249.38 1853.3 C 1305.5 1828.32 1361.79 1803.75 1418.27 1779.61 C 1455.61 1764.27 1492.83 1748.68 1529.95 1732.82 C 1548.64 1724.98 1568 1717.52 1586.38 1709.13 C 1578.27 1678.75 1572.08 1648.09 1565.14 1617.5 C 1552.51 1564.06 1540.58 1510.46 1529.35 1456.71 L 1443.99 1067.97 C 1364.75 712.624 1288.48 356.621 1215.18 -1.81899e-12 z" fill="rgb(237,236,236)" transform="translate(0,0)"></path>
<path d="M 1638 1740.13 L 1638 2048 L 917.941 2048 C 938.766 2036.7 983.263 2019.32 1006.37 2009.58 L 1156.45 1945.4 C 1316.21 1875.22 1476.73 1806.79 1638 1740.13 z" fill="rgb(237,236,236)" transform="translate(0,0)"></path>
<path d="M 1247.48 0 L 1259.8 0 C 1290.13 146.484 1321.59 292.732 1354.17 438.73 L 1492.5 1079.65 L 1580.57 1479.05 L 1616.02 1640.2 C 1622.17 1668.05 1629.74 1707.89 1638 1734.27 L 1638 1740.13 C 1476.73 1806.79 1316.21 1875.22 1156.45 1945.4 L 1006.37 2009.58 C 983.263 2019.32 938.766 2036.7 917.941 2048 L 885.148 2048 C 941.485 2020.71 1005.38 1996.57 1063.03 1971.76 L 1424.81 1815.82 L 1558.13 1760.06 C 1579.55 1751.14 1602.51 1742.33 1623.52 1732.82 C 1615.24 1683.11 1598.62 1622.09 1587.95 1571.77 L 1480.78 1083.25 L 1337.9 419.868 L 1286.28 180.027 L 1263.1 73.3168 C 1257.91 48.9861 1253.23 24.1605 1247.48 0 z" fill="rgb(144,142,142)" transform="translate(0,0)"></path>
<path d="M 1212.03 46.9275 C 1216.77 62.5097 1221.32 88.946 1224.84 106.048 C 1233.32 148.5 1242.06 190.901 1251.04 233.249 C 1269.25 315.029 1286.81 396.949 1303.74 479.002 C 1313.76 525.806 1328.92 587.836 1335.55 634.048 C 1239.15 684.944 1139.8 733.917 1042.69 783.966 C 1039.77 773.702 1036.74 761.798 1032.78 752.091 C 1026.18 735.934 1019.43 722.251 1017.33 704.639 C 1016.61 698.583 1014.91 691.145 1013.83 684.932 C 1015.7 672.302 1026.94 639.372 1031.24 625.686 L 1066.83 512.23 L 1158.05 221.715 C 1176.35 163.48 1195.64 105.629 1212.03 46.9275 z" fill="rgb(237,236,236)" transform="translate(0,0)"></path>
<path d="M 1422.35 1024.71 C 1428.72 1051.33 1433.96 1080.45 1439.77 1107.51 L 1470.57 1246.96 L 1571.87 1701.22 C 1470.82 1743.47 1370.11 1786.55 1269.75 1830.46 C 1233.37 1845.87 1198.94 1861.87 1161.8 1877.23 C 1181.31 1810.46 1203.67 1742.71 1223.86 1675.99 L 1339.33 1294.05 L 1390.54 1126.8 C 1399.55 1096.77 1411.28 1053.09 1422.35 1024.71 z" fill="rgb(237,236,236)" transform="translate(0,0)"></path>
<path d="M 643.936 365.963 C 640.482 362.517 636.98 359.059 633.764 355.388 C 609.014 327.13 598.187 288.074 600.627 250.966 C 603.095 213.44 618.695 182.877 646.968 158.226 C 675.856 133.038 710.493 122.026 748.656 124.636 C 776.106 126.513 858.911 143.478 875.635 163.881 C 879.083 168.088 880.741 173.197 880.024 178.628 C 878.619 189.267 869.807 198.316 861.803 204.677 C 867.743 222.642 877.065 237.862 883.271 255.208 C 884.594 258.905 879.596 264.547 877.143 267.666 C 884.016 283.105 897.499 297.837 908.331 310.743 C 921.585 326.535 911.915 331.469 896.308 336.902 C 896.185 342.73 895.445 349.8 894.975 355.715 L 899.961 364.906 L 895.946 372.219 C 939.419 399.792 947.635 441.018 956.781 487.576 C 963.304 520.78 968.807 556.116 977.708 588.645 C 979.98 596.946 994.317 631.216 998.629 638.05 C 1007.85 653.504 1003.74 652.887 1004.11 668.484 C 1004.13 669.215 1011.2 677.55 1013.83 684.932 C 1014.91 691.145 1016.61 698.583 1017.33 704.639 C 1019.43 722.251 1026.18 735.934 1032.78 752.091 C 1036.74 761.798 1039.77 773.702 1042.69 783.966 C 1044.63 792.234 1047.91 804.656 1049.29 812.76 C 1051.2 819.988 1058.17 841.999 1054.69 848.165 C 1048.61 850.696 1045.74 846.446 1040.63 848.779 C 1038.72 857.13 1059.58 879.357 1064.92 887.171 C 1084.51 915.845 1101.95 945.348 1110.7 979.256 C 1115.81 999.069 1107.7 1020.58 1086.58 1000.84 C 1072.58 987.749 1060.18 970.422 1045.77 957.918 C 1046.42 1027.38 1041.73 1099.02 1032.76 1167.88 C 1024.05 1230.46 1018 1297.06 992.659 1355.51 C 966.52 1415.8 931.014 1471.29 901.922 1530.11 C 898.008 1538.02 900.762 1547.37 896.095 1558.28 C 925.036 1569.11 954.037 1579.78 983.095 1590.29 C 1016.15 1601.97 1057.2 1606.97 1066.56 1646.7 C 1049.22 1691.04 968.099 1681.96 930.684 1671.52 C 913.959 1666.85 896.986 1657.56 879.328 1655.13 C 861.539 1652.39 850.769 1656.93 834.941 1657.42 C 834.461 1666.71 833.623 1678.87 834.297 1687.96 C 835.889 1709.47 842.187 1730.09 834.855 1751.34 C 838.889 1763.59 853.612 1796.25 862.646 1804.7 C 889.409 1829.74 905.913 1859.43 928.382 1887.91 C 931.112 1891.37 937.727 1894.3 940.843 1897.7 C 958.762 1916.21 970.784 1929.61 978.734 1954.41 C 980.262 1959.19 981.12 1961.89 982.04 1966.87 C 980.86 1996.68 939.572 2000.3 918.431 1993 C 908.558 1996.07 897.803 2001.93 888.359 2006.48 C 856.967 2021.59 822.96 2032.76 791.694 2048 L 760.764 2048 L 439.349 2048 C 446.638 2020.96 455.663 1996.29 463.778 1969.8 L 516.574 1798.53 C 549.828 1691.14 582.281 1583.51 613.93 1475.65 C 636.525 1400.84 661.071 1329.32 680.882 1253.26 C 672.505 1250.06 663.914 1246.36 655.601 1242.93 C 650.073 1240.39 644.241 1237.59 638.932 1234.72 C 626.727 1228.11 613.496 1222.13 603.474 1212.34 C 595.469 1204.58 596.143 1194 597.054 1183.9 C 598.931 1163.07 601.183 1142.12 602.101 1121.24 C 603.482 1114.56 604.068 1083.54 604.366 1075.35 C 604.879 1073.27 605.467 1065.15 603.745 1064.09 C 563.113 1039.64 499.894 992.537 474.579 952.983 C 458.826 928.37 471.893 804.351 473.739 772.489 C 476.615 722.867 477.853 668.393 490.109 621.596 C 505.253 563.767 544.139 511.28 581.657 466.001 C 588.639 457.539 603.941 438.799 612.948 433.543 C 616.761 403.763 626.139 388.444 643.936 365.963 z" fill="rgb(0,0,0)" transform="translate(0,0)"></path>
<path d="M 680.882 1253.26 C 685.006 1254.74 689.521 1256.45 693.653 1257.77 C 695.366 1274.9 697.342 1292.01 699.582 1309.08 C 701.271 1321.64 704.62 1339.05 704.212 1351.26 C 703.54 1371.35 698.45 1392.53 695.917 1412.47 C 692.449 1439.78 691.634 1467.56 692.521 1495.03 C 693.507 1531.41 697.142 1567.66 703.399 1603.51 C 707.862 1629.04 713.972 1655.26 717.196 1680.83 C 719.066 1695.67 718.506 1715.74 718.402 1730.78 C 718.208 1758.74 718.067 1767.97 743.518 1783.05 C 736.779 1800.71 730.255 1839.22 738.365 1856.32 C 748.314 1877.29 788.099 1887.09 803.542 1905.06 C 819.227 1923.32 821.281 1945.85 841.832 1961.74 C 858.119 1974.33 876.857 1981.13 896.139 1987.55 C 903.506 1989.38 911.039 1991.35 918.431 1993 C 908.558 1996.07 897.803 2001.93 888.359 2006.48 C 856.967 2021.59 822.96 2032.76 791.694 2048 L 760.764 2048 L 439.349 2048 C 446.638 2020.96 455.663 1996.29 463.778 1969.8 L 516.574 1798.53 C 549.828 1691.14 582.281 1583.51 613.93 1475.65 C 636.525 1400.84 661.071 1329.32 680.882 1253.26 z" fill="rgb(237,236,236)" transform="translate(0,0)"></path>
<path d="M 896.139 1987.55 C 903.506 1989.38 911.039 1991.35 918.431 1993 C 908.558 1996.07 897.803 2001.93 888.359 2006.48 C 856.967 2021.59 822.96 2032.76 791.694 2048 L 760.764 2048 C 792.713 2031.46 833.066 2018.56 865.815 2002.23 C 873.999 1998.15 889.162 1992.46 896.139 1987.55 z" fill="rgb(144,142,142)" transform="translate(0,0)"></path>
<path d="M 614.61 487.793 C 616.341 491.004 617.84 503.113 618.615 507.64 C 624.085 539.595 628.702 571.474 631.563 603.763 C 631.801 606.45 632.971 609.641 635.3 611.214 C 642.767 612.176 676.2 587.617 685.411 581.801 C 678.708 595.773 666.641 622.853 661.775 637.134 C 671.013 648.148 681.503 654.388 695.028 666.557 C 741.932 708.761 806.551 762.57 837.525 816.527 C 839.471 819.916 842.744 895.116 843.174 902.914 C 851.481 1031.53 854.83 1160.42 853.211 1289.29 C 793.152 1288.71 687.855 1252.58 633.507 1225.13 C 624.447 1220.16 603.281 1210.86 603.112 1199.11 C 602.886 1183.46 604.992 1166.91 606.29 1151.21 C 608.241 1128.21 609.512 1105.16 610.102 1082.09 C 637.106 1098.65 666.882 1123.3 695.88 1138.97 C 697.613 1139.02 698.869 1138.97 700.432 1138.14 C 712.295 1131.79 720.813 1103.35 724.96 1090.71 C 730.158 1074.86 752.682 987.264 746.642 976.749 C 742.531 969.593 727.293 966.489 719.934 964.753 C 719.205 981.059 719.04 992.069 715.577 1008.07 C 702.672 1003.51 683.702 997.044 673.713 988.103 C 650.169 967.029 631.995 938.666 609.143 916.662 C 621.256 902.691 616.224 895.712 609.721 880.906 C 611.855 866.864 614.683 852.937 618.196 839.175 C 623.549 818.579 629.358 801.799 628.873 779.993 C 627.764 730.152 614.772 680.06 593.306 635.157 C 580.907 609.22 569.805 596.467 545.641 581.797 C 552.146 571.721 557.828 559.892 564.644 549.53 C 579.209 527.386 596.363 506.954 614.61 487.793 z" fill="rgb(237,236,236)" transform="translate(0,0)"></path>
<path d="M 632.619 671.525 C 633.726 672.108 634.827 672.75 635.372 673.93 C 642.185 688.685 648.547 709.201 653.406 724.583 C 675.268 793.786 708.837 924.368 694.548 994.7 L 693.491 995.277 C 692.612 990.934 694.02 969.437 693.849 962.021 C 693.246 940.573 691.19 919.19 687.694 898.02 C 676.882 833.045 662.98 771.943 643.748 709.024 C 639.992 696.736 635.637 683.947 632.619 671.525 z" fill="rgb(0,0,0)" transform="translate(0,0)"></path>
<path d="M 762.257 768.496 C 768.949 766.73 775.834 770.602 777.801 777.238 C 779.769 783.875 776.106 790.873 769.532 793.04 C 765.099 794.5 760.223 793.434 756.805 790.256 C 753.387 787.078 751.968 782.293 753.102 777.765 C 754.237 773.238 757.744 769.687 762.257 768.496 z" fill="rgb(0,0,0)" transform="translate(0,0)"></path>
<path d="M 763.515 771.648 C 768.306 770.717 773.007 773.628 774.308 778.333 C 775.608 783.037 773.071 787.95 768.482 789.612 C 765.179 790.808 761.484 790.052 758.917 787.653 C 756.35 785.255 755.345 781.619 756.315 778.243 C 757.285 774.866 760.066 772.319 763.515 771.648 z" fill="rgb(237,236,236)" transform="translate(0,0)"></path>
<path d="M 786.028 915.952 C 803.407 914.611 806.95 932.435 792.089 942.102 C 790.461 942.138 789.097 942.188 787.479 941.916 C 783.761 941.297 780.483 939.126 778.464 935.944 C 773.089 927.595 778.708 920.219 786.028 915.952 z" fill="rgb(0,0,0)" transform="translate(0,0)"></path>
<path d="M 788.128 918.666 C 800.803 919.982 800.052 932.059 790.769 939.051 C 776.834 936.51 776.425 925.995 788.128 918.666 z" fill="rgb(237,236,236)" transform="translate(0,0)"></path>
<path d="M 794.685 1060.81 C 798.943 1059.62 803.509 1060.83 806.618 1063.97 C 809.728 1067.12 810.894 1071.69 809.666 1075.94 C 808.438 1080.19 805.009 1083.43 800.703 1084.43 C 794.244 1085.93 787.773 1081.99 786.137 1075.56 C 784.5 1069.14 788.297 1062.58 794.685 1060.81 z" fill="rgb(0,0,0)" transform="translate(0,0)"></path>
<path d="M 794.71 1064.7 C 797.621 1063.61 800.896 1064.17 803.275 1066.17 C 805.654 1068.18 806.767 1071.31 806.185 1074.36 C 805.603 1077.42 803.417 1079.92 800.468 1080.91 C 796.021 1082.4 791.199 1080.05 789.628 1075.63 C 788.058 1071.21 790.318 1066.35 794.71 1064.7 z" fill="rgb(237,236,236)" transform="translate(0,0)"></path>
<path d="M 931.757 914.76 C 935.927 918.931 939.939 999.136 940.036 1010.05 C 940.325 1042.36 923.32 1079.68 915.927 1111.47 C 910.873 1133.2 907.662 1155.74 904.237 1177.69 C 891.345 1260.29 883.602 1343.28 867.942 1425.48 C 863.913 1446.63 858.217 1478.11 849.869 1497.76 C 845.792 1507.35 818.487 1524.35 807.866 1528.96 C 803.66 1530.79 793.979 1535.67 790.87 1538.83 L 792.119 1539.35 C 813.101 1535.42 832.057 1522.35 847.885 1508.55 C 844.007 1528.37 840.03 1546.71 836.493 1567.32 C 828.759 1612.39 830.31 1662.84 825.666 1707.5 C 823.664 1726.74 791.684 1756.55 771.35 1753.58 C 758.09 1751.64 743.148 1745.63 733.343 1734.53 L 732.312 1733.34 C 730.377 1731.16 729.291 1728.7 729.023 1725.8 C 726.057 1693.74 720.674 1663.76 714.231 1632.26 C 701.837 1566.3 695.646 1502.74 700.047 1435.41 C 701.95 1406.3 709.278 1378.66 710.291 1350.09 C 710.631 1340.52 707.017 1318.53 705.598 1308.04 C 703.565 1292.01 701.689 1275.97 699.971 1259.9 C 727.209 1269.96 755.055 1278.28 783.343 1284.82 L 749.508 1337.26 C 740.515 1351.17 730.738 1365.35 723.906 1380.42 C 737.375 1366.75 778.811 1304.29 786.969 1285.39 C 801.979 1289.29 859.04 1300.79 871.85 1291.81 C 873.368 1286.38 873.132 1280.44 873.234 1274.81 C 874.775 1190.47 870.833 1106.12 868.258 1021.84 C 867.75 1005.2 867.212 988.417 865.941 971.821 C 890.864 957.732 912.952 936.151 931.757 914.76 z" fill="rgb(117,116,116)" transform="translate(0,0)"></path>
<path d="M 986.95 819.553 C 999.992 832.789 1017.33 839.381 1034.24 846.532 C 1039.7 884.538 1040.2 934.501 1039.91 972.997 C 1039.3 1047.4 1033.79 1121.69 1023.4 1195.37 C 1018.06 1235.95 1009.91 1290.37 996.584 1328.13 C 981.231 1371.64 954.859 1420.02 932.092 1460.17 C 925.546 1471.71 898.769 1524.76 893.753 1529.7 C 878.016 1534.01 865.229 1533.15 849.35 1530.94 C 853.536 1504.74 862.176 1479.24 867.786 1453.48 C 890.432 1348.16 898.873 1240.55 917.133 1134.4 C 923.419 1097.86 940.322 1057.71 944.726 1023.3 C 947.474 1001.84 942.251 932.772 936.728 910.798 C 958.013 885.444 978.923 851.774 986.95 819.553 z" fill="rgb(117,116,116)" transform="translate(0,0)"></path>
<path d="M 610.924 443.929 C 611.538 444.779 614.204 477.844 614.787 482.529 C 607.622 487.898 601.161 495.504 595.053 502.048 C 571.526 527.253 557.591 549.952 541.972 580.278 C 534.555 577.575 529.635 577.921 521.885 578.332 L 520.886 579.489 C 520.835 579.445 532.998 581.77 535.488 582.525 C 548.161 586.37 568.82 602.569 576.495 612.508 C 605.121 649.58 626.19 750.952 622.066 795.358 C 612.465 768.357 589.345 714.085 567.096 695.697 C 590.08 733.88 608.811 770.505 621.469 813.448 C 613.217 831.631 603.923 862.9 605.461 882.784 C 605.863 887.986 608.895 897.852 610.485 903.212 C 588.64 906.345 565.94 910.145 546.017 920.037 C 539.239 923.403 522.739 932.049 519.536 938.759 C 523.195 937.773 526.775 935.596 530.03 933.601 C 554.843 918.386 581.042 914.627 609.105 910.161 C 602.422 917.326 595.325 925.112 588.056 931.638 C 580.651 938.285 573.349 943.85 566.115 950.832 C 572.08 948.03 576.142 945.747 581.834 942.381 C 589.97 936.975 598.154 929.218 605.092 922.316 C 642.366 954.085 648.711 990.797 701.654 1010.15 C 697.8 1041.46 685.279 1073.35 662.808 1095.94 C 636.655 1076.71 610.609 1061.53 583.999 1043.66 C 553.305 1023.33 524.944 999.686 499.431 973.146 C 486.569 959.582 475.672 948.457 474.536 928.995 C 471.237 872.523 477.044 817.005 481.298 760.899 C 483.754 713.967 484.888 666.299 497.195 620.691 C 511.057 569.32 541.874 526.754 573.958 485.336 C 585.227 470.789 597.459 456.647 610.924 443.929 z" fill="rgb(237,236,236)" transform="translate(0,0)"></path>
<path d="M 568.688 883.167 C 571.652 882.78 571.72 882.67 574.807 883.165 C 573.459 885.638 559.918 889.78 556.197 891.131 C 535.757 898.553 517.689 906.457 501.37 921.319 L 497.565 924.852 L 496.741 924.009 C 506.881 902.166 547.019 887.932 568.688 883.167 z" fill="rgb(0,0,0)" transform="translate(0,0)"></path>
<path d="M 827.378 473.624 C 851.824 534.139 872.371 601.834 892.622 664.044 C 903.461 697.339 911.328 738.914 926.633 770.006 C 933.279 783.509 951.094 793.578 963.973 800.678 C 959.599 810.8 953.877 824.72 948.476 833.979 C 929.382 866.71 898.178 896.543 863.718 912.366 C 862.43 886.166 861.858 849.349 858.255 824.315 C 856.844 814.508 841.671 773.758 837.581 761.688 C 822.937 718.466 805.506 671.94 785.272 631.007 C 767.241 594.53 741.985 554.971 719.897 520.522 C 759.085 540.563 798.745 535.043 819.495 493.289 C 822.408 487.428 824.487 482.114 825.318 475.582 L 827.378 473.624 z" fill="rgb(237,236,236)" transform="translate(0,0)"></path>
<path d="M 627.422 340.068 C 608.347 315.761 600.849 273.176 605.277 243.042 C 607.816 225.765 615.934 192.762 631.811 182.884 C 690.875 146.134 781.411 155.896 828.174 206.792 C 812.354 237.518 803.24 272.857 778.853 299.339 C 774.952 303.576 760.694 314.125 761.304 318.454 C 765.424 317.487 778.556 305.58 782.785 301.908 C 782.118 306.166 780.779 313.462 780.698 317.561 C 780.288 338.426 782.627 345.227 759.953 351.011 C 759.514 339.928 758.124 332.687 749.525 324.928 C 730.548 307.806 704.178 317.602 705.422 344.63 C 705.755 351.862 704.292 360.367 706.201 367.537 C 701.982 374.682 698.538 380.632 694.837 388.13 L 676.287 383.758 C 681.305 377.326 695.951 359.389 698.064 352.171 L 697.61 350.962 C 692.6 354.045 677.251 375.642 671.538 382.199 C 667.92 379.761 655.27 371.906 654.432 368.546 L 655.736 368.435 C 670.397 355.768 682.454 340.935 698.047 329.148 C 744.886 293.742 774.334 285.971 808.536 235.345 C 790.891 252.467 782.969 264.38 762.311 280.312 C 744.895 293.742 731.311 300.25 713.842 311.789 C 692.046 326.187 670.281 348.336 652.121 367.078 C 648.674 364.451 645.31 362.132 642.4 358.931 C 648.923 302.266 680.614 258.284 724.006 222.496 C 728.582 218.722 735.409 215.22 738.568 211.089 C 735.971 210.703 733.731 212.485 731.6 213.942 C 690.323 242.156 638.785 304.106 640.42 356.685 C 635.586 351.557 631.235 345.994 627.422 340.068 z" fill="rgb(117,116,116)" transform="translate(0,0)"></path>
<path d="M 627.422 340.068 C 626.149 331.447 626.904 321.367 627.323 312.721 C 629.014 277.885 638.325 246.751 659.622 218.572 C 664.139 212.595 679.235 193.715 686.105 191.764 C 668.138 213.837 652.175 229.479 642.161 257.406 C 635.676 275.489 632.249 293.037 631.312 312.231 C 630.844 318.493 631.051 336.023 627.422 340.068 z" fill="rgb(0,0,0)" transform="translate(0,0)"></path>
<path d="M 738.111 310.441 C 744.417 311.158 761.712 318.478 762.695 324.954 C 759.595 325.414 760.027 324.907 756.562 323.163 C 741.203 312.966 740.164 317.055 727.25 311.553 L 728.194 311.143 L 727.695 312.035 L 727.145 311.726 C 728.911 310.725 735.6 310.613 738.111 310.441 z" fill="rgb(0,0,0)" transform="translate(0,0)"></path>
<path d="M 856.308 208.081 L 857.706 208.635 C 861.23 215.318 864.243 224.441 867.266 231.608 C 869.285 236.393 877.959 250.766 877.997 254.658 C 878.106 265.837 852.454 268.913 843.666 276.399 C 834.44 284.259 833.313 285.277 826.515 294.703 C 834.584 289.767 865.288 268.147 874.245 271.466 C 876.539 285.779 903.218 307.783 909.382 321.004 C 912.631 327.972 892.603 335.748 887.508 335.942 C 882.146 336.146 883.22 333.484 880.105 330.625 C 879.629 334.261 879.43 334.549 881.01 337.672 C 884.386 340.424 887.649 339.771 891.865 341.285 C 892.977 344.452 892.161 357.493 892.035 361.635 C 891.085 362.034 890.139 362.441 889.195 362.856 C 885.735 364.376 879.308 367.099 877.845 370.828 C 882.395 369.24 889.437 366.413 893.976 366.156 L 894.596 367.395 C 892.543 372.027 887.961 377.736 884.829 381.978 C 888.269 387.146 892.273 395.732 890.362 401.684 C 881.88 428.102 829.141 416.053 809.828 413.556 C 780.914 409.819 769.311 397.302 754.268 375.53 C 763.503 405.057 782.401 413.047 810.452 420.597 C 805.043 431.914 804.142 436.258 802.044 448.777 C 801.478 450.944 800.618 453.024 799.488 454.959 C 796.906 459.285 790.671 463.647 785.769 464.554 C 730.667 474.756 685.21 432.834 670.715 383.165 C 681.098 397.462 687.432 401.158 698.99 392.729 C 700.98 391.277 709.771 393.756 716.115 389.561 C 721.109 380.521 713.281 373.349 710.467 364.15 C 709.057 359.543 708.964 356.504 708.65 351.787 C 717.008 364.533 725.598 375.326 741.556 378.383 C 744.728 378.991 749.017 378.552 751.66 376.568 L 751.425 374.708 C 747.385 374.512 741.548 374.886 737.904 373.227 C 723.453 366.65 702.57 349.47 711.909 331.541 C 718.16 319.541 729.5 318.355 740.719 324.62 C 751.924 330.877 754.823 337.931 756.759 350.25 C 756.921 351.257 758.75 353.091 759.654 353.124 C 765.717 356.587 781.716 347.454 783.119 341.777 C 786.513 328.047 784.141 311.403 788.505 297.65 C 790.698 290.742 798.402 282.958 801.568 276.286 C 811.274 255.709 822.018 233.655 830.027 212.461 C 841.689 212.485 845.305 211.917 856.308 208.081 z" fill="rgb(237,236,236)" transform="translate(0,0)"></path>
<path d="M 870.168 273.731 C 871.626 274.329 870.937 273.922 871.975 275.468 C 870.132 279.159 865.424 283.14 862.303 286.163 C 862.609 287.367 864.233 293.474 864.078 294.369 C 862.255 304.89 853.457 309.269 846.03 301.411 L 846.647 300.908 C 851.22 301.993 855.719 303.731 858.239 299.151 L 856.64 296.156 C 856.227 293.206 856.252 290.763 854.509 288.442 C 849.55 291.718 843.133 297.24 838.179 299.061 L 837.968 297.804 C 842.572 289.226 861.026 278.383 870.168 273.731 z" fill="rgb(0,0,0)" transform="translate(0,0)"></path>
<path d="M 726.206 327.973 C 734.954 328.615 745.28 337.721 743.149 345.863 C 737.828 346.347 734.871 345.636 732.164 350.669 C 731.992 359.8 740.029 361.137 747.369 363.863 L 746.443 365.524 C 740.73 367.39 733.579 362.107 730.211 357.75 C 727.136 346.669 730.078 345.398 738.93 341.397 C 736.929 334.687 729.324 329.284 722.35 332.549 C 717.083 335.015 717.4 341.245 715.696 346.161 C 713.531 336.218 717.405 331.917 726.206 327.973 z" fill="rgb(0,0,0)" transform="translate(0,0)"></path>
<path d="M 648.689 370.158 C 651.744 372.27 651.978 372.52 654.395 375.382 C 653.562 378.452 648.238 383.449 646.135 386.406 C 614.133 431.412 629.044 488.629 637.052 538.509 C 640.296 558.712 642.308 575.819 644.319 594.943 C 658.024 587.485 695.551 563.67 704.897 553.835 C 690.044 559.347 660.096 580.281 647.206 589.828 C 645.531 569.406 642.917 552.164 639.841 531.996 C 634.355 496.024 624.764 455.992 634.701 420.238 C 637.708 409.42 648.09 384.595 658.006 379.107 L 660.058 379.942 C 660.73 383.801 660.22 384.472 658.483 388.079 C 658.187 388.692 657.856 389.288 657.586 389.912 C 642.149 425.459 720.222 532.468 740.889 565.288 C 754.604 586.95 767.292 609.246 778.91 632.101 C 801.735 678.087 818.521 726.844 835.917 775.055 C 805.569 739.858 756.873 694.155 720.53 664.238 C 707.179 653.279 693.805 643.334 679.986 633.004 C 689.42 607.282 707.855 579.666 714.024 550.622 C 706.692 561.161 698.443 582.752 692.848 595.079 C 687.374 607.138 680.403 621.314 675.594 633.25 C 686.119 643.41 703.722 654.975 716.77 666.412 C 757.634 702.231 805.262 743.422 838.611 786.052 C 842.314 790.786 850.684 822.519 852.032 829.203 C 833.899 798.402 814.208 771.36 788.986 745.867 C 750.478 706.945 709.929 670.15 666.8 636.482 C 673.818 616.346 688.699 591.908 695.864 569.988 C 682.171 577.006 651.744 598.282 636.841 607.735 C 634.822 584.695 632.92 561.233 629.375 538.368 C 619.176 472.578 602.797 426.922 648.689 370.158 z" fill="rgb(237,236,236)" transform="translate(0,0)"></path>
<path d="M 817.008 421.605 C 835.037 425.238 859.963 424.78 878.175 422.583 C 882.221 426.554 893.783 437.255 894.748 441.979 C 894.13 444.303 883.159 455.1 879.994 460.05 C 875.431 458.872 875.405 459.614 872.505 456.794 C 872.386 450.101 882.166 444.018 887.697 436.216 L 888.536 435.02 C 879.233 439.851 871.236 447.022 867.484 456.979 C 857.261 453.747 839.111 448.633 829.021 446.702 C 842.893 455.886 852.029 456.659 867.066 461.936 C 887.893 469.245 910.872 475.348 931.263 483.292 C 937.111 531.121 936.3 592.148 935.28 640.251 C 934.592 672.692 933.643 727.341 928.494 758.701 C 923.804 734.23 926.186 689.725 926.564 663.499 C 927.277 614.01 928.031 567.256 926.578 517.752 L 925.264 489.279 C 903.088 480.337 879.896 474.174 857.612 465.511 C 853.342 463.851 849.1 462.269 844.604 461.336 C 852.224 469.051 908.763 487.238 921.782 491.717 C 925.04 559.425 922.837 625.253 922.348 692.923 C 922.233 708.825 923.728 725.727 921.709 741.455 C 918.156 730.327 915.189 719.317 911.996 708.116 C 889.997 630.93 864.006 555.042 836.522 479.658 C 829.528 460.475 824.328 440.798 817.008 421.605 z" fill="rgb(237,236,236)" transform="translate(0,0)"></path>
<path d="M 746.389 1792.78 C 748.995 1797.39 752.104 1805.46 754.587 1808.98 C 765.001 1823.75 783.741 1834.74 799.875 1841.71 C 809.923 1866.27 827.474 1889.56 846.978 1909.03 C 865.848 1927.87 899.373 1933.96 920.593 1914.05 C 926.282 1908.71 925.372 1898.62 924.912 1891.23 C 942.499 1903.41 962.345 1928.68 970.638 1948.25 C 973.455 1957.26 967.358 1967.95 959.86 1972.6 C 947.311 1980.37 924.6 1975.86 911.201 1972.95 C 872.089 1964.4 844.281 1946.76 823.537 1912.04 C 810.032 1889.81 790.193 1873.79 768.337 1860.27 C 738.11 1841.59 739.271 1824.6 746.389 1792.78 z" fill="rgb(237,236,236)" transform="translate(0,0)"></path>
<path d="M 982.854 1595.84 C 1004.38 1604.48 1028.85 1607.67 1046.8 1623.59 C 1055.02 1630.89 1066.82 1645.66 1055.75 1655.26 C 1026.77 1680.42 974.311 1677.12 939.072 1668.45 C 919.517 1663.64 901.672 1653.74 881.633 1650.53 C 865.185 1647.52 858.168 1649.41 842.023 1650.89 C 839.093 1651.16 837.525 1651.04 835.772 1649.3 L 835.767 1645.93 C 839.397 1642.65 845.665 1643.95 850.576 1643.69 C 885.728 1641.78 912.884 1656.16 946.781 1662.32 C 964.455 1665.52 972.96 1666.96 991.174 1667.06 C 1007.98 1666.93 1053.24 1661.99 1056.46 1640.16 L 1055.43 1639.01 C 1050.89 1640.12 1043.92 1648.83 1039.08 1651.28 C 1006.5 1668.04 957.654 1660.81 922.94 1651.29 C 887.19 1641.48 873.783 1638.88 835.83 1641.12 C 835.855 1632.22 836.792 1621.66 837.366 1612.66 C 852.574 1617.93 864.506 1616.36 877.389 1606.77 C 899.824 1613.79 927.405 1627.97 950.926 1627.5 C 970.557 1627.11 984.639 1617.04 982.854 1595.84 z" fill="rgb(237,236,236)" transform="translate(0,0)"></path>
<path d="M 725.038 129.403 C 760.226 124.888 830.529 143.477 862.434 159.952 C 872.466 165.132 872.752 167.996 875.747 178.161 C 867.621 199.917 855.168 206.075 832.988 208.998 C 823.649 195.024 811.718 186.297 797.553 177.884 C 790.457 174.098 783.109 170.807 775.56 168.035 C 724.725 149.201 681.998 154.697 634.058 176.792 C 659.395 147.872 686.902 133.191 725.038 129.403 z" fill="rgb(117,116,116)" transform="translate(0,0)"></path>
<path d="M 852.746 1812.22 C 871.381 1811.42 881.118 1836.98 891.908 1849.94 C 898.879 1861.63 912.933 1874.16 918.892 1886.07 C 933.708 1915.69 897.859 1921.69 879.446 1919.89 C 877.524 1919.47 875.612 1919.01 873.711 1918.5 C 845.827 1910.99 819.94 1867.71 806.123 1843.69 C 819.788 1828.57 832.993 1818.02 852.746 1812.22 z" fill="rgb(117,116,116)" transform="translate(0,0)"></path>
<path d="M 988.664 669.403 C 994.376 668.258 1001.8 674.234 1006.27 677.34 C 1010.42 691.999 1010.39 707.314 1014.54 721.548 C 1018.1 733.729 1025.19 746.859 1029.06 759.162 C 1037.53 786.155 1046.01 817.106 1050.67 844.877 C 1035.44 841.049 1027.82 838.188 1013.54 831.603 C 1002.38 825.105 998.136 822.508 989.232 813.034 C 999.015 803.96 1009.71 782.092 1014.71 769.316 C 1010.92 767.94 1003.5 766.307 1000.02 765.41 C 965.784 756.577 961.884 742.503 963.402 709.597 C 963.692 703.303 962.252 687.185 961.796 679.85 C 972.903 672.417 975.288 670.084 988.664 669.403 z" fill="rgb(237,236,236)" transform="translate(0,0)"></path>
<path d="M 889.226 415.69 C 895.108 409.815 897.529 395.668 893.991 388.108 L 891.308 382.345 C 891.696 379.021 891.074 380.576 893.941 377.863 C 895.382 378.11 896.095 378.278 897.319 379.181 C 938.087 409.259 944.519 456.596 953.507 502.223 C 959.072 532.415 964.188 563.646 972.684 593.143 C 976.813 607.479 986.523 623.924 992.399 637.916 C 995.51 645.322 1004.52 657.812 997.41 665.613 C 984.761 664.34 979.071 661.598 967.264 671.334 C 965.177 673.045 963.198 674.884 961.339 676.839 C 960.652 669.302 959.889 661.756 959.562 654.196 C 964.921 649.769 976.691 637.118 982.704 631.267 L 982.393 629.213 C 975.367 626.434 962.87 642.771 958.849 647.993 C 954.979 619.643 953.351 605.77 955.565 576.949 C 956.989 558.399 954.287 522.336 950.293 504.367 C 949.697 512.571 950.782 530.891 951.216 539.868 C 952.237 560.955 952.312 575.828 950.626 596.681 C 939.438 560.08 942.188 513.796 936.441 476.782 C 926.55 472.987 891.978 464.833 886.939 460.739 C 888.312 449.47 902.148 455.166 911.665 453.868 C 918.947 448.001 894.285 421.359 889.226 415.69 z" fill="rgb(237,236,236)" transform="translate(0,0)"></path>
<path d="M 968.063 803.566 C 973.681 806.348 977.402 808.955 982.613 812.478 C 969.299 871.011 921.898 925.006 874.495 959.648 L 865.756 965.554 C 866.252 952.469 864.866 930.188 864.093 916.896 C 864.806 916.578 865.517 916.257 866.226 915.93 C 914.862 893.548 949.696 853.583 968.063 803.566 z" fill="rgb(237,236,236)" transform="translate(0,0)"></path>
<path d="M 941.336 585.223 C 949.055 614.365 953.786 660.093 956.781 690.498 C 957.906 705.462 956.256 721.187 958.421 736.054 C 961.997 760.619 986.595 769.752 1008.34 772.388 C 1003.16 780.156 997.111 791.226 992.303 799.494 C 990.405 802.211 987.925 805.307 985.889 807.996 C 966.987 794.364 949.332 789.488 932.792 772.158 C 934.223 748.979 937.857 725.464 939.29 700.195 C 941.533 660.635 939.977 623.594 941.336 585.223 z" fill="rgb(237,236,236)" transform="translate(0,0)"></path>
<path d="M 843.12 823.815 C 845.054 825.589 850.449 832.285 852.424 834.623 C 855.874 872.539 857.198 914.176 859.185 952.313 C 864.844 1064.5 867.501 1176.81 867.153 1289.13 C 864.205 1289.2 862.342 1289.06 859.394 1288.81 C 858.977 1288.38 858.561 1287.96 858.144 1287.53 C 857.489 1268.3 857.888 1233.6 857.98 1215.6 C 858.652 1084.57 849.955 954.5 843.12 823.815 z" fill="rgb(237,236,236)" transform="translate(0,0)"></path>
<path d="M 1041.97 863.672 C 1048.69 868.224 1082.61 925.076 1087.49 936.287 C 1095.24 954.124 1110.59 983.076 1103.98 1002.31 C 1102.56 1003 1102.2 1002.98 1100.65 1003.36 C 1093.7 1000.97 1053.94 957.777 1045.87 949.501 C 1045.86 917.905 1045.08 895.351 1041.97 863.672 z" fill="rgb(237,236,236)" transform="translate(0,0)"></path>
<path d="M 830.582 1759.7 C 830.928 1760.01 852.312 1800.83 855.121 1805.52 C 833.402 1810.16 819.168 1822.65 803.469 1837.18 C 794.8 1833.03 788.266 1829.66 779.943 1824.86 C 762.744 1813.9 756.617 1804.4 749.507 1786.03 C 788.69 1804.42 803.455 1786.54 830.582 1759.7 z" fill="rgb(237,236,236)" transform="translate(0,0)"></path>
<path d="M 895.56 1564.5 C 907.096 1568.33 970.54 1590.49 977.211 1595.51 C 982.56 1606.72 971.483 1615.08 962.464 1619.44 C 939.307 1627.45 904.901 1610.26 880.142 1602.54 C 886.276 1591.95 891.7 1576.14 895.56 1564.5 z" fill="rgb(117,116,116)" transform="translate(0,0)"></path>
<path d="M 831.913 1708.31 C 834.455 1750.01 831.508 1756.04 797.556 1781.99 C 777.079 1797.64 736.989 1778.05 725.312 1760.56 C 722.992 1753.75 723.773 1737.76 723.855 1729.99 C 731.425 1740.78 740.386 1749.12 752.505 1754.5 C 790.032 1771.14 818.48 1739.93 831.913 1708.31 z" fill="rgb(117,116,116)" transform="translate(0,0)"></path>
<path d="M 725.623 970.266 C 729.355 971.485 733.441 972.756 736.898 974.494 C 738.518 975.185 742.501 978.084 742.356 980.093 C 739.357 1021.64 720.297 1097.27 700.213 1131.55 C 694.858 1133.88 688.061 1125.57 684.555 1122.13 C 688.528 1114.91 696.156 1100.23 698.786 1092.77 C 709.848 1061.38 726.64 1002.62 725.623 970.266 z" fill="rgb(237,236,236)" transform="translate(0,0)"></path>
<path d="M 682.701 423.52 C 687.639 430.125 694.761 436.408 698.906 442.592 L 700.086 443.459 C 705.111 447.901 710.895 453.289 716.226 457.197 C 711.159 468.358 706.564 488.595 709.16 500.728 C 708.079 501.828 716.736 462.249 718.004 458.454 C 723.544 460.908 730.84 463.884 736.108 466.571 C 732.364 481.15 724.686 506.178 728.846 520.002 L 728.081 520.53 L 716.669 516.027 L 716.955 516.3 C 712.162 508.657 693.134 479.628 691.48 473.452 L 690.356 472.913 C 685.494 465.063 681.556 458.589 677.269 450.382 C 678.129 438.76 678.977 434.6 682.701 423.52 z" fill="rgb(237,236,236)" transform="translate(0,0)"></path>
<path d="M 682.701 423.52 C 687.639 430.125 694.761 436.408 698.906 442.592 L 700.086 443.459 C 696.091 452.719 694.28 467.459 691.48 473.452 L 690.356 472.913 C 685.494 465.063 681.556 458.589 677.269 450.382 C 678.129 438.76 678.977 434.6 682.701 423.52 z" fill="rgb(237,236,236)" transform="translate(0,0)"></path>
<path d="M 698.906 442.592 L 700.086 443.459 C 696.091 452.719 694.28 467.459 691.48 473.452 L 690.356 472.913 C 691.749 464.478 693.628 449.067 698.906 442.592 z" fill="rgb(0,0,0)" transform="translate(0,0)"></path>
<path d="M 705.371 1011.41 C 708.208 1012.24 710.161 1013.17 712.871 1014.37 C 715.277 1020.99 696.217 1080.52 692.477 1090.17 C 689.451 1097.98 682.694 1110.76 679.539 1119.42 L 679.162 1120.47 C 660.368 1110.08 642.899 1096.99 625.278 1084.63 C 621.207 1082.09 616.205 1079.14 612.429 1076.2 C 610.295 1074.53 611.104 1072.81 611.271 1069.67 L 612.254 1068.9 C 622.878 1073.18 651.201 1092.42 662.009 1099.55 C 687.912 1084.03 701.357 1040.09 705.371 1011.41 z" fill="url(#Gradient1)" transform="translate(0,0)"></path>
<path d="M 740.422 1840.76 C 744.368 1844.19 748.437 1852.13 755.945 1858.24 C 768.233 1868.26 788.798 1878.97 799.111 1889.72 C 820.638 1912.16 832.892 1943.55 861.337 1960.3 C 885.393 1974.47 926.228 1986.73 954.229 1980.92 C 967.11 1978.25 970.068 1971.4 975.828 1961.99 L 976.987 1962.68 L 977.813 1967.75 C 974.142 1988.47 949.727 1991.83 932.491 1989.55 C 897.708 1984.95 853.899 1971.95 831.512 1943.54 C 821.54 1930.89 816.915 1911.69 805.333 1899.91 C 790.396 1885.18 769.63 1877.68 752.94 1865.41 C 743.639 1858.59 741.581 1851.5 740.422 1840.76 z" fill="rgb(237,236,236)" transform="translate(0,0)"></path>
<path d="M 842.474 1565.31 C 848.148 1568.43 854.249 1570.7 860.583 1572.04 C 872.421 1574.58 879.542 1573.03 889.542 1566.59 C 885.91 1578.89 883.679 1584.18 877.339 1595.3 C 871.412 1605.58 851.23 1617.38 839.797 1607.65 C 836.672 1605 841.441 1571.81 842.474 1565.31 z" fill="rgb(237,236,236)" transform="translate(0,0)"></path>
<path d="M 847.887 1533.95 C 868.719 1541.65 887.229 1533.94 894.816 1536.76 C 898.532 1543.21 891.684 1555.79 886.978 1560.62 C 874.395 1572.38 857.236 1566.36 843.257 1560.17 L 847.887 1533.95 z" fill="rgb(117,116,116)" transform="translate(0,0)"></path>
<path d="M 756.249 471.822 C 762.152 472.713 767.083 472.925 773.052 473.229 C 770.157 491.704 771.264 507.082 766.862 527.816 C 760.111 528.273 755.597 528.042 748.795 527.683 C 750.775 509.79 752.882 489.371 756.249 471.822 z" fill="rgb(237,236,236)" transform="translate(0,0)"></path>
<path d="M 788.436 471.377 L 789.074 471.083 L 790.128 470.575 C 815.577 458.57 804.043 437.424 812.371 429.562 L 813.136 431.889 L 813.234 433.475 C 813.492 439.299 812.43 449.391 812.183 455.598 C 811.604 470.149 810.835 484.484 811.225 499.079 L 807.134 506.709 C 807.243 495.66 808.887 472.678 804.021 464.041 L 803.049 464.694 C 802.729 477.381 804.086 495.457 804.041 509.592 C 798.92 514.8 796.726 516.363 790.658 520.571 C 792.358 501.053 794.325 490.078 788.436 471.377 z" fill="rgb(237,236,236)" transform="translate(0,0)"></path>
<path d="M 739.053 467.202 L 752.574 471.232 C 751.507 478.883 746.748 522.809 744.583 526.719 C 739.356 525.008 735.219 523.308 730.142 521.184 C 729.517 502.723 734.643 485.027 739.053 467.202 z" fill="rgb(237,236,236)" transform="translate(0,0)"></path>
<path d="M 784.074 472.564 C 792.346 474.639 787.666 516.147 786.771 522.601 C 782.094 524.606 778.376 525.575 773.493 526.946 L 771.521 526.882 C 769.83 524.909 771.045 522.134 771.673 518.536 C 774.283 503.578 774.271 489.259 775.104 474.192 C 777.73 472.632 780.949 472.776 784.074 472.564 z" fill="rgb(237,236,236)" transform="translate(0,0)"></path>
<path d="M 665.961 385.527 C 668.535 390.073 678.2 414.61 681.724 422.174 C 679.592 429.392 677.69 437.164 675.765 444.478 L 674.62 444.556 C 665.649 432.443 657.612 399.634 665.961 385.527 z" fill="rgb(237,236,236)" transform="translate(0,0)"></path>
<path d="M 813.136 431.889 C 819.446 438.955 823.101 463.935 827.378 473.624 L 825.318 475.582 C 820.457 483.908 818.727 489.069 812.802 497.97 C 813.273 480.731 817.363 449.534 813.234 433.475 L 813.136 431.889 z" fill="rgb(237,236,236)" transform="translate(0,0)"></path>
<path d="M 884.454 417.337 C 890.412 421.024 906.438 441.484 907.251 448.116 L 905.412 449.04 L 898.898 447.696 L 898.961 446.617 C 899.915 431.754 889.898 432.92 882.759 420.154 L 884.454 417.337 z" fill="rgb(237,236,236)" transform="translate(0,0)"></path>
<path d="M 707.456 371.729 C 710.543 375.877 714.447 379.889 714.542 384.794 C 712.396 387.779 712.793 386.909 708.706 388.492 C 707.82 388.536 706.934 388.56 706.048 388.563 C 702.452 388.569 702.748 388.949 700.908 387.068 C 700.85 383.87 705.573 376.125 707.456 371.729 z" fill="rgb(117,116,116)" transform="translate(0,0)"></path>
<path d="M 0 312.383 C 7.03471 333.224 10.0011 353.705 15.6308 374.524 C 25.6362 411.523 32.2994 448.053 40.2323 485.452 L 100.758 764.639 L 321.106 1776.63 C 340.8 1866.83 358.207 1957.97 379.158 2048 L 0 2048 L 0 312.383 z" fill="rgb(237,236,236)" transform="translate(0,0)"></path>
<path d="M 884.2 0 L 1198.04 0 C 1189.81 35.8301 1173.61 80.6613 1162.15 116.935 L 1099.8 316.198 L 1031.3 534.609 C 1026.59 549.842 1003.83 630.889 998.629 638.05 C 994.317 631.216 979.98 596.946 977.708 588.645 C 968.807 556.116 963.304 520.78 956.781 487.576 C 947.635 441.018 939.419 399.792 895.946 372.219 L 899.961 364.906 L 894.975 355.715 C 895.445 349.8 896.185 342.73 896.308 336.902 C 911.915 331.469 921.585 326.535 908.331 310.743 C 897.499 297.837 884.016 283.105 877.143 267.666 C 879.596 264.547 884.594 258.905 883.271 255.208 C 877.065 237.862 867.743 222.642 861.803 204.677 C 869.807 198.316 878.619 189.267 880.024 178.628 C 880.741 173.197 879.083 168.088 875.635 163.881 C 858.911 143.478 776.106 126.513 748.656 124.636 C 710.493 122.026 675.856 133.038 646.968 158.226 C 618.695 182.877 603.095 213.44 600.627 250.966 C 598.187 288.074 609.014 327.13 633.764 355.388 C 636.98 359.059 640.482 362.517 643.936 365.963 C 626.139 388.444 616.761 403.763 612.948 433.543 C 603.941 438.799 588.639 457.539 581.657 466.001 C 544.139 511.28 505.253 563.767 490.109 621.596 C 477.853 668.393 476.615 722.867 473.739 772.489 C 471.893 804.351 458.826 928.37 474.579 952.983 C 499.894 992.537 563.113 1039.64 603.745 1064.09 C 605.467 1065.15 604.879 1073.27 604.366 1075.35 C 566.422 1091.48 521.142 1116.43 483.657 1135.06 L 264.762 1243.13 C 261.038 1229.03 257.561 1210.22 254.426 1195.64 L 237.554 1117.65 C 236.493 1112.6 229.425 1083.15 229.953 1079.96 C 233.021 1061.45 241.234 1035.96 246.514 1017.69 C 266.359 950.416 286.754 883.31 307.698 816.374 C 346.754 684.03 386.633 551.932 427.332 420.085 C 453.208 332.443 480.177 245.128 508.232 158.159 C 597.032 119.692 688.982 82.591 778.447 44.6901 L 845.122 16.7178 C 857.28 11.6504 872.628 5.79787 884.2 0 z" fill="rgb(237,236,236)" transform="translate(0,0)"></path>
<path d="M 0 0 L 728.987 0 L 759.149 0 L 849.588 0 C 823.019 13.202 793.54 24.7616 766.035 36.2848 L 650.058 85.3131 L 198.194 275.518 C 166.326 289.483 134.307 303.102 102.142 316.371 C 90.9633 320.973 62.1633 331.617 52.3866 336.605 C 65.6335 389.252 77.6958 442.191 88.5643 495.38 L 129.67 685.884 L 263.666 1299.01 L 376.555 1822.04 L 406.253 1959.03 C 412.22 1986.52 419.88 2020.45 424.544 2048 L 392.369 2048 L 379.158 2048 C 358.207 1957.97 340.8 1866.83 321.106 1776.63 L 100.758 764.639 L 40.2323 485.452 C 32.2994 448.053 25.6362 411.523 15.6308 374.524 C 10.0011 353.705 7.03471 333.224 0 312.383 L 0 308.793 L 0 0 z" fill="rgb(237,236,236)" transform="translate(0,0)"></path>
<path d="M 0 0 L 728.987 0 L 208.977 218.313 L 79.1391 274.19 C 61.6103 281.607 44.1281 289.134 26.6935 296.77 C 19.6478 299.835 5.97827 305.275 0 308.793 L 0 0 z" fill="rgb(237,236,236)" transform="translate(0,0)"></path>
<path d="M 728.987 0 L 759.149 0 C 735.566 11.8273 707.986 22.154 683.458 32.4974 L 539.172 92.9964 L 154.922 254.941 C 110.526 274.118 58.7955 295.376 15.1088 315.516 C 27.9717 364.245 37.628 414.242 48.226 463.485 L 106.248 733.801 L 283.838 1550.04 L 358.163 1895.79 C 366.022 1931.39 372.957 1967.36 381.492 2002.79 C 384.542 2015.44 388.523 2036.36 392.369 2048 L 379.158 2048 C 358.207 1957.97 340.8 1866.83 321.106 1776.63 L 100.758 764.639 L 40.2323 485.452 C 32.2994 448.053 25.6362 411.523 15.6308 374.524 C 10.0011 353.705 7.03471 333.224 0 312.383 L 0 308.793 C 5.97827 305.275 19.6478 299.835 26.6935 296.77 C 44.1281 289.134 61.6103 281.607 79.1391 274.19 L 208.977 218.313 L 728.987 0 z" fill="rgb(144,142,142)" transform="translate(0,0)"></path>
<path d="M 271.53 1272.86 L 530.949 1144.64 C 542.494 1138.95 592.374 1111.78 601.037 1110.25 C 602.442 1113.01 602.074 1117.92 602.101 1121.24 C 601.183 1142.12 598.931 1163.07 597.054 1183.9 C 596.143 1194 595.469 1204.58 603.474 1212.34 C 613.496 1222.13 626.727 1228.11 638.932 1234.72 C 644.241 1237.59 650.073 1240.39 655.601 1242.93 C 644.477 1287.6 628.533 1334.11 615.193 1378.33 L 535.022 1642.85 C 511.515 1722.11 487.153 1801.11 461.941 1879.84 C 450.743 1915.81 439.715 1959.35 426.327 1993.77 C 417.504 1958.57 410.905 1920.81 403.123 1885.22 L 340.17 1592.08 L 293.07 1375.87 C 286.038 1343.05 276.352 1305.53 271.53 1272.86 z" fill="rgb(237,236,236)" transform="translate(0,0)"></path>
<path d="M 472.921 173.117 L 473.156 173.368 C 473.764 176.111 464.864 202.708 463.302 207.943 C 449.859 253.561 436.081 299.08 421.969 344.495 L 270.883 843.14 C 259.853 879.161 248.606 915.089 237.156 950.978 C 229.73 974.253 223.693 998.477 216.908 1022.03 C 206.281 989.443 197.21 936.535 189.207 901.259 L 105.563 515.702 L 84.673 419.495 C 79.1246 394.694 72.9273 369.225 68.3604 344.246 C 78.0774 339.382 93.3306 333.542 103.722 329.043 L 200.216 288.287 C 290.69 248.892 381.597 210.499 472.921 173.117 z" fill="rgb(237,236,236)" transform="translate(0,0)"></path>
<metadata><recraft-signature>{"signed_by": "recraft", "signature_b64": "d1QJ4FcBN+U6T8xitFeqPNPFRor3QDegl1ew0KEf9wHcArs0c6vwVcBBB8Oy+Q87HI4q6f6GhbSbSzSExN6+CQ==", "signing_algo": "Ed25519", "generation_timestamp": 1784468768, "identifier": "daa290cb-5382-4d19-b211-eea4bd6cc04a"}</recraft-signature></metadata></svg>