<svg xmlns="http://www.w3.org/2000/svg" height="1280" preserveAspectRatio="none" style="display: block;" version="1.1" viewBox="0 0 1638 2048" width="1024">
<path d="M 0 0 L 1638 0 L 1638 2048 L 0 2048 L 0 0 z" fill="rgb(255,254,254)" transform="translate(0,0)"></path>
<path d="M 449.132 31.4126 C 470.205 28.7894 517.676 31.0635 537.963 37.4298 C 567.338 46.6479 600.345 72.1951 626.913 87.9987 C 638.614 94.9589 644.949 104.716 657.452 109.85 C 683.295 120.87 709.571 130.814 735.425 141.753 C 742.65 144.81 759.382 150.986 764.913 155.254 C 766.777 160.943 754.009 221.223 752.77 233.563 C 743.763 323.262 737.738 446.697 796.108 521.907 C 797.252 546.944 795.793 581.525 795.801 607.315 C 795.798 656.552 796.82 705.785 798.866 754.98 C 806.545 934.875 821.665 1114.38 844.187 1293.02 C 758.413 1325.1 679.049 1348.18 587.637 1359.08 C 544.012 1364.29 511.777 1367.82 467.158 1366.36 C 355.4 1363.17 244.174 1349.68 134.893 1326.06 C 82.7639 1314.88 88.6279 1325.39 93.8661 1272.14 C 109.813 1104.47 124.28 936.661 137.266 768.734 L 147.778 620.241 C 149.585 593.017 150.888 565.473 153.736 538.35 C 155.545 521.124 166.225 511.622 173.76 495.831 C 195.108 451.092 211.447 402.985 212.821 352.996 C 214.124 305.574 200.995 259.016 187.7 213.968 C 183.666 200.3 177.412 184.032 174.52 170.474 C 203.449 154.668 237.61 139.347 267.536 125.036 C 282.458 117.9 300.606 111.805 315.449 104.382 C 316.004 104.104 330.083 89.0667 333.72 86.1588 C 379.311 49.7002 390.498 36.6455 449.132 31.4126 z" fill="rgb(33,33,33)" transform="translate(0,0)"></path>
<path d="M 203.746 167.036 C 231.774 151.422 279.408 129.985 309.692 118.034 C 306.414 125.29 302.434 132.958 298.88 140.14 C 295.712 141.622 293.561 142.592 290.257 143.722 L 291.434 146.407 L 294.996 147.109 C 295.746 152.352 267.981 198.397 265.18 207.064 C 262.994 213.824 255.159 221.455 258.7 228.549 C 279.096 243.71 374.081 237.76 399.024 226.247 C 402.372 224.701 410.961 220.607 413.56 221.638 C 415.094 224.619 414.912 224.532 414.422 227.967 C 409.553 234.764 381.159 240.104 371.954 241.617 C 347.948 245.56 322.878 247.976 298.629 249.582 C 283.638 250.575 267.764 250.366 252.989 253.113 C 249.698 253.725 247.544 254.655 245.09 256.94 C 242.147 263.88 247.259 271.182 250.437 277.41 C 259.824 295.81 271.547 312.67 282.151 330.3 C 318.815 391.51 359.023 450.526 402.567 507.049 C 432.296 545.105 466.35 583.617 498.393 619.67 C 531.153 656.531 565.847 693.995 602.364 727.157 C 606.097 738.087 602.945 743.204 604.9 748.315 L 606.283 747.836 C 610.508 741.43 606.1 736.425 609.716 734.92 C 614.901 737.366 614.971 738.471 619.089 741.624 C 621.228 890.45 626.925 1039.08 628.148 1188 C 628.289 1211.58 628.661 1235.15 629.264 1258.72 C 629.438 1266.13 631.556 1301.12 628.444 1305.06 L 627.704 1304.92 C 624.561 1304.38 622.887 1304.23 619.833 1305.57 L 615.182 1305.52 C 615.735 1309.29 615.674 1312.63 616.187 1316.37 L 620.019 1316.6 C 620.054 1313.82 619.954 1313.24 620.86 1310.51 C 623.485 1307.97 626.844 1308.15 630.698 1307.67 C 630.957 1318.9 631.351 1330.12 631.881 1341.34 C 618.726 1344.48 598.852 1346.59 584.98 1348.68 C 477.062 1364.93 364.627 1351.49 257.195 1337.21 C 226.929 1333.18 194.599 1325.05 164.932 1321.51 C 166.083 1315.69 168.849 1294.64 173.143 1292.05 C 176.378 1292.6 177.239 1292.93 180.393 1292.38 L 180.947 1290.58 C 178.794 1288.26 175.323 1287.83 172.135 1287 C 181.552 1239.72 191.574 1193.7 199.77 1145.99 C 209.776 1087.75 216.219 1028.24 225.089 970.154 C 265.81 942.455 311.977 918.434 352.55 889.65 C 357.703 885.059 395.457 866.047 393.988 860.445 C 391.708 851.754 370.359 811.663 364.808 805.837 C 362.446 805.581 357.238 808.512 355.201 809.842 C 314.769 836.234 272.817 860.736 232.307 886.885 C 237.406 793.078 235.944 699.03 227.932 605.427 C 224.965 572.436 219.796 526.627 211.791 494.368 C 217.631 477.844 223.771 466.144 229.298 447.848 C 247.779 384.784 248.683 317.869 231.912 254.328 C 227.778 238.554 223.196 222.901 218.171 207.387 C 215.925 200.507 212.134 191.239 210.511 184.555 C 211.591 180.61 211.449 181.742 215.456 178.614 L 215.432 176.763 L 213.88 175.675 L 208.529 177.047 C 206.638 175.166 204.842 169.773 203.746 167.036 z" fill="rgb(255,254,254)" transform="translate(0,0)"></path>
<path d="M 614.876 1222.24 C 611.657 1146.99 612.807 1068.4 610.167 993.008 C 609.579 976.208 604.359 807.062 606.949 803.122 C 608.986 805.949 609.862 813.21 609.804 816.745 C 609.412 840.483 610.561 865.779 611.237 889.451 C 613.463 961.053 615.153 1032.67 616.308 1104.3 L 617.936 1183.56 C 618.127 1191.22 619.326 1214.52 618.709 1220.33 C 618.966 1224.66 620.074 1231.63 617.705 1234.94 C 620.122 1238.61 620.297 1297.9 619.833 1305.57 L 615.182 1305.52 C 616.648 1295.66 615.138 1249.28 614.932 1235.78 L 614.876 1222.24 z" fill="rgb(33,33,33)" transform="translate(0,0)"></path>
<path d="M 606.283 747.836 L 607.252 748.771 C 608.361 751.747 609.098 796.588 608.075 800.155 L 606.837 800.796 C 604.509 795.806 603.22 753.574 604.9 748.315 L 606.283 747.836 z" fill="rgb(33,33,33)" transform="translate(0,0)"></path>
<path d="M 616.187 1316.37 L 620.019 1316.6 C 620.886 1323.68 621.991 1333.97 619.484 1340.42 L 618.111 1340.98 C 613.847 1336.2 615.54 1322.64 616.187 1316.37 z" fill="rgb(33,33,33)" transform="translate(0,0)"></path>
<path d="M 268.932 156.409 L 269.088 153.505 C 272.448 150.002 276.166 149.3 280.869 148.41 L 280.233 151.135 C 276.931 154.19 273.27 154.953 268.932 156.409 z" fill="rgb(33,33,33)" transform="translate(0,0)"></path>
<path d="M 280.869 148.41 C 282.97 146.071 287.162 144.903 290.257 143.722 L 291.434 146.407 C 288.55 148.739 288.064 149.554 284.579 149.808 L 280.869 148.41 z" fill="rgb(33,33,33)" transform="translate(0,0)"></path>
<path d="M 557.336 996.528 C 572.958 993.401 588.188 1003.42 591.5 1019.01 C 594.811 1034.59 584.971 1049.94 569.428 1053.43 C 559.209 1055.73 548.543 1052.36 541.504 1044.6 C 534.465 1036.84 532.14 1025.9 535.417 1015.95 C 538.693 1006 547.066 998.584 557.336 996.528 z" fill="rgb(33,33,33)" transform="translate(0,0)"></path>
<path d="M 556.876 1000.78 C 570.365 997.335 584.099 1005.45 587.582 1018.93 C 591.065 1032.41 582.983 1046.17 569.513 1049.69 C 555.989 1053.23 542.166 1045.11 538.669 1031.57 C 535.172 1018.04 543.332 1004.24 556.876 1000.78 z" fill="rgb(239,238,239)" transform="translate(0,0)"></path>
<path d="M 556.488 1004.76 C 567.906 1001.06 580.151 1007.37 583.762 1018.82 C 587.374 1030.26 580.967 1042.46 569.494 1045.98 C 558.145 1049.47 546.11 1043.14 542.538 1031.82 C 538.966 1020.5 545.194 1008.42 556.488 1004.76 z" fill="rgb(33,33,33)" transform="translate(0,0)"></path>
<path d="M 559.207 1007.48 C 568.87 1005.21 578.552 1011.19 580.832 1020.85 C 583.113 1030.52 577.129 1040.2 567.466 1042.48 C 557.802 1044.76 548.118 1038.78 545.837 1029.11 C 543.556 1019.45 549.542 1009.76 559.207 1007.48 z" fill="rgb(255,254,254)" transform="translate(0,0)"></path>
<path d="M 552.364 735.04 C 568.101 733.583 582.094 745.028 583.787 760.741 C 585.481 776.454 574.248 790.618 558.562 792.548 C 548.203 793.823 537.961 789.417 531.761 781.021 C 525.562 772.624 524.367 761.538 528.635 752.014 C 532.903 742.489 541.971 736.002 552.364 735.04 z" fill="rgb(33,33,33)" transform="translate(0,0)"></path>
<path d="M 552.004 739.034 C 565.723 737.509 578.083 747.386 579.623 761.103 C 581.163 774.82 571.3 787.191 557.585 788.746 C 543.848 790.304 531.452 780.422 529.91 766.684 C 528.368 752.945 538.264 740.56 552.004 739.034 z" fill="rgb(239,238,239)" transform="translate(0,0)"></path>
<path d="M 549.026 743.195 C 560.554 739.983 572.503 746.727 575.71 758.257 C 578.918 769.786 572.169 781.732 560.638 784.935 C 549.113 788.137 537.175 781.392 533.97 769.869 C 530.764 758.346 537.504 746.405 549.026 743.195 z" fill="rgb(33,33,33)" transform="translate(0,0)"></path>
<path d="M 550.21 746.109 C 560.02 743.514 570.077 749.361 572.675 759.171 C 575.272 768.981 569.426 779.039 559.617 781.639 C 549.805 784.239 539.744 778.391 537.146 768.579 C 534.547 758.766 540.397 748.706 550.21 746.109 z" fill="rgb(255,254,254)" transform="translate(0,0)"></path>
<path d="M 362.114 514.211 C 377.841 512.56 391.957 523.897 393.738 539.61 C 395.519 555.322 384.297 569.532 368.6 571.441 C 352.719 573.374 338.308 561.992 336.506 546.096 C 334.704 530.2 346.204 515.882 362.114 514.211 z" fill="rgb(33,33,33)" transform="translate(0,0)"></path>
<path d="M 361.533 518.233 C 375.001 516.154 387.631 525.308 389.846 538.754 C 392.061 552.201 383.033 564.922 369.609 567.271 C 360.806 568.812 351.853 565.506 346.162 558.614 C 340.472 551.722 338.921 542.305 342.101 533.952 C 345.28 525.599 352.7 519.597 361.533 518.233 z" fill="rgb(239,238,239)" transform="translate(0,0)"></path>
<path d="M 360.128 522.244 C 371.476 519.332 383.034 526.186 385.92 537.542 C 388.807 548.897 381.926 560.438 370.564 563.299 C 359.239 566.15 347.743 559.296 344.866 547.978 C 341.989 536.659 348.816 525.148 360.128 522.244 z" fill="rgb(33,33,33)" transform="translate(0,0)"></path>
<path d="M 361.648 525.422 C 371.105 523.379 380.447 529.323 382.602 538.756 C 384.758 548.188 378.925 557.599 369.519 559.867 C 363.334 561.358 356.825 559.408 352.478 554.763 C 348.131 550.117 346.618 543.493 348.516 537.421 C 350.413 531.349 355.429 526.766 361.648 525.422 z" fill="rgb(255,254,254)" transform="translate(0,0)"></path>
<path d="M 422.326 997.536 C 437.579 993.551 453.198 1002.59 457.346 1017.8 C 461.494 1033.01 452.625 1048.72 437.461 1053.03 C 427.506 1055.86 416.798 1053.13 409.421 1045.87 C 402.045 1038.61 399.137 1027.94 401.806 1017.95 C 404.476 1007.95 412.312 1000.15 422.326 997.536 z" fill="rgb(33,33,33)" transform="translate(0,0)"></path>
<path d="M 422.141 1001.5 C 430.711 998.775 440.086 1000.87 446.681 1006.98 C 453.277 1013.1 456.074 1022.29 454.003 1031.04 C 451.933 1039.79 445.315 1046.75 436.679 1049.26 C 423.558 1053.08 409.808 1045.63 405.828 1032.56 C 401.849 1019.49 409.12 1005.64 422.141 1001.5 z" fill="rgb(239,238,239)" transform="translate(0,0)"></path>
<path d="M 427.095 1004.55 C 438.659 1003.06 449.244 1011.22 450.741 1022.78 C 452.238 1034.34 444.08 1044.93 432.518 1046.43 C 420.95 1047.93 410.356 1039.77 408.858 1028.2 C 407.36 1016.63 415.527 1006.04 427.095 1004.55 z" fill="rgb(33,33,33)" transform="translate(0,0)"></path>
<path d="M 425.026 1008.64 C 431.158 1006.9 437.755 1008.61 442.261 1013.12 C 446.767 1017.64 448.473 1024.23 446.718 1030.36 C 444.964 1036.49 440.024 1041.19 433.813 1042.64 C 424.531 1044.79 415.221 1039.15 412.836 1029.93 C 410.45 1020.7 415.86 1011.26 425.026 1008.64 z" fill="rgb(255,254,254)" transform="translate(0,0)"></path>
<path d="M 422.045 735.461 C 437.669 734.096 451.476 745.575 452.987 761.186 C 454.498 776.798 443.149 790.711 427.552 792.368 C 411.748 794.047 397.608 782.514 396.077 766.694 C 394.546 750.875 406.212 736.844 422.045 735.461 z" fill="rgb(33,33,33)" transform="translate(0,0)"></path>
<path d="M 421.55 739.357 C 434.95 737.652 447.24 747.015 449.153 760.387 C 451.066 773.76 441.895 786.193 428.554 788.314 C 419.737 789.715 410.85 786.256 405.3 779.264 C 399.751 772.272 398.4 762.831 401.767 754.563 C 405.133 746.296 412.694 740.484 421.55 739.357 z" fill="rgb(239,238,239)" transform="translate(0,0)"></path>
<path d="M 421.121 743.303 C 432.588 741.15 443.629 748.704 445.775 760.172 C 447.92 771.641 440.359 782.676 428.889 784.814 C 417.43 786.95 406.408 779.397 404.264 767.94 C 402.12 756.482 409.665 745.455 421.121 743.303 z" fill="rgb(33,33,33)" transform="translate(0,0)"></path>
<path d="M 422.372 746.444 C 432.079 744.876 441.24 751.413 442.912 761.103 C 444.585 770.792 438.146 780.023 428.475 781.799 C 422.127 782.966 415.64 780.631 411.491 775.686 C 407.342 770.741 406.169 763.948 408.42 757.898 C 410.672 751.848 416 747.474 422.372 746.444 z" fill="rgb(255,254,254)" transform="translate(0,0)"></path>
<path d="M 238.385 164.789 C 241.722 165.365 240.47 164.602 242.638 166.49 C 241.022 168.84 238.098 169.819 235.426 171.08 L 232.164 170.832 L 231.335 169.552 C 233.024 167.038 235.629 166.146 238.385 164.789 z" fill="rgb(33,33,33)" transform="translate(0,0)"></path>
<path d="M 264.702 153.921 L 266.711 154.839 L 267.172 156.51 C 265.379 158.612 262.059 159.648 259.387 160.773 C 257.591 159.8 258.217 160.298 257.049 158.497 C 258.925 155.902 261.428 155.412 264.702 153.921 z" fill="rgb(33,33,33)" transform="translate(0,0)"></path>
<path d="M 227.281 170.028 L 228.546 170.786 L 228.932 172.337 C 226.862 174.767 223.295 175.983 220.294 177.35 C 219.01 176.612 219.326 176.689 218.336 175.442 C 219.884 172.684 224.162 171.397 227.281 170.028 z" fill="rgb(33,33,33)" transform="translate(0,0)"></path>
<path d="M 204.25 509.61 C 207.321 518.268 211.857 549.068 213.06 558.847 C 226.479 667.967 226.181 783.637 222.515 893.351 C 205.24 904.337 187.874 915.18 170.419 925.877 C 161.447 931.377 148.543 938.314 140.75 944.587 C 141.806 952.062 171.111 991.693 177.385 999.12 C 189.27 991.623 201.238 984.256 213.285 977.021 C 213.086 994.822 205.821 1039.15 203.086 1057.9 C 194.958 1115.68 185.208 1173.22 173.847 1230.46 C 171.543 1241.73 165.304 1274.17 161.668 1283.81 C 159.067 1284.93 156.903 1283.7 153.586 1282.85 L 152.475 1285.58 C 154.589 1288.03 157.301 1287.86 161.114 1288.72 L 155.17 1319.84 C 136.777 1316.15 119.6 1311.55 100.825 1308.47 C 101.245 1301.35 102.737 1280.95 105.292 1275.2 C 109.259 1277.06 111.961 1279.79 116.369 1277.55 L 115.985 1275.75 C 112.622 1272.94 109.073 1272.85 104.624 1272.08 C 126.677 1037.4 145.455 802.432 160.953 567.233 C 178.826 550.77 192.155 530.496 204.25 509.61 z" fill="rgb(255,254,254)" transform="translate(0,0)"></path>
<path d="M 415.39 238.986 L 417.381 239.584 C 428.655 265.924 437.715 293.908 449.462 320.809 C 460.685 351.016 476.824 380.114 488.73 409.786 C 524.446 498.794 563.382 586.599 596.057 676.819 C 597.845 681.755 601.747 690.555 602.65 694.952 L 600.726 695.242 C 600.207 697.147 608.633 708.941 610.099 711.836 C 612.543 716.66 614.277 721.272 616.177 726.294 C 586.705 700.397 563.125 675.176 536.329 646.636 C 502.436 609.799 470.458 574.868 438.607 535.98 C 369.232 450.793 307.479 359.673 254.061 263.671 C 265.836 260.784 284.979 259.994 297.793 258.757 C 341.737 254.515 373.477 253.728 415.39 238.986 z" fill="rgb(255,254,254)" transform="translate(0,0)"></path>
<path d="M 368.583 422.843 C 373.988 424.869 399.625 463.059 405.618 469.404 C 407.47 471.365 406.754 472.061 406.228 474.342 C 405.513 474.116 404.268 473.797 403.839 473.212 C 397.787 464.97 368.636 430.265 368.583 422.843 z" fill="rgb(33,33,33)" transform="translate(0,0)"></path>
<path d="M 469.309 554.511 L 472.347 553.585 C 477.211 557.436 508.271 592.538 509.01 597.023 C 501.133 596.05 492.914 581.016 487.115 575.322 C 485.055 573.299 483.043 569.282 480.96 567.127 C 477.552 563.551 471.305 558.947 469.309 554.511 z" fill="rgb(33,33,33)" transform="translate(0,0)"></path>
<path d="M 415.181 244.132 C 415.474 244.307 417.025 245.88 417.324 246.172 L 416.619 248.428 C 410.641 253.892 387.774 258.579 379.244 260.824 C 376.292 261.318 376.504 261.286 373.652 260.325 L 373.459 258.972 C 377.115 255.027 401.74 255.738 415.181 244.132 z" fill="rgb(33,33,33)" transform="translate(0,0)"></path>
<path d="M 449.054 526.552 C 454.067 527.872 467.363 545.986 470.297 551.579 C 470.81 552.556 469.474 553.573 468.851 554.32 C 463.895 548.777 457.267 543.05 455.529 535.779 C 450.933 533.949 447.33 531.91 449.054 526.552 z" fill="rgb(33,33,33)" transform="translate(0,0)"></path>
<path d="M 536.681 627.55 C 541.303 628.423 557.35 647.276 562.367 652.04 L 559.998 653.996 C 554.866 651.677 537.841 633.2 536.681 627.55 z" fill="rgb(33,33,33)" transform="translate(0,0)"></path>
<path d="M 509.01 597.023 C 513.864 598.674 525.369 612.78 529.49 617.395 L 530.045 619.982 C 523.222 618.995 513.278 605.574 508.504 599.756 C 508.62 598.283 508.445 598.302 509.01 597.023 z" fill="rgb(33,33,33)" transform="translate(0,0)"></path>
<path d="M 332.773 370.706 C 336.453 372.317 349.003 392.638 350.917 396.542 C 344.68 396.003 331.835 376.475 332.773 370.706 z" fill="rgb(33,33,33)" transform="translate(0,0)"></path>
<path d="M 435.185 509.178 C 439.841 512.05 445.645 519.509 448.799 524.107 C 449.015 526.42 449.143 525.632 448.585 527.817 C 443.41 525.354 437.435 517.233 434.269 512.354 C 434.264 510.081 433.874 511.098 435.185 509.178 z" fill="rgb(33,33,33)" transform="translate(0,0)"></path>
<path d="M 319.535 351.685 C 323.714 352.2 332.675 367.195 333.304 370.915 C 328.091 370.885 319.303 355.702 319.535 351.685 z" fill="rgb(33,33,33)" transform="translate(0,0)"></path>
<path d="M 420.804 493.747 C 426.2 495.219 434.494 504.312 435.185 509.178 C 429.147 508.114 421.3 498.935 420.804 493.747 z" fill="rgb(33,33,33)" transform="translate(0,0)"></path>
<path d="M 568.724 661.771 C 572.953 662.65 577.937 665.596 578.142 670.353 C 572.966 670.647 568.815 666.991 568.724 661.771 z" fill="rgb(33,33,33)" transform="translate(0,0)"></path>
<path d="M 578.142 670.353 C 582.424 672.957 585.47 674.634 587.433 679.281 L 586.919 681.342 C 583.243 678.878 579.782 677.13 577.637 673.394 L 578.142 670.353 z" fill="rgb(33,33,33)" transform="translate(0,0)"></path>
<path d="M 405.292 474.423 C 411.233 474.23 413.029 478.347 415.142 483.504 C 409.473 483.872 407.445 479.385 405.292 474.423 z" fill="rgb(33,33,33)" transform="translate(0,0)"></path>
<path d="M 415.142 483.504 C 418.379 486.3 420.555 488.181 421.735 492.309 L 420.594 494.853 C 417.708 491.963 414.882 489.705 413.437 485.976 C 414.155 484.156 413.694 484.72 415.142 483.504 z" fill="rgb(33,33,33)" transform="translate(0,0)"></path>
<path d="M 561.641 653.728 C 566.454 654.034 569.09 657.97 569.835 662.313 C 564.718 661.851 561.527 658.888 561.641 653.728 z" fill="rgb(33,33,33)" transform="translate(0,0)"></path>
<path d="M 529.969 619.601 C 534.645 620.79 537.963 623.726 537.083 628.723 C 532.906 627.289 528.629 624.374 529.969 619.601 z" fill="rgb(33,33,33)" transform="translate(0,0)"></path>
<path d="M 340.147 260.494 C 345.917 259.835 349.224 257.97 351.389 263.745 C 348.32 264.23 347.124 264.233 343.993 264.231 C 340.729 262.523 341.973 263.719 340.147 260.494 z" fill="rgb(33,33,33)" transform="translate(0,0)"></path>
<path d="M 282.144 292.408 L 285.384 293.173 C 288.674 295.645 289.748 298.857 291.596 302.638 L 288.019 301.844 C 284.519 299.205 283.88 296.496 282.144 292.408 z" fill="rgb(33,33,33)" transform="translate(0,0)"></path>
<path d="M 360.932 413.733 C 366.635 414.417 368.506 418.269 368.623 423.391 C 364.523 421.417 361.916 418.15 360.932 413.733 z" fill="rgb(33,33,33)" transform="translate(0,0)"></path>
<path d="M 295.111 313.373 L 298.151 314.262 C 301.557 317.099 302.271 319.627 304.124 323.673 L 300.891 322.717 C 297.394 319.818 296.89 317.569 295.111 313.373 z" fill="rgb(33,33,33)" transform="translate(0,0)"></path>
<path d="M 290.678 302.765 C 293.734 304.958 295.295 307.425 296.386 310.917 L 295.017 313.078 C 291.539 310.191 288.696 307.102 290.678 302.765 z" fill="rgb(33,33,33)" transform="translate(0,0)"></path>
<path d="M 354.779 404.491 C 359.558 406.509 361.022 408.232 362.854 413.085 C 357.145 412.975 355.347 409.547 354.779 404.491 z" fill="rgb(33,33,33)" transform="translate(0,0)"></path>
<path d="M 314.61 341.73 C 317.983 344.042 320.547 347.477 319.979 351.624 C 315.856 349.907 312.352 346.238 314.61 341.73 z" fill="rgb(33,33,33)" transform="translate(0,0)"></path>
<path d="M 715.477 250.54 C 715.972 251.194 716.467 251.847 716.963 252.5 C 716.484 265.342 714.239 285.119 713.691 297.311 C 712.026 334.361 713.316 367.799 717.936 404.426 C 720.03 421.025 727.512 448.463 728.295 462.975 C 727.733 480.667 724.455 498.197 722.846 515.889 C 717.2 577.987 713.067 640 712.086 702.358 C 711.719 725.681 712.9 748.297 713.544 771.521 C 714.449 804.096 718.538 837.219 718.725 869.709 C 696.234 855.808 663.231 835.163 642.157 820.432 C 638.333 818.011 634.088 814.93 630.313 812.327 C 630.075 796.719 629.95 781.109 629.937 765.499 C 629.923 760.872 630.307 741.019 629.122 737.801 C 610.268 686.582 588.204 625.15 567.847 575.538 C 615.595 498.373 655.011 410.363 687.49 325.649 C 697.486 299.577 706.636 277.353 715.477 250.54 z" fill="rgb(255,254,254)" transform="translate(0,0)"></path>
<path d="M 615.292 517.215 C 629.754 512.453 645.362 520.168 650.363 534.549 C 655.363 548.931 647.906 564.665 633.609 569.902 C 624.149 573.367 613.555 571.461 605.895 564.916 C 598.236 558.37 594.701 548.204 596.648 538.318 C 598.595 528.433 605.722 520.366 615.292 517.215 z" fill="rgb(33,33,33)" transform="translate(0,0)"></path>
<path d="M 617.52 520.339 C 625.858 518.052 634.782 520.426 640.882 526.554 C 646.981 532.683 649.313 541.618 646.986 549.945 C 644.659 558.273 638.034 564.705 629.641 566.784 C 616.887 569.944 603.963 562.261 600.645 549.547 C 597.327 536.833 604.848 523.815 617.52 520.339 z" fill="rgb(239,238,239)" transform="translate(0,0)"></path>
<path d="M 616.993 524.157 C 627.256 522.862 636.952 524.388 642.649 534.091 C 645.294 538.516 645.967 543.846 644.505 548.789 C 642.212 556.316 637.155 559.332 630.771 562.566 C 620.341 564.196 610.464 561.996 605.134 551.968 C 602.65 547.332 602.259 541.857 604.058 536.915 C 606.612 529.955 610.916 527.205 616.993 524.157 z" fill="rgb(33,33,33)" transform="translate(0,0)"></path>
<path d="M 617.424 527.533 C 623.138 525.222 629.655 526.179 634.464 530.035 C 639.272 533.891 641.622 540.045 640.607 546.125 C 639.593 552.204 635.372 557.261 629.572 559.347 C 620.843 562.486 611.207 558.062 607.898 549.397 C 604.589 540.731 608.824 531.01 617.424 527.533 z" fill="rgb(255,254,254)" transform="translate(0,0)"></path>
<path d="M 632.106 900.691 C 640.415 904.54 732.041 962.391 732.268 964.157 C 745.285 1065.58 756.269 1168.62 775.617 1269.12 C 772.064 1269.95 769.262 1270.35 766.087 1272.15 L 765.947 1273.94 C 771.468 1278.97 770.573 1272.13 775.517 1272.19 C 778.712 1280.86 780.783 1294.49 782.4 1303.99 C 774.202 1306.57 765.986 1309.09 757.754 1311.56 C 719.142 1324.36 681.518 1331.9 641.924 1340.5 C 641.195 1330.94 640.625 1321.15 640.556 1311.54 C 640.478 1300.6 646.526 1308.62 652.094 1303.43 L 651.55 1301.71 C 648.951 1300.63 643.824 1301.96 640.758 1302.48 L 632.106 900.691 z" fill="rgb(255,254,254)" transform="translate(0,0)"></path>
<path d="M 548.28 234.512 C 580.534 239.285 613.082 241.803 645.687 242.047 C 666.389 242.1 686.931 240.416 707.64 241.025 C 676.426 335.24 637.585 426.753 591.5 514.656 C 583.612 529.862 572.173 549.875 563.167 564.272 C 561.512 560.032 559.93 555.624 558.334 551.347 L 562.324 547.022 C 563.101 543.269 563.446 544.871 562.052 541.948 C 558.083 543.326 560.714 544.777 556.731 546.335 C 552.026 540.339 540.496 509.769 536.838 500.949 L 504.25 423.491 C 517.454 367.184 535.249 312.289 544.86 255.089 C 545.425 251.725 546.044 247.972 548.245 245.33 C 551.635 246.87 552.793 247.639 556.415 248.056 L 557.23 246.412 L 556.385 244.303 C 553.669 243.479 551.81 242.816 549.183 241.742 C 547.245 238.672 547.975 239.037 548.28 234.512 z" fill="rgb(255,254,254)" transform="translate(0,0)"></path>
<path d="M 614.833 439.65 L 616.804 441.24 C 617.094 443.1 602.86 471.467 600.522 476.672 C 599.639 476.915 598.453 476.744 597.441 476.7 C 596.859 472.478 611.908 444.577 614.833 439.65 z" fill="rgb(33,33,33)" transform="translate(0,0)"></path>
<path d="M 576.868 512.392 C 577.925 512.845 578.351 513.306 579.295 514.022 C 579.167 518.273 571.881 527.278 569.162 531.092 C 569.281 535.388 568.73 535.736 566.288 539.551 C 565.89 540.128 565.157 540.473 564.486 540.913 L 562.804 540.417 C 562.279 535.187 573.63 517.64 576.868 512.392 z" fill="rgb(33,33,33)" transform="translate(0,0)"></path>
<path d="M 649.289 363.427 L 651.366 364.957 C 652.056 368.261 642.273 388.436 640.213 393.182 L 638.021 392.037 C 637.437 388.757 647.259 368.084 649.289 363.427 z" fill="rgb(33,33,33)" transform="translate(0,0)"></path>
<path d="M 636.584 393.377 L 638.243 394.315 C 639.249 397.986 630.18 415.418 627.976 420.552 C 626.461 421.006 627.036 420.86 625.303 420.506 C 624.364 416.127 634.033 398.881 636.584 393.377 z" fill="rgb(33,33,33)" transform="translate(0,0)"></path>
<path d="M 623.437 421.653 L 625.275 423.053 C 625.859 426.242 620.817 435.61 619.147 439.849 C 616.855 439.135 617.79 439.762 616.265 437.876 C 617.227 432.376 620.73 426.644 623.437 421.653 z" fill="rgb(33,33,33)" transform="translate(0,0)"></path>
<path d="M 600.83 247.378 C 603.763 247.056 615.301 247.122 618.695 247.838 C 620.127 248.14 619.946 248.969 620.745 250.899 C 615.306 250.657 609.953 251.154 604.652 250.759 C 602.052 250.566 602.225 249.653 600.83 247.378 z" fill="rgb(33,33,33)" transform="translate(0,0)"></path>
<path d="M 693.685 251.627 C 694.534 252.243 694.786 252.753 695.462 253.617 C 695.169 258.151 693.327 261.173 691.381 265.318 C 689.399 264.297 690.235 264.975 689.111 262.984 C 689.517 258.705 691.655 255.5 693.685 251.627 z" fill="rgb(33,33,33)" transform="translate(0,0)"></path>
<path d="M 633.192 247.416 C 638.651 246.746 641.368 245.389 644.758 250.258 C 638.997 250.923 636.75 252.379 633.192 247.416 z" fill="rgb(33,33,33)" transform="translate(0,0)"></path>
<path d="M 621.924 247.309 C 625.792 246.962 630.512 245.991 632.147 249.995 C 628.667 250.73 625.641 251.575 622.667 249.932 L 621.924 247.309 z" fill="rgb(33,33,33)" transform="translate(0,0)"></path>
<path d="M 737.073 485.778 C 739.501 489.722 744.267 500.478 746.919 505.43 C 758.485 527.027 767.904 536.339 785.65 551.715 C 784.358 582.778 785.056 616.028 785.411 647.126 C 786.434 736.752 792.382 826.56 797.351 916.06 L 790.139 912.116 C 769.617 900.916 749.513 888.965 729.87 876.287 C 729.101 847.609 725.485 817.843 724.406 788.647 C 721.18 712.223 722.802 635.671 729.261 559.451 C 731.188 536.671 733.504 508.25 737.073 485.778 z" fill="rgb(255,254,254)" transform="translate(0,0)"></path>
<path d="M 743.003 967.953 C 747.054 970.58 756.304 977.339 760.847 977.238 C 762.121 977.209 766.723 969.588 767.866 967.674 C 777.072 952.251 786.854 938.189 798.504 924.441 C 803.625 1006.23 810.606 1087.89 819.441 1169.36 C 823.427 1205.91 827.24 1249.14 833.279 1284.91 C 822.033 1290.72 804.666 1296.2 792.193 1301.05 C 790.792 1294.17 786.723 1276.1 786.425 1269.97 L 787.376 1268.55 L 786.422 1266.1 C 784.075 1262.31 779.205 1228.64 778.057 1221.43 C 769.079 1165.12 760.83 1108.68 753.314 1052.15 C 749.638 1024.17 746.798 995.806 743.003 967.953 z" fill="rgb(255,254,254)" transform="translate(0,0)"></path>
<path d="M 786.422 1266.1 C 789.522 1264.64 792.495 1262.65 795.686 1263.34 L 795.907 1264.78 C 793.385 1267.41 791.101 1268.01 787.376 1268.55 L 786.422 1266.1 z" fill="rgb(33,33,33)" transform="translate(0,0)"></path>
<path d="M 323.716 109.162 C 325.321 107.007 327.006 104.047 329.391 103.365 L 327.038 108.544 L 327.699 109.61 C 331.081 106.953 336.625 96.5512 340.229 93.4511 C 355.767 80.0869 372.426 67.6489 389.344 56.1808 C 392.89 96.2859 396.633 136.228 404.089 175.824 C 405.245 181.966 406.741 188.634 407.584 194.786 C 402.466 198.111 400.438 199.575 394.688 201.7 L 396.782 203.302 L 397.261 202.82 L 399.375 203.963 C 402.414 202.28 403.941 200.982 407.26 201.007 C 410.025 202.953 410.832 207.212 411.948 210.636 C 368.972 231.421 314.662 232.599 268.562 222.508 C 271.141 216.483 274.382 209.963 277.197 203.983 C 282.771 190.752 289.864 178.675 295.835 165.878 C 304.86 146.537 314.12 128.177 323.716 109.162 z" fill="rgb(255,254,254)" transform="translate(0,0)"></path>
<path d="M 323.716 109.162 L 325.822 111.532 C 325.163 121.167 289.032 191.79 282.354 204.271 C 281.896 205.126 280.395 205.033 279.208 205.138 L 277.197 203.983 C 282.771 190.752 289.864 178.675 295.835 165.878 C 304.86 146.537 314.12 128.177 323.716 109.162 z" fill="rgb(239,238,239)" transform="translate(0,0)"></path>
<path d="M 396.782 203.302 C 393.866 207.775 381.579 210.529 376.294 210.96 L 375.587 210.178 C 380.708 206.414 388.604 203.956 394.688 201.7 L 396.782 203.302 z" fill="rgb(33,33,33)" transform="translate(0,0)"></path>
<path d="M 305.781 214.384 C 312.137 213.562 314.701 211.989 318.351 217.656 C 312.728 218.272 308.305 219.822 305.781 214.384 z" fill="rgb(33,33,33)" transform="translate(0,0)"></path>
<path d="M 329.064 214.461 C 335.66 213.527 337.192 212.06 341.199 217.607 C 335.447 218.291 331.991 219.984 329.064 214.461 z" fill="rgb(33,33,33)" transform="translate(0,0)"></path>
<path d="M 549.822 53.1503 C 567.898 61.0618 622.39 93.6894 636.839 107.425 C 655.966 125.609 679.966 171.448 694.776 195.84 C 686.758 198.562 679.54 200.702 671.427 203.003 C 623.891 213.507 598.532 214.407 551.424 204.853 C 551.775 186.876 555.791 197.306 561.859 195.659 L 560.178 196.304 L 561.306 196.407 C 562.472 194.23 562.071 195.415 561.728 192.524 C 557.337 189.607 556.786 192.733 552.39 190.282 C 551.137 183.641 552.476 157.552 552.427 149.397 C 552.389 117.298 551.52 85.2047 549.822 53.1503 z" fill="rgb(255,254,254)" transform="translate(0,0)"></path>
<path d="M 682.361 185.905 L 684.619 185.886 C 687.712 188.167 686.972 186.743 687.625 189.868 C 683.894 192.441 669.501 192.397 667.482 194.302 C 664.08 195.183 661.234 196.541 658.316 194.564 C 659.174 187.922 675.742 193.464 682.361 185.905 z" fill="rgb(33,33,33)" transform="translate(0,0)"></path>
<path d="M 670.45 164.672 C 673.962 165.952 680.197 176.247 680.574 180.189 C 676.792 178.492 670.697 169.076 670.45 164.672 z" fill="rgb(33,33,33)" transform="translate(0,0)"></path>
<path d="M 638.453 115.103 C 642.261 117.671 646.714 121.867 646.32 126.953 C 641.948 125.292 639.152 119.563 638.453 115.103 z" fill="rgb(33,33,33)" transform="translate(0,0)"></path>
<path d="M 572.544 194.14 C 577.958 194.371 581.3 193.323 583.18 198.82 C 577.858 198.433 574.091 199.532 572.544 194.14 z" fill="rgb(33,33,33)" transform="translate(0,0)"></path>
<path d="M 646.32 126.953 C 650.427 129.599 653.473 132.555 653.567 137.769 C 648.569 135.6 646.781 132.385 646.32 126.953 z" fill="rgb(33,33,33)" transform="translate(0,0)"></path>
<path d="M 481.948 94.7883 C 501.961 94.9309 521.907 97.1295 541.471 101.349 C 543.599 136.173 541.854 173.654 541.693 208.628 C 541.617 225.233 536.435 247.551 533.114 264.308 C 525.797 300.882 517.131 337.173 507.133 373.106 C 503.578 384.553 500.353 396.099 497.462 407.731 C 484.111 377.312 484.65 378.813 485.23 345.552 C 485.679 329.067 485.821 312.575 485.655 296.085 L 481.948 94.7883 z" fill="rgb(255,254,254)" transform="translate(0,0)"></path>
<path d="M 151.386 946.465 C 163.143 942.266 207.143 913.966 220.609 905.389 C 254.431 883.636 288.426 862.153 322.591 840.944 C 331.894 835.11 353.44 819.801 362.513 818.625 L 363.727 820.279 C 361.716 826.338 358.407 827.482 353.464 831.028 L 355.501 831.562 C 362.882 832.536 363.448 824.023 369.293 832.196 C 373.256 837.738 377.422 846.443 380.644 852.635 C 381.324 854.952 381.807 856.313 382.689 858.569 C 375.602 867.387 185.8 985.659 179.326 985.886 C 177.871 985.937 177.608 984.948 176.752 983.942 C 173.493 979.224 160.945 962.11 160.603 957.322 C 162.784 955.794 163.172 955.637 164.992 953.595 L 163.977 951.847 C 161.579 952.237 159.611 952.442 157.191 952.667 C 154.172 951.665 153.133 949.203 151.386 946.465 z" fill="rgb(255,254,254)" transform="translate(0,0)"></path>
<path d="M 380.644 852.635 C 381.324 854.952 381.807 856.313 382.689 858.569 C 375.602 867.387 185.8 985.659 179.326 985.886 C 177.871 985.937 177.608 984.948 176.752 983.942 C 177.12 978.936 186.863 973.828 191.108 973.418 C 194.094 969.823 196.887 968.646 200.932 966.437 C 204.011 964.652 205.938 963.525 209.185 962.115 C 212.531 958.804 232.142 947.301 236.874 945.49 C 236.943 945.382 294.872 908.234 299.62 905.426 C 303.837 902.188 312.749 896.682 317.435 894.496 L 317.952 893.692 C 321.445 891.347 324.659 888.728 328.753 888.304 C 328.808 888.173 377.829 853.849 380.644 852.635 z" fill="rgb(239,238,239)" transform="translate(0,0)"></path>
<path d="M 236.874 945.49 C 233.11 953.14 220.557 957.51 213.512 962.39 C 212.525 963.073 210.295 962.48 209.185 962.115 C 212.531 958.804 232.142 947.301 236.874 945.49 z" fill="rgb(33,33,33)" transform="translate(0,0)"></path>
<path d="M 317.435 894.496 C 317.247 896.81 317.74 897.445 315.689 898.827 C 312.862 900.733 304.611 906.7 301.713 906.793 L 299.62 905.426 C 303.837 902.188 312.749 896.682 317.435 894.496 z" fill="rgb(33,33,33)" transform="translate(0,0)"></path>
<path d="M 317.952 893.692 C 321.445 891.347 324.659 888.728 328.753 888.304 C 326.357 893.302 323.509 896.747 317.952 893.692 z" fill="rgb(33,33,33)" transform="translate(0,0)"></path>
<path d="M 200.932 966.437 C 200.606 970.75 201.252 969.136 198.459 972.501 C 195.199 974.008 194.694 974.178 191.108 973.418 C 194.094 969.823 196.887 968.646 200.932 966.437 z" fill="rgb(33,33,33)" transform="translate(0,0)"></path>
<path d="M 335.948 843.006 C 337.643 839.539 341.487 837.863 345.048 837.003 L 345.563 839.377 C 342.561 842.502 342.13 842.774 337.984 844.032 L 335.948 843.006 z" fill="rgb(33,33,33)" transform="translate(0,0)"></path>
<path d="M 335.948 843.006 C 334.869 848.227 330.604 849.988 325.814 851.001 C 326.502 845.518 331.344 844.389 335.948 843.006 z" fill="rgb(33,33,33)" transform="translate(0,0)"></path>
<path d="M 345.048 837.003 C 347.376 833.889 349.912 832.364 353.464 831.028 L 355.501 831.562 C 353.454 836.326 350.193 838.364 345.048 837.003 z" fill="rgb(33,33,33)" transform="translate(0,0)"></path>
<path d="M 314.113 855.884 C 315.262 856.248 314.8 856.159 315.793 857.445 C 314.798 859.705 304.989 865.763 301.02 869.407 C 299.928 869.176 299.326 868.753 298.286 868.24 L 298.403 866.455 C 302.057 862.844 309.456 858.722 314.113 855.884 z" fill="rgb(33,33,33)" transform="translate(0,0)"></path>
<path d="M 193.586 932.817 C 195.084 934.382 194.485 933.464 194.832 935.945 C 192.997 938.799 189.749 939.998 186.61 941.659 L 185.571 938.967 C 187.082 935.875 190.398 934.62 193.586 932.817 z" fill="rgb(33,33,33)" transform="translate(0,0)"></path>
<path d="M 294.914 867.679 C 296.934 868.855 296.095 868.062 297.052 870.479 C 295.65 873.112 292.209 874.645 289.512 876.246 L 287.761 873.924 C 289.252 870.609 291.443 870.019 294.914 867.679 z" fill="rgb(33,33,33)" transform="translate(0,0)"></path>
<path d="M 202.919 926.675 C 203.785 927.137 204.141 927.744 204.862 928.548 C 203.328 932.045 201.332 932.571 197.808 935.103 C 195.821 934.01 196.569 934.78 195.818 932.494 C 197.163 929.988 200.428 928.309 202.919 926.675 z" fill="rgb(33,33,33)" transform="translate(0,0)"></path>
<path d="M 238.836 903.742 C 240.313 904.667 239.935 904.546 241.05 906.056 C 239.391 909.049 236.637 909.955 233.319 911.986 L 231.472 910.158 C 233.115 906.886 235.461 906.083 238.836 903.742 z" fill="rgb(33,33,33)" transform="translate(0,0)"></path>
<path d="M 248.232 897.595 C 250.149 898.387 249.456 898.017 250.979 899.594 C 249.754 902.083 247.102 903.274 244.506 905.057 C 242.52 904.645 243.481 904.984 241.79 903.391 C 242.746 900.806 245.802 899.246 248.232 897.595 z" fill="rgb(33,33,33)" transform="translate(0,0)"></path>
<path d="M 275.311 880.632 C 277.221 881.319 276.512 880.936 277.972 882.536 C 276.838 885.15 274.335 886.328 271.731 888.255 C 270.184 887.68 270.503 887.637 269.191 886.372 C 270.341 883.502 272.456 882.713 275.311 880.632 z" fill="rgb(33,33,33)" transform="translate(0,0)"></path>
<path d="M 171.929 945.731 C 174.174 945.97 173.12 945.662 174.978 947.026 C 174.12 949.576 171.025 951.165 168.641 952.799 C 166.324 952.096 167.092 952.832 166.03 950.846 C 167.273 948.155 169.34 947.337 171.929 945.731 z" fill="rgb(33,33,33)" transform="translate(0,0)"></path>
<path d="M 183.887 939.008 L 184.815 941.52 C 182.709 944.78 181.18 944.771 177.339 946.701 L 176.169 944.476 C 178.266 941.161 180.04 941.023 183.887 939.008 z" fill="rgb(33,33,33)" transform="translate(0,0)"></path>
<path d="M 462.737 94.436 L 471.986 94.0452 C 473.52 183.033 476.064 270.607 475.906 359.752 C 471.096 346.113 465.038 332.158 459.464 318.751 C 452.359 302.659 432.74 255.058 428.444 239.779 C 418.048 202.806 406.254 140.903 403.852 102.528 C 422.986 96.9922 442.956 95.74 462.737 94.436 z" fill="rgb(255,254,254)" transform="translate(0,0)"></path>
<path d="M 632.163 837.313 C 630.653 833.406 630.816 832.345 630.867 828.108 L 631.91 826.531 C 646.945 834.237 674.777 852.894 690.308 862.498 L 784.457 919.464 C 787.612 921.398 787.473 920.942 788.461 923.642 L 787.002 924.79 L 784.508 924.463 C 785.972 928.679 782.377 931.808 779.678 935.143 C 772.685 945.849 763.541 955.871 758.922 967.766 C 719.496 942.59 677.994 918.973 638.882 893.16 C 636.032 891.279 633 888.906 632.381 885.556 L 633.147 884.892 C 635.88 886.379 638.66 887.778 641.481 889.089 L 643.829 888.141 L 644.505 887.061 C 642.557 885.36 635.525 881.237 632.068 878.555 C 631.567 869.844 630.115 848.368 631.534 840.207 L 632.163 837.313 z" fill="rgb(255,254,254)" transform="translate(0,0)"></path>
<path d="M 641.027 843.003 C 645.613 843.611 669.847 858.709 672.669 862.163 C 672.469 864.033 672.74 863.889 671.91 865.385 C 665.823 861.162 641.824 848.002 641.027 843.003 z" fill="rgb(33,33,33)" transform="translate(0,0)"></path>
<path d="M 779.678 935.143 C 776.343 934.289 777.083 934.984 775.099 932.776 C 775.097 925.999 778.753 924.754 784.508 924.463 C 785.972 928.679 782.377 931.808 779.678 935.143 z" fill="rgb(239,238,239)" transform="translate(0,0)"></path>
<path d="M 644.505 887.061 C 647.775 888.801 650.878 889.795 652.234 892.97 L 651.254 894.25 C 647.527 893.904 644.425 892.297 643.829 888.141 L 644.505 887.061 z" fill="rgb(33,33,33)" transform="translate(0,0)"></path>
<path d="M 632.163 837.313 C 636.498 837.585 639.011 838.999 641.027 843.003 C 637.398 843.064 634.928 841.635 631.534 840.207 L 632.163 837.313 z" fill="rgb(33,33,33)" transform="translate(0,0)"></path>
<path d="M 696.696 878.077 C 701.294 878.468 729.135 895.044 731.181 898.79 C 724.138 899.298 706.103 885.567 698.838 882.211 C 697.42 881.556 696.851 879.567 696.696 878.077 z" fill="rgb(33,33,33)" transform="translate(0,0)"></path>
<path d="M 737.425 946.748 C 746.985 948.445 750.246 957.215 758.386 954.491 C 761.288 955.31 760.049 954.518 761.932 957.353 L 759.084 959.888 C 752.771 960.043 740.401 952.048 737.425 946.748 z" fill="rgb(33,33,33)" transform="translate(0,0)"></path>
<path d="M 674.03 862.734 C 678.947 864.16 687.147 869.165 688.308 874.355 C 684.806 873.794 677.967 869.436 675.236 867.011 C 673.452 865.428 674.141 865.867 674.03 862.734 z" fill="rgb(33,33,33)" transform="translate(0,0)"></path>
<path d="M 760.323 916.935 C 765.718 916.962 769.981 920.917 774.272 924.133 C 767.829 923.891 763.812 922.638 760.323 916.935 z" fill="rgb(33,33,33)" transform="translate(0,0)"></path>
<path d="M 710.651 929.689 C 716.398 931.092 719.118 932.112 720.843 937.886 C 714.991 935.701 712.426 935.924 710.651 929.689 z" fill="rgb(33,33,33)" transform="translate(0,0)"></path>
<path d="M 662.966 898.746 C 668.035 900.775 671.825 902.073 671.512 907.827 C 667.86 905.681 665.546 904.632 662.686 901.468 L 662.966 898.746 z" fill="rgb(33,33,33)" transform="translate(0,0)"></path>
<path d="M 700.526 922.938 C 705.186 924.409 707.913 925.878 710.275 930.157 C 705.111 929.987 700.935 928.651 700.526 922.938 z" fill="rgb(33,33,33)" transform="translate(0,0)"></path>
<path d="M 728.252 940.869 C 733.827 941.689 736.223 943.716 739.363 948.266 C 733.872 947.786 730.352 946.004 728.252 940.869 z" fill="rgb(33,33,33)" transform="translate(0,0)"></path>
<path d="M 731.181 898.79 C 735.772 900.447 736.67 900.716 740.512 903.658 C 740.836 904.67 741.098 904.905 740.923 905.759 C 736.218 905.209 732.107 903.943 731.181 898.79 z" fill="rgb(33,33,33)" transform="translate(0,0)"></path>
<path d="M 690.104 916.857 C 695.484 917.926 697.71 918.897 699.642 924.098 C 694.264 923.267 692.053 921.975 690.104 916.857 z" fill="rgb(33,33,33)" transform="translate(0,0)"></path>
<path d="M 465.475 40.4183 C 479.322 39.9514 526.426 41.7389 537.394 48.6594 C 541.757 55.3482 541.332 81.6006 541.637 90.7974 C 515.243 86.6746 502.532 85.0984 476.099 84.6193 C 448.679 84.8478 428.976 87.049 402.374 92.6452 C 400.941 78.4644 400.131 64.2275 399.947 49.9757 C 420.785 43.9959 443.892 41.4464 465.475 40.4183 z" fill="rgb(255,254,254)" transform="translate(0,0)"></path>
<path d="M 661.653 122.878 C 670.553 125.797 683.46 131.861 692.443 135.746 C 705.964 141.743 719.717 147.202 733.669 152.112 C 727.845 180.954 723.274 203.673 719.189 232.992 C 707.692 231.743 697.66 231.029 686.033 231.634 C 650.451 233.488 615.216 231.715 579.765 228.824 C 573.228 227.93 555.792 227.161 552.157 223.928 C 550.709 220.496 550.91 220.21 551.507 216.378 C 556.008 213.472 581.916 220.35 589.611 220.635 C 623.103 221.874 662.548 218.652 693.954 206.243 C 697.568 204.815 703.296 202.249 704.35 198.09 C 706.156 190.964 667.545 133.129 661.653 122.878 z" fill="rgb(255,254,254)" transform="translate(0,0)"></path>
<path d="M 743.469 157.374 L 755.146 160.458 C 752.068 174.148 749.352 187.917 747 201.75 C 731.054 301.134 725.073 441.233 786.626 526.529 L 786.056 539.152 C 702.369 479.492 720.316 244.498 743.469 157.374 z" fill="rgb(255,254,254)" transform="translate(0,0)"></path>
<path d="M 193.087 171.851 C 197.899 176.012 202.878 192.353 205.169 199.017 C 220.069 242.35 231.624 288.451 233.534 334.398 C 236.548 406.894 214.456 493.691 164.811 548.258 L 163.296 549.509 C 161.538 546.59 164.295 532.535 165.458 529.956 C 169.927 520.045 177.1 510.345 181.982 500.431 C 196.89 470.156 207.336 441.954 215.384 409.451 C 231.281 345.241 218.293 285.962 201.192 223.556 C 197.157 208.832 189.954 191.134 187.325 176.558 C 188.396 173.457 189.165 173.994 193.087 171.851 z" fill="rgb(255,254,254)" transform="translate(0,0)"></path>
<path d="M 1199.01 701.416 C 1229.16 697.578 1271.75 703.618 1297.69 719.35 C 1327.47 737.386 1360.37 752.586 1386.98 775.152 C 1389.25 777.074 1390.19 780.602 1390.89 783.371 C 1396.8 787.384 1413.35 792.913 1420.6 795.836 C 1442.13 804.511 1469.31 813.17 1489.36 824.218 C 1487.2 842.381 1481.92 862.77 1479.5 880.877 C 1469.9 952.782 1455.79 1150.89 1508.09 1201.33 C 1506.63 1213.08 1505.97 1230.22 1505.18 1242.24 C 1502.51 1279.74 1501.2 1317.33 1501.23 1354.93 C 1500.19 1550.37 1521.12 1743.99 1545.93 1937.51 C 1546.32 1940.55 1547.37 1949.18 1546 1951.77 C 1539.42 1956.83 1517.87 1960.96 1508.63 1963.31 C 1445.11 1979.47 1378.21 1992.18 1313.23 2001 C 1270.54 2006.79 1216.11 2013.74 1173.74 2011.24 C 1138.09 2010.14 853.309 1974.38 836.11 1960.88 C 833.522 1949.28 843.096 1850.71 844.26 1834.78 L 877.481 1394.58 C 880.403 1355.78 883.077 1316.95 885.502 1278.11 C 886.715 1260.22 887.426 1242.28 889.126 1224.44 C 889.657 1218.19 892.028 1213.1 895.041 1207.65 C 911.515 1177.83 921.916 1146.69 931.154 1113.95 C 949.604 1048.56 938.912 979.848 921.898 915.372 C 915.926 892.739 910.835 868.383 903.115 846.325 C 925.034 832.346 954.719 820.55 977.83 808.009 C 987.459 802.784 998.363 798.874 1007.74 793.022 C 1010.71 791.164 1006.9 787.759 1010.31 785.217 C 1041.01 759.146 1094.74 726.412 1130.91 712.122 C 1146.2 706.078 1186.07 702.451 1199.01 701.416 z" fill="rgb(33,33,33)" transform="translate(0,0)"></path>
<path d="M 1022.92 797.08 C 1028.58 798.547 1043.7 800.623 1049.72 801.45 C 1088.6 806.791 1129.39 809.226 1168.63 810.317 C 1170.01 832.994 1168.61 865.335 1168.42 888.379 C 1168.1 943.963 1167.28 999.543 1165.98 1055.11 C 1163.15 1238.67 1156.94 1422.17 1147.35 1605.5 C 1143.8 1686.94 1139.39 1768.34 1134.1 1849.68 L 1130.46 1918.71 C 1129.83 1931.05 1129.35 1949.18 1127.68 1960.98 L 1126.43 1961.82 C 1123.9 1961.38 1121.86 1960.69 1119.56 1961.61 L 1119.07 1964.01 C 1121.3 1965.66 1123.28 1964.84 1126.71 1964.59 C 1128.4 1967.17 1125.4 1991.71 1124.93 1996.16 C 1087.17 1993.25 1046.91 1987.11 1009.37 1981.5 C 983.684 1977.83 958.047 1973.83 932.463 1969.52 C 934.931 1960.57 937.611 1950.25 940.776 1941.49 C 942.629 1936.36 945.915 1943.58 951.712 1941.47 L 952.018 1938.97 C 949.669 1937.01 944.624 1936.43 941.382 1935.78 C 951.083 1900.19 960.504 1851.95 967.669 1815.92 C 988.812 1710.26 1003.55 1603.42 1011.81 1495.99 C 1022.39 1367.73 1025.94 1234.79 1004.93 1107.38 C 1000.32 1079.47 993.69 1051.52 986.029 1024.29 C 982.003 1009.98 976.452 995.947 972.23 981.677 C 961.564 934.64 946.284 887.729 936.083 840.71 C 944.571 834.817 958.304 828.795 967.727 824.134 C 985.826 815.183 1005.24 806.73 1022.92 797.08 z" fill="rgb(255,254,254)" transform="translate(0,0)"></path>
<path d="M 1378.4 791.255 C 1383.2 790.591 1447.17 816.992 1456.35 820.813 C 1450.28 842.818 1444.65 873.866 1442.31 896.748 C 1439.02 928.896 1430.29 950.913 1422.68 981.701 C 1411.46 1026.33 1402.44 1071.48 1395.67 1116.99 C 1351.64 1403.76 1398.73 1683.51 1460.27 1963.56 C 1433.32 1970.59 1400.06 1975.91 1372.22 1980.98 C 1347.33 1985.61 1309.32 1991.38 1284.04 1993.25 C 1283.26 1985.66 1280.82 1969.46 1282.38 1961.83 C 1282.56 1960.94 1287.04 1960.54 1289.45 1959.74 L 1290.03 1957.53 L 1289.01 1956.15 C 1286.18 1956.13 1284.89 1956.27 1282.07 1956.64 C 1279.68 1950.53 1278.16 1921.19 1277.53 1912.41 C 1274.94 1874.29 1272.53 1836.16 1270.32 1798.01 C 1250.82 1468.83 1238.25 1139.28 1232.64 809.568 C 1281.69 808.065 1330.5 801.933 1378.4 791.255 z" fill="rgb(255,254,254)" transform="translate(0,0)"></path>
<path d="M 1191.84 810.5 C 1201.78 810.149 1212.29 810.164 1222.28 810.016 C 1227.09 1107.29 1237.64 1404.45 1253.93 1701.32 L 1270.06 1949.68 C 1270.23 1952.85 1270.51 1954.85 1269.38 1957.81 C 1266.38 1958.3 1265.21 1958.24 1262.75 1960.09 L 1262.92 1962.05 C 1266.94 1964.52 1265.81 1960.94 1270.58 1963.1 C 1272.38 1970.25 1272.89 1986.13 1274.01 1994.9 C 1260.89 1997.29 1235.59 1998.97 1222.25 1999.89 C 1191.24 2002.08 1167.33 2000.55 1136.55 1997.64 C 1136.82 1992.06 1137.32 1970.73 1139.58 1966.88 C 1141.38 1966.84 1142.73 1966.76 1144.52 1966.59 L 1145.01 1964.47 L 1144.04 1962.95 C 1141.71 1962.91 1141.32 1963.19 1139.42 1961.97 C 1138.72 1945.77 1141.85 1911.38 1142.9 1894.05 L 1149.21 1783.31 C 1154.2 1695.23 1158.64 1607.12 1162.52 1518.98 C 1169.36 1360.35 1174.03 1201.62 1176.53 1042.86 C 1177.8 965.867 1177.55 887.452 1179.35 810.797 L 1191.84 810.5 z" fill="rgb(255,254,254)" transform="translate(0,0)"></path>
<path d="M 976.614 1033.44 C 979.272 1038.31 981.013 1045.29 982.362 1050.74 C 1011.29 1167.72 1012.54 1291.89 1006.83 1411.59 C 1000.31 1552.19 982.669 1692.05 954.073 1829.87 C 947.338 1863.23 940.452 1896.42 932.498 1929.5 C 931.801 1932.4 927.958 1933.92 925.549 1935.03 L 924.461 1935.52 L 924.612 1936.25 C 927 1937.45 927.318 1937.51 929.422 1939.31 C 929.163 1943.49 923.769 1962.13 922.318 1967.78 C 911.302 1965.79 900.269 1963.9 889.219 1962.1 C 874.591 1959.44 859.898 1956.48 845.295 1953.64 C 847.714 1910.5 852.361 1864.23 855.84 1820.92 L 872.422 1608.25 C 881.53 1489.51 889.904 1370.72 897.544 1251.88 C 957.109 1188.35 973.208 1117.57 976.614 1033.44 z" fill="rgb(255,254,254)" transform="translate(0,0)"></path>
<path d="M 1436.66 971.734 C 1437.7 977.468 1436.12 1011.98 1436.3 1020.9 C 1437.2 1066.02 1438.56 1110.16 1448.96 1154.37 C 1456.13 1184.88 1467.14 1214.67 1494.78 1232.1 C 1492.88 1263.87 1490.7 1295.77 1490.19 1327.57 C 1488.17 1453.11 1496.34 1579.06 1508.59 1703.97 C 1516.34 1783.06 1524.31 1866.36 1536.4 1944.82 C 1518.54 1948.77 1498.63 1954.88 1480.35 1959.34 L 1471.1 1961.07 C 1469.15 1954.38 1465.12 1938.62 1465.29 1931.4 C 1465.36 1928.53 1469.31 1931.87 1473.67 1929.03 L 1473.22 1926.92 C 1468.83 1924.96 1467.62 1928.14 1464 1926.45 C 1462.08 1921.45 1457.78 1899.6 1456.29 1892.99 C 1447.17 1851.96 1439.06 1810.72 1431.97 1769.29 C 1423.97 1725.84 1416.67 1682.27 1410.08 1638.58 C 1385.11 1461.16 1378.94 1275.13 1409.24 1098.03 C 1415.73 1060.12 1425.06 1008.07 1436.66 971.734 z" fill="rgb(255,254,254)" transform="translate(0,0)"></path>
<path d="M 1199.23 712.578 C 1252.86 708.371 1284.04 720.436 1328.51 749.239 C 1334.21 752.927 1363.34 768.012 1363.63 772.73 C 1361.64 773.822 1360.65 774.294 1358.86 775.779 C 1362.12 779.101 1366.37 775.645 1371.13 776.713 C 1373.23 777.183 1377.83 779.914 1379.84 781.087 C 1360.69 784.482 1341.6 788.382 1322.34 791.067 C 1270.25 798.27 1217.64 801.023 1165.08 799.297 C 1117.02 798.504 1071.3 793.374 1023.76 787.296 C 1025.57 786.006 1033.82 779.99 1035.68 780.129 C 1042.34 780.622 1071.04 787.275 1075.01 784.987 C 1074.94 784.207 1074.87 783.428 1074.79 782.649 C 1068.07 778.803 1046.53 781.405 1041.29 776.256 C 1046.2 766.865 1117.87 727.847 1130.91 722.906 C 1144.94 717.588 1183.67 713.788 1199.23 712.578 z" fill="rgb(255,254,254)" transform="translate(0,0)"></path>
<path d="M 924.037 845.873 C 924.593 845.927 925.657 846.441 926.244 846.682 C 938.122 885.596 948.724 932.097 957.954 971.622 C 977.227 1054.15 958.439 1165.73 902.37 1232.44 C 901.507 1233.52 901.054 1233.75 899.969 1234.63 C 894.452 1225.82 908.672 1203.63 912.898 1194.94 C 923.7 1172.71 930.853 1150.87 938.039 1127.44 C 959.1 1058.81 952.216 988.359 933.57 920.066 C 927.279 896.885 922.148 873.697 915.173 850.617 L 924.037 845.873 z" fill="rgb(255,254,254)" transform="translate(0,0)"></path>
<path d="M 1465.86 825.42 C 1469.1 826.136 1477.9 827.878 1477.04 832.519 C 1461.58 916.378 1455.13 1001.74 1462.08 1086.94 C 1465.6 1130.19 1473 1170.04 1496.93 1207.33 C 1497.08 1212.86 1497.27 1214.85 1496.08 1220.29 C 1489.4 1218.29 1483.67 1210.28 1480.02 1204.63 C 1435.48 1135.8 1445.27 956.052 1456.45 875.088 C 1458.75 858.364 1462.23 841.898 1465.86 825.42 z" fill="rgb(255,254,254)" transform="translate(0,0)"></path>
<metadata><recraft-signature>{"signed_by": "recraft", "signature_b64": "SEAySVhBQkhOj+NnYhtpifSu3FveHtMJa8GBNFno40ZRDCF5Bu2PDh76sFlbBfsrHkIduUaBKs03rl66AHe7CQ==", "signing_algo": "Ed25519", "generation_timestamp": 1784515506, "identifier": "70b2d566-757f-4d3f-9b91-74171dcf173b"}</recraft-signature></metadata></svg>