<svg xmlns="http://www.w3.org/2000/svg" height="1280" preserveAspectRatio="none" style="display: block;" version="1.1" viewBox="0 0 1638 2048" width="1024">
<path d="M 0 0 L 1638 0 L 1638 2048 L 0 2048 L 0 0 z" fill="rgb(255,255,255)" transform="translate(0,0)"></path>
<path d="M 1147.82 397.438 C 1270.2 397.516 1323.06 525.079 1286.37 628.631 C 1274.5 662.132 1254.92 693.802 1260.6 729.387 C 1274.13 741.975 1269.07 748.365 1283.53 759.843 C 1295.61 769.431 1307.64 779.721 1319.54 789.493 C 1330.85 798.771 1343.05 810.261 1354.47 818.896 C 1382.12 839.813 1410.8 859.71 1438.44 880.659 C 1447.29 887.362 1465.25 899.661 1472.14 907.409 C 1479.06 915.202 1483.06 937.748 1487.29 947.39 C 1489.88 953.29 1495.77 961.216 1499.3 967.095 C 1503.26 973.551 1506 980.677 1507.39 988.12 C 1510.91 1006.44 1513.76 1028.39 1516.68 1047.1 C 1524.69 1098.42 1531.96 1149.85 1538.49 1201.38 C 1545.24 1253.36 1553.45 1307.1 1560.79 1359.2 L 1572.77 1442.8 C 1574.63 1455.34 1583.48 1504.08 1581.66 1512.9 C 1575.76 1536.11 1568.55 1553.01 1560.79 1576.26 C 1534.71 1654.38 1505.17 1734.38 1478.95 1812.22 C 1476.28 1823.36 1494.72 1900.47 1490.99 1904.92 C 1463.59 1937.6 1330.52 1967.19 1297.18 1972.61 C 1194.09 1989.36 1102.71 1986.51 1005.45 1961.25 C 977.287 1953.81 955.453 1945.17 929.003 1933.86 C 923.901 1944.84 912.184 1990.31 903.877 1993.25 C 892.473 1991.37 797.895 1950.82 787.414 1943.85 C 788.43 1933.09 793.994 1908.75 796.292 1897.44 L 815.057 1805.79 C 830.617 1727.39 845.567 1648.88 859.909 1570.26 C 865.949 1537.86 875.394 1505.56 877.607 1472.71 C 878.341 1461.82 879.4 1450.76 880.294 1439.87 C 883.14 1404.85 886.208 1369.86 889.5 1334.88 L 924.158 991.107 C 942.777 973.346 959.83 957.229 979.397 940.438 C 983.509 919.211 1015.6 897.583 1031.86 883.406 C 1054.44 863.717 1077.45 845.054 1099.17 824.255 C 1093.41 810.663 1083.13 799.884 1071.34 791.231 C 1050.35 798.582 1013.7 822.233 992.442 801.604 C 981.814 792.995 988.58 771.027 985.091 762.551 C 977.19 743.36 976.017 744.8 977.111 723.772 C 974.237 721.187 971.915 718.453 969.341 715.579 C 968.492 709.776 968.123 703.827 967.673 697.971 C 959.8 694.198 952.214 690.299 946.067 683.77 C 936.756 673.88 947.664 662.059 953.237 651.557 C 960.194 638.446 971.978 617.822 967.101 602.262 C 965.12 595.65 961.066 588.014 961.867 580.932 C 964.447 558.104 965.986 535.091 968.056 512.255 C 966.553 511.361 965.08 510.416 963.642 509.422 C 939.654 493.08 928.269 472.012 922.907 444.016 C 980.596 463.13 1007.95 440.612 1059.81 419.301 C 1087.93 407.747 1117.36 399.131 1147.82 397.438 z" fill="rgb(0,0,0)" transform="translate(0,0)"></path>
<path d="M 1288.5 824.232 L 1289.02 824.274 C 1293.75 828.317 1309.75 892.252 1312.36 902.026 C 1326.99 955.409 1338.07 1009.7 1345.51 1064.55 C 1352.69 1119.99 1354.82 1174.16 1355.52 1230.02 C 1357.07 1353.18 1348.69 1476.59 1334.28 1598.87 C 1330.15 1633.89 1325.59 1668.19 1324.85 1703.49 C 1323.09 1787.13 1330.45 1870.97 1338.32 1954.18 C 1234.43 1974.69 1163.29 1979.85 1058.75 1962.45 C 1060.82 1949.62 1062.19 1936.04 1063.68 1923.07 C 1076.57 1819.94 1087.19 1716.54 1095.53 1612.95 C 1103.54 1520.15 1111.78 1420.72 1113.21 1327.6 C 1124.65 1320.46 1134.86 1311.52 1143.45 1301.12 C 1197.01 1235.51 1163.79 1124.3 1133.36 1055.83 C 1108.58 1000.08 1079.05 952.735 1031.57 914.132 C 1114.96 878.558 1199.15 842.759 1288.5 824.232 z" fill="rgb(255,255,255)" transform="translate(0,0)"></path>
<path d="M 966.443 965.797 C 967.675 966.117 968.81 966.454 970.029 967.03 C 1035.57 997.944 1081.82 1072.24 1111.13 1135.54 C 1115.02 1143.94 1122.34 1163.85 1121.38 1171.6 C 1119.06 1190.33 1114.6 1211.1 1111.06 1229.65 L 1087.68 1351.86 L 1064.66 1480.94 C 1060.85 1502.51 1056.76 1531.95 1050.91 1552.23 C 1032.57 1615.81 1012.36 1678.99 990.584 1741.47 C 972.489 1793.41 954.806 1848.01 933.942 1898.8 C 922.737 1894.42 908.586 1890.68 896.47 1886.18 C 904.184 1858.58 911.72 1830.94 919.076 1803.25 C 923.186 1788.64 939.994 1739.71 934.544 1728.38 C 932.874 1724.91 929.137 1722.47 925.549 1721.33 C 921.391 1720.02 916.82 1720.22 912.956 1722.32 C 909.72 1724.08 907.648 1726.75 906.241 1730.11 C 901.215 1742.08 899.15 1756.75 896.172 1769.39 C 887.837 1804.76 881.215 1841.59 870.115 1876.14 C 849.601 1868.5 835.474 1861.77 817.758 1848.76 L 864.66 1601.99 C 870.872 1569.35 877.108 1536.72 884.163 1504.26 C 884.83 1501.19 885.983 1496.61 886.19 1493.59 C 889.704 1442.55 894.863 1391.75 899.539 1340.81 C 910.329 1225.91 921.78 1111.07 933.889 996.298 C 943.69 986.11 955.894 975.433 966.443 965.797 z" fill="rgb(255,255,255)" transform="translate(0,0)"></path>
<path d="M 965.391 1161.16 L 967.763 1160.34 C 975.109 1239.25 987.237 1317.65 1004.08 1395.09 C 1008.64 1415.07 1013.82 1434.12 1019.71 1453.68 C 1021.62 1460.01 1035.79 1492.62 1035.4 1495.6 C 1031.4 1490.8 1022.48 1470.83 1020.08 1464.49 C 984.446 1370.38 973.865 1260.55 965.391 1161.16 z" fill="rgb(0,0,0)" transform="translate(0,0)"></path>
<path d="M 877.477 1779.02 C 888.954 1733.29 899.669 1686.95 915.741 1642.65 C 919.399 1632.56 924.783 1616.28 929.378 1607.05 L 930.028 1607.27 C 916.008 1664.42 893.703 1722.97 878.971 1780.16 L 877.477 1779.02 z" fill="rgb(0,0,0)" transform="translate(0,0)"></path>
<path d="M 965.391 1161.16 C 963.102 1147.6 960.219 1091.71 960.962 1077.92 C 962.907 1105.42 965.174 1132.9 967.763 1160.34 L 965.391 1161.16 z" fill="rgb(109,109,113)" transform="translate(0,0)"></path>
<path d="M 878.971 1780.16 C 877.2 1787.98 874.759 1795.63 871.673 1803.03 C 873.227 1795.83 874.986 1785.59 877.477 1779.02 L 878.971 1780.16 z" fill="rgb(158,160,163)" transform="translate(0,0)"></path>
<path d="M 1318.64 819.424 C 1342.06 816.836 1352.8 830.937 1370.36 843.716 C 1398.13 863.621 1425.67 883.857 1452.96 904.42 C 1456.5 923.278 1461.09 939.515 1464.44 959.873 C 1478.1 1044.17 1482.79 1129.68 1478.45 1214.97 C 1477.92 1226.25 1477.07 1237.45 1476.18 1248.69 C 1465.11 1388.53 1444.17 1528.36 1452.84 1668.98 C 1457.62 1746.53 1469.64 1823.89 1481.6 1900.68 C 1467.29 1909.79 1444.89 1919.74 1429.29 1926.11 C 1401.39 1937.41 1372.61 1946.4 1343.25 1953.01 C 1339.84 1914.87 1336.85 1876.7 1334.29 1838.5 C 1331.28 1793.02 1328.32 1740.64 1330.37 1695.04 C 1332.99 1637.04 1344.01 1576.05 1348.66 1517.72 C 1364.26 1322.39 1373.97 1137.45 1328.68 945.624 C 1323.18 922.197 1317.22 898.88 1310.8 875.687 C 1305.94 857.89 1301.46 839.638 1293.76 822.874 C 1303.39 821.03 1308.78 820.141 1318.64 819.424 z" fill="rgb(255,255,255)" transform="translate(0,0)"></path>
<path d="M 1140.69 407.382 C 1165.55 403.013 1203 413.52 1223.42 428.395 C 1268.41 461.157 1278.85 495.629 1288.11 545.869 C 1266.62 512.854 1245.87 493.568 1211.08 475.396 C 1218.78 482.044 1228.02 488.161 1235.94 495.176 C 1255.83 512.813 1274.94 535.203 1288.33 558.103 C 1288.44 591.674 1280.78 619.65 1268.15 650.491 C 1258.62 673.763 1251.95 687.325 1248.44 712.58 C 1218.1 699.777 1202.08 678.98 1192.29 647.92 C 1190.31 641.638 1188.44 630.467 1185.31 625.359 C 1189.99 668.202 1204.32 702.808 1248.45 716.329 L 1252.3 732.538 C 1199.07 735.51 1143.03 778.6 1106.31 814.742 C 1095.9 802.006 1090.13 795.102 1077.65 784.438 C 1094.83 775.191 1125.92 761.056 1134.52 744.587 C 1143.77 726.869 1142.71 703.722 1137.37 685.134 C 1137.47 713.181 1140.58 743.115 1112.51 758.388 C 1083.83 773.99 1053.6 788.429 1022.39 798.148 C 1017.66 799.623 1010.2 799.229 1005.49 798.065 C 987.423 794.097 996.59 770.77 993.711 758.032 C 992.683 753.348 988.03 745.623 985.436 741.111 L 986.062 724.059 C 994.421 724.243 1021.78 722.607 1025.3 713.817 C 1019.92 712.331 998.363 722.121 989.249 719.856 C 975.373 716.406 977.552 706.404 977.9 696.026 C 967.347 687.283 960.969 687.107 950.744 674.661 C 957.5 659.732 981.824 622.969 976.594 606.019 C 968.604 580.127 970.013 579.93 972.728 553.21 C 974.351 538.242 975.609 523.237 976.502 508.208 C 995.974 507.457 1019.92 500.195 1038.1 493.555 C 1039.11 520.379 1042.81 535.941 1063.31 554.084 C 1084.71 573.025 1085.23 599.908 1100.06 623.245 C 1100.32 633.312 1092.7 663.881 1096.56 668.972 L 1099.03 669.261 C 1107.82 663.474 1100.69 670.111 1113.4 667.647 C 1131.29 636.884 1111.29 613.898 1129.3 583.839 C 1134.89 570.997 1152.79 564.262 1165.3 572.414 C 1191.59 589.544 1173.22 656.412 1145.44 663.511 C 1139.54 665.019 1133.75 658.625 1128.85 655.831 L 1128.22 656.691 C 1137.93 675.894 1157.83 665.746 1166.96 651.502 C 1181.11 629.41 1193.85 588.402 1168.49 569.337 C 1151.51 556.581 1133.34 565.662 1124.58 582.463 C 1120.55 589.675 1118.13 598.721 1114.17 605.389 C 1110.56 605.312 1109.26 603.851 1105.82 601.877 L 1100.66 613.03 C 1096.14 604.442 1086.31 577.287 1082.19 571.711 C 1056.88 537.422 1042.71 538.391 1042 490.648 C 1051.62 480.775 1058.35 474.053 1069.3 465.779 C 1068.85 476.715 1068.68 487.682 1073.69 497.917 C 1093.48 538.513 1141.91 538.791 1180.48 545.917 C 1204.78 550.406 1234.46 558.052 1252.41 575.946 C 1260.08 583.597 1264.88 595.37 1269.17 605.189 C 1264.97 586.582 1261.24 577.57 1250.51 561.668 C 1231.06 532.837 1204.46 527.323 1174.42 515.665 C 1164.52 511.822 1153.38 505.435 1144.29 499.556 C 1170.72 529.053 1208.46 522.687 1242.58 560.687 C 1227.02 552.527 1210.42 546.514 1193.24 542.811 C 1158.76 535.072 1115.03 535.187 1088.12 509.771 C 1073.51 495.976 1072.48 482.858 1071.97 464.174 C 1082.74 457.086 1096.16 449.469 1108.03 444.472 C 1114.62 441.699 1122.26 440.821 1128.82 437.193 L 1126.07 436.931 L 1126.73 436.828 C 1101.75 441.344 1076.62 453.77 1057.08 470.072 C 1046.02 479.551 1042.39 488.614 1027.44 492.565 C 981.673 504.661 970.984 514.065 941.467 472.397 C 961.364 487.437 968.03 488.784 992.227 493.298 C 971.897 485.328 949.092 477.19 937.762 457.647 C 985.266 472.352 1024.08 442.69 1067.47 426.851 C 1092.3 417.786 1114.39 410.482 1140.69 407.382 z" fill="rgb(255,255,255)" transform="translate(0,0)"></path>
<path d="M 984.254 573.254 C 996.942 572.877 1020.64 576.522 1030.55 584.478 L 1030.62 586.121 C 1027.15 587.098 1023.58 585.436 1019.92 584.304 C 1014.91 586.414 978.141 587.189 974.481 582.662 C 974.567 576.76 979.145 574.541 984.254 573.254 z" fill="rgb(0,0,0)" transform="translate(0,0)"></path>
<path d="M 1150.35 579.801 C 1176.2 581.764 1166.02 631.248 1152.8 637.267 L 1152.38 636.516 C 1153.65 634.541 1154.89 632.548 1156.11 630.539 C 1164.1 617.245 1165.95 606.997 1162.26 592.151 C 1159.1 586.694 1152.63 580.62 1146.24 585.921 C 1130.97 598.596 1162.53 609.929 1141.63 623.252 L 1140.11 622.725 C 1139.3 617.835 1144.39 613.885 1144.29 611.276 C 1143.72 596.632 1126.52 590.963 1150.35 579.801 z" fill="rgb(0,0,0)" transform="translate(0,0)"></path>
<path d="M 993.723 600.982 C 1011.29 600.906 1015.73 600.987 1030.56 610.686 C 1024.32 609.38 1020.25 606.561 1015.61 608.018 C 1013.91 610.744 1012.88 611.999 1010.82 614.49 L 1009.75 615.577 L 1014.41 614.67 L 1014.63 615.842 C 1003.71 629.153 998.705 609.261 993.21 603.422 L 993.723 600.982 z" fill="rgb(0,0,0)" transform="translate(0,0)"></path>
<path d="M 1002.4 606.838 C 1003.54 605.665 1005.22 605.215 1006.79 605.671 C 1008.35 606.127 1009.54 607.413 1009.86 609.011 C 1010.18 610.608 1009.59 612.253 1008.33 613.282 C 1006.53 614.746 1003.9 614.556 1002.33 612.849 C 1000.76 611.142 1000.8 608.508 1002.4 606.838 z" fill="rgb(255,255,255)" transform="translate(0,0)"></path>
<path d="M 988.974 678.508 C 990.008 680.025 990.522 684.584 988.949 685.761 C 981.962 690.988 974.669 686.603 968.456 683.16 L 967.221 682.392 L 967.912 680.824 C 972.285 680.254 978.933 683.598 984.047 684.915 C 987.598 682.734 986.71 682.834 988.974 678.508 z" fill="rgb(0,0,0)" transform="translate(0,0)"></path>
<path d="M 997.632 594.943 C 1003.36 594.404 1006.67 594.839 1011.02 598.769 L 1010.41 599.827 L 1006.43 598.341 C 1002.72 595.704 1000.54 598.581 994.917 599.103 L 994.755 597.607 L 997.632 594.943 z" fill="rgb(0,0,0)" transform="translate(0,0)"></path>
<path d="M 1481.01 959.854 C 1493.2 969.692 1497.8 994.751 1500.22 1009.46 C 1520.45 1132.68 1535.42 1256.61 1553.25 1380.19 C 1557.47 1409.45 1561.86 1438.68 1566.41 1467.89 C 1567.04 1471.94 1572.79 1505.47 1572.17 1507.65 C 1556.97 1561.05 1536.65 1613.37 1518.83 1666.05 C 1504.03 1709.79 1488.67 1753.98 1471.89 1797 C 1466.95 1756.14 1462.61 1719.24 1459.24 1678.17 C 1455.41 1619.14 1455.5 1559.93 1459.53 1500.91 C 1476.64 1515.96 1487.74 1522.27 1509.24 1529.74 C 1488.67 1517.02 1478.79 1513.74 1460.27 1495.34 C 1460.33 1483.4 1461.8 1467.87 1463.28 1456.05 C 1479.12 1480.55 1503.66 1508.26 1530.86 1520.04 C 1507.4 1502.46 1478.96 1473.25 1463.84 1448.06 C 1464.98 1423.31 1468.27 1394.01 1470.64 1368.91 L 1482.66 1237.87 C 1484.74 1215.33 1488.48 1188.85 1489.71 1166.8 C 1493.29 1102.34 1493.02 1022.8 1481.01 959.854 z" fill="rgb(255,255,255)" transform="translate(0,0)"></path>
<path d="M 1099.66 1332.39 C 1101.62 1332.57 1102.47 1332.76 1104.41 1333.13 C 1105.22 1337.5 1103.94 1354.1 1103.67 1359.24 L 1100.62 1415.87 C 1093.41 1539.63 1083.34 1663.19 1070.4 1786.48 C 1064.74 1841.12 1059.39 1906.85 1050.66 1960.5 C 1019.62 1955.11 993.507 1947.39 963.753 1937.36 C 952.964 1933.64 942.903 1928.57 932.828 1923.28 C 935.478 1914.72 940.254 1906.14 943.314 1897.64 C 984.283 1783.81 1025.48 1669.8 1058.25 1553.27 C 1064 1532.86 1067.1 1506.22 1070.74 1484.95 L 1087.74 1389.56 C 1089.86 1377.55 1095.06 1341.89 1099.66 1332.39 z" fill="rgb(255,255,255)" transform="translate(0,0)"></path>
<path d="M 1011.56 927.741 C 1024.81 932.243 1062.51 978.522 1071.74 992.266 C 1116.84 1059.39 1157.47 1157.89 1143.98 1240.42 C 1139.07 1270.45 1127.57 1287.05 1103.42 1303.8 C 1104.63 1297.91 1105.67 1291.78 1106.77 1285.85 C 1111.5 1260.25 1116.41 1234.68 1121.51 1209.15 C 1128.61 1172.08 1133.03 1170.84 1117.27 1135.53 C 1085.19 1063.64 1042.5 998.773 971.496 961.138 C 983.914 949.813 998.438 938.14 1011.56 927.741 z" fill="rgb(255,255,255)" transform="translate(0,0)"></path>
<path d="M 1032.08 896.306 C 1035.08 893.307 1039.75 889.37 1043.35 886.715 C 1082.4 858.33 1116.97 814.135 1161.68 794.958 C 1195.89 780.282 1238.08 766.559 1275.19 762.574 C 1290.8 774.222 1305.75 786.736 1319.96 800.059 C 1242.77 804.278 1113.92 856.942 1042.71 891.568 C 1039.89 892.923 1034.89 895.526 1032.08 896.306 z" fill="rgb(255,255,255)" transform="translate(0,0)"></path>
<path d="M 815.726 1857.3 C 837.308 1868.97 857.246 1879.94 880.454 1888.53 C 895.98 1894.27 912.473 1898.21 927.679 1904.46 C 919.454 1927.06 912.792 1950.79 903.985 1974.75 L 901.12 1981.81 C 874.074 1972.62 826.047 1951.23 799.077 1939.12 L 815.726 1857.3 z" fill="rgb(255,255,255)" transform="translate(0,0)"></path>
<path d="M 892.313 1927.64 C 900.658 1927.54 907.57 1934.09 907.898 1942.43 C 908.226 1950.77 901.85 1957.86 893.522 1958.4 C 887.938 1958.77 882.594 1956.07 879.567 1951.37 C 876.539 1946.66 876.304 1940.68 878.953 1935.75 C 881.601 1930.82 886.717 1927.72 892.313 1927.64 z" fill="rgb(0,0,0)" transform="translate(0,0)"></path>
<path d="M 888.725 1933.33 C 892.383 1931.95 896.504 1932.67 899.472 1935.22 C 902.441 1937.76 903.785 1941.72 902.979 1945.55 C 902.173 1949.38 899.344 1952.46 895.601 1953.59 C 890.076 1955.26 884.221 1952.25 882.367 1946.78 C 880.512 1941.32 883.324 1935.37 888.725 1933.33 z" fill="rgb(255,255,255)" transform="translate(0,0)"></path>
<path d="M 890.024 1937.6 C 893.009 1936.27 896.51 1937.52 897.978 1940.44 C 899.447 1943.36 898.367 1946.92 895.525 1948.53 C 893.558 1949.64 891.139 1949.58 889.23 1948.37 C 887.322 1947.16 886.234 1945 886.399 1942.75 C 886.565 1940.49 887.958 1938.51 890.024 1937.6 z" fill="rgb(0,0,0)" transform="translate(0,0)"></path>
<path d="M 1026.84 915.88 C 1065.56 942.419 1098.95 994.673 1119.49 1035.77 C 1161.24 1119.33 1211.12 1276.61 1099.11 1329.1 C 1097.59 1319.12 1105.4 1315.96 1112.75 1310.9 C 1175.78 1267.41 1159.8 1173.44 1141 1111 C 1124.11 1054.93 1070.21 949.915 1016.42 921.635 L 1026.84 915.88 z" fill="rgb(255,255,255)" transform="translate(0,0)"></path>
<path d="M 915.96 1726.05 C 923.973 1725.31 933.762 1727.71 931.271 1737.97 C 927.436 1753.75 922.898 1769.44 918.664 1785.13 L 892.165 1884.64 C 885.847 1882.52 880.563 1880.49 874.383 1877.97 C 887.953 1829.96 897.389 1780.18 910.647 1732.07 C 911.335 1729.57 913.948 1727.55 915.96 1726.05 z" fill="rgb(255,255,255)" transform="translate(0,0)"></path>
<path d="M 1043.1 894.267 C 1064.5 884.184 1085.91 873.714 1107.85 864.845 C 1140.56 851.618 1296.7 794.296 1325.08 805.121 C 1327.38 806.001 1328.27 807.229 1329.48 809.298 L 1328.88 810.482 C 1322.42 811.925 1315.32 811.007 1308.48 812.215 C 1224.43 827.069 1142.52 856.237 1064.66 890.783 C 1048.02 898.166 1031.71 905.409 1015.11 912.779 C 1013.17 913.648 1001.28 922.753 998.842 924.597 C 1002.18 918.112 1021.63 904.016 1028.92 900.533 L 1029.8 897.47 L 1032.08 896.306 C 1034.89 895.526 1039.89 892.923 1042.71 891.568 L 1043.1 894.267 z" fill="rgb(255,255,255)" transform="translate(0,0)"></path>
<path d="M 1042.71 891.568 L 1043.1 894.267 C 1039.18 896.084 1032.82 899.249 1028.92 900.533 L 1029.8 897.47 L 1032.08 896.306 C 1034.89 895.526 1039.89 892.923 1042.71 891.568 z" fill="rgb(0,0,0)" transform="translate(0,0)"></path>
<path d="M 1240.06 740.389 C 1245.22 739.704 1252.25 739.763 1257.61 739.669 C 1262.11 745.773 1264.43 750.607 1267.55 757.465 C 1234.84 761.053 1173.53 781.952 1144.44 796.832 L 1123.07 810.249 C 1146.2 781.976 1202.49 744.565 1240.06 740.389 z" fill="rgb(255,255,255)" transform="translate(0,0)"></path>
<path d="M 1108.53 613.776 C 1111.2 617.565 1113.96 620.877 1116.89 624.456 C 1117.05 627.484 1117.16 630.515 1117.21 633.548 C 1117.29 641.903 1115.27 658.192 1109.35 664.18 L 1109.27 662.279 C 1105.86 660.778 1104.88 661.121 1101.39 662.254 L 1100.72 662.48 L 1099.03 661.575 C 1098.37 655.677 1100.85 651.478 1101.3 645.23 C 1101.89 637.008 1102.12 628.849 1102.52 620.627 C 1102.65 618.093 1106.36 615.567 1108.53 613.776 z" fill="rgb(255,255,255)" transform="translate(0,0)"></path>
<path d="M 1457.83 907.636 C 1459.25 908.822 1463.56 912.405 1464.05 913.855 C 1472.85 940.156 1476.74 977.424 1479.09 1004.21 L 1482.45 1043.26 L 1480.23 1043.91 C 1475.2 1001.02 1468.56 948.915 1457.83 907.636 z" fill="rgb(255,255,255)" transform="translate(0,0)"></path>
<path d="M 1483.11 1093.4 C 1483.68 1095.93 1484.21 1097.58 1484.34 1100.18 C 1484.63 1098.43 1484.82 1097.32 1485 1095.55 C 1486.2 1101.39 1486.54 1140.14 1485.16 1145.65 C 1483.32 1142.31 1482.85 1100.3 1483.11 1093.4 z" fill="rgb(69,69,72)" transform="translate(0,0)"></path>
<path d="M 1482.45 1043.26 C 1484.16 1056.83 1485.18 1081.9 1485 1095.55 C 1484.82 1097.32 1484.63 1098.43 1484.34 1100.18 C 1484.21 1097.58 1483.68 1095.93 1483.11 1093.4 C 1483.24 1078.21 1481.44 1059.34 1480.23 1043.91 L 1482.45 1043.26 z" fill="rgb(158,160,163)" transform="translate(0,0)"></path>
<path d="M 421.254 79.4161 C 456.183 77.6739 495.237 81.116 527.226 96.4864 C 546.442 105.719 544.85 122.45 563.533 135.927 C 604.466 165.008 646.108 193.078 688.422 220.11 C 699.803 227.442 713.225 233.543 723.982 240.93 C 728.011 249.07 735.092 281.3 737.519 292.064 C 751.698 354.475 763.531 417.397 772.992 480.696 C 774.127 488.794 780.08 528.321 779.748 534.384 C 778.794 551.803 772.296 580.157 769.917 599.393 C 763.58 649.103 759.229 699.045 756.874 749.102 C 754.607 805.586 753.677 862.115 754.085 918.643 L 755.976 1205.01 C 739.639 1212.19 713.487 1219.43 696.026 1224.59 C 621.418 1246.64 542.761 1259.07 464.838 1260.23 C 369.529 1264.12 267.435 1250.5 173.476 1232.86 C 165.293 1231.32 152.215 1229.96 145.938 1224.98 C 142.829 1217.94 147.715 1041.7 147.895 1013.35 C 148.58 905.648 148.131 798.096 136.036 690.933 C 132.209 657.026 127.254 623.256 121.178 589.679 C 116.974 565.461 111.753 541.09 109.469 516.603 C 107.4 494.425 108.932 472.098 111.011 449.972 C 113.206 426.63 138.584 249.25 146.491 240.294 C 151.944 234.118 208.671 206.752 221.247 199.97 C 235.778 192.133 250.859 184.45 264.768 175.563 C 284.197 163.149 302.146 147.105 320.607 133.176 C 329.005 126.838 339.318 121.365 347.008 114.342 C 350.927 110.764 353.957 105.961 357.374 101.901 C 372.863 83.4981 398.742 81.2283 421.254 79.4161 z" fill="rgb(0,0,0)" transform="translate(0,0)"></path>
<path d="M 647.817 207.028 C 656.114 209.838 695.428 235.077 705.393 240.96 C 711.968 264.103 716.683 289.713 721.736 313.451 C 734.165 371.857 744.815 430.628 753.67 489.682 C 757.355 514.038 762.176 541.983 764.14 566.384 C 764.462 570.385 759.813 598.019 758.947 605.318 C 755.132 636.872 751.989 668.503 749.52 700.19 C 746.644 743.615 744.851 787.104 744.143 830.618 C 743.798 859.759 744.629 890.661 743.585 919.546 C 727.993 925.571 711.881 930.315 695.845 934.985 C 696.145 837.539 698.248 740.107 702.155 642.739 C 702.433 635.032 704.889 596.654 702.486 591.873 C 697.214 597.173 697.908 623.992 697.606 632.161 L 695.543 693.019 C 694.066 736.831 692.964 780.655 692.237 824.486 C 692.051 861.719 691.639 898.95 691 936.178 C 677.336 940.079 658.632 944.042 645.92 948.803 C 645.851 966.009 645.723 983.153 645.133 1000.36 C 645.021 1003.62 645.846 1005.34 648.087 1007.47 C 655.159 1009.65 681.131 999.658 689.56 996.947 C 689.169 1013.08 689.191 1029.22 689.627 1045.36 C 690.632 1094.5 689.932 1145.94 689.971 1195.21 C 613.419 1218.88 513.607 1228.89 433.073 1229.31 L 431.941 683.46 C 438.771 675.426 446.155 668.884 453.88 661.754 C 452.68 670.089 452.438 676.095 457.536 683.692 C 460.983 688.881 466.441 692.392 472.592 693.377 C 478.889 694.347 485.314 692.784 490.461 689.03 C 509.328 675.29 498.978 647.139 472.196 645.803 C 479.76 638.078 490.981 624.275 498.608 615.689 C 556.752 550.227 616.689 464.053 646.284 381.096 C 652.352 363.955 657.501 346.503 661.708 328.813 C 664.928 315.246 667.422 301.261 671.278 287.91 C 669.377 286.02 666.484 283.892 664.324 282.196 C 664.852 255.661 657.87 231.253 647.817 207.028 z" fill="rgb(255,255,255)" transform="translate(0,0)"></path>
<path d="M 469.815 795.526 C 478.385 793.65 487.3 796.536 493.146 803.077 C 498.991 809.619 500.859 818.802 498.034 827.108 C 495.21 835.413 488.13 841.553 479.509 843.175 C 466.449 845.631 453.836 837.148 451.187 824.126 C 448.538 811.104 456.833 798.367 469.815 795.526 z" fill="rgb(0,0,0)" transform="translate(0,0)"></path>
<path d="M 471.565 799.763 C 478.538 798.547 485.622 801.199 490.083 806.694 C 494.544 812.19 495.683 819.668 493.06 826.242 C 490.437 832.816 484.462 837.457 477.443 838.371 C 466.909 839.744 457.209 832.446 455.61 821.944 C 454.011 811.441 461.099 801.587 471.565 799.763 z" fill="rgb(255,255,255)" transform="translate(0,0)"></path>
<path d="M 469.349 802.7 C 478.309 799.769 487.961 804.582 491.013 813.501 C 494.064 822.421 489.383 832.137 480.506 835.309 C 474.655 837.4 468.132 836.18 463.433 832.116 C 458.733 828.052 456.585 821.773 457.81 815.682 C 459.035 809.591 463.444 804.631 469.349 802.7 z" fill="rgb(0,0,0)" transform="translate(0,0)"></path>
<path d="M 471.506 805.792 C 478.936 804.037 486.37 808.679 488.054 816.125 C 489.738 823.571 485.026 830.961 477.565 832.574 C 470.203 834.166 462.932 829.53 461.271 822.184 C 459.609 814.837 464.176 807.523 471.506 805.792 z" fill="rgb(255,255,255)" transform="translate(0,0)"></path>
<path d="M 469.511 809.806 C 475.174 809.546 476.966 808.794 480.803 813.388 L 480.362 814.972 C 475.926 812.896 470.537 809.876 467.995 815.104 C 468.385 819.055 468.533 819.504 470.697 822.831 C 474.043 824.475 472.905 823.992 477.128 823.601 C 478.199 821.127 478.651 820.292 480.039 817.968 L 481.04 818.045 C 480.518 825.322 475.961 828.816 469.13 825.5 C 464.912 819.943 465.112 815.045 469.511 809.806 z" fill="rgb(0,0,0)" transform="translate(0,0)"></path>
<path d="M 598.449 795.781 C 611.391 793.07 624.087 801.338 626.841 814.27 C 629.596 827.202 621.371 839.926 608.449 842.724 C 595.464 845.535 582.667 837.263 579.899 824.269 C 577.131 811.275 585.446 798.506 598.449 795.781 z" fill="rgb(0,0,0)" transform="translate(0,0)"></path>
<path d="M 599.27 800.073 C 609.776 797.889 620.054 804.665 622.187 815.181 C 624.321 825.697 617.496 835.943 606.97 838.026 C 596.515 840.095 586.353 833.326 584.234 822.881 C 582.115 812.436 588.836 802.242 599.27 800.073 z" fill="rgb(255,255,255)" transform="translate(0,0)"></path>
<path d="M 599.79 802.942 C 608.785 800.966 617.697 806.589 619.786 815.558 C 621.876 824.527 616.366 833.51 607.424 835.713 C 601.538 837.162 595.327 835.334 591.166 830.927 C 587.004 826.519 585.535 820.213 587.32 814.42 C 589.106 808.627 593.869 804.243 599.79 802.942 z" fill="rgb(0,0,0)" transform="translate(0,0)"></path>
<path d="M 598.516 806.807 C 605.435 804.331 613.072 807.792 615.77 814.628 C 618.468 821.464 615.255 829.208 608.51 832.125 C 603.949 834.098 598.675 833.429 594.751 830.38 C 590.826 827.331 588.875 822.387 589.658 817.48 C 590.442 812.572 593.837 808.482 598.516 806.807 z" fill="rgb(255,255,255)" transform="translate(0,0)"></path>
<path d="M 598.669 810.482 C 609.429 811.249 614.448 816.69 607.683 826.368 C 594.88 828.14 594.92 819.675 598.669 810.482 z" fill="rgb(0,0,0)" transform="translate(0,0)"></path>
<path d="M 600.691 813.924 C 603.21 812.729 606.224 813.68 607.6 816.104 C 608.977 818.528 608.249 821.604 605.932 823.154 C 604.274 824.264 602.136 824.353 600.391 823.386 C 598.647 822.418 597.59 820.557 597.653 818.563 C 597.716 816.57 598.889 814.779 600.691 813.924 z" fill="rgb(255,255,255)" transform="translate(0,0)"></path>
<path d="M 599.438 646.595 C 607.777 645.044 616.306 648.096 621.767 654.587 C 627.227 661.078 628.775 670.004 625.818 677.955 C 622.862 685.905 615.859 691.651 607.484 692.998 C 594.754 695.045 582.745 686.475 580.542 673.771 C 578.339 661.067 586.762 648.953 599.438 646.595 z" fill="rgb(0,0,0)" transform="translate(0,0)"></path>
<path d="M 597.905 651.587 C 607.833 648.441 618.423 653.992 621.484 663.947 C 624.546 673.901 618.906 684.443 608.925 687.42 C 599.064 690.362 588.675 684.804 585.65 674.968 C 582.624 665.132 588.095 654.696 597.905 651.587 z" fill="rgb(255,255,255)" transform="translate(0,0)"></path>
<path d="M 601.316 653.594 C 610.103 652.295 618.304 658.295 619.725 667.063 C 621.147 675.831 615.261 684.115 606.514 685.658 C 600.746 686.675 594.877 684.509 591.154 679.988 C 587.431 675.467 586.43 669.292 588.534 663.826 C 590.638 658.361 595.522 654.451 601.316 653.594 z" fill="rgb(0,0,0)" transform="translate(0,0)"></path>
<path d="M 601.328 656.637 C 608.461 655.374 615.262 660.151 616.494 667.289 C 617.727 674.428 612.921 681.208 605.777 682.41 C 598.677 683.605 591.946 678.835 590.721 671.739 C 589.496 664.643 594.237 657.892 601.328 656.637 z" fill="rgb(255,255,255)" transform="translate(0,0)"></path>
<path d="M 599.914 662.982 C 609.642 661.752 615.712 668.561 608.313 677.231 C 602.231 677.27 598.663 676.498 596.405 670.58 C 596.721 666.573 597.275 666.296 599.914 662.982 z" fill="rgb(0,0,0)" transform="translate(0,0)"></path>
<path d="M 602.267 665.265 C 604.954 664.387 607.846 665.842 608.742 668.523 C 609.639 671.204 608.204 674.106 605.529 675.022 C 602.828 675.946 599.891 674.494 598.985 671.786 C 598.08 669.078 599.553 666.151 602.267 665.265 z" fill="rgb(255,255,255)" transform="translate(0,0)"></path>
<path d="M 597.193 1090.53 C 605.415 1088.58 614.052 1091.2 619.807 1097.39 C 625.561 1103.58 627.545 1112.38 625.001 1120.44 C 622.457 1128.5 615.777 1134.57 607.512 1136.33 C 594.934 1139.02 582.538 1131.08 579.711 1118.53 C 576.884 1105.99 584.679 1093.5 597.193 1090.53 z" fill="rgb(0,0,0)" transform="translate(0,0)"></path>
<path d="M 596.268 1095.48 C 602.575 1093.16 609.64 1094.43 614.749 1098.79 C 619.858 1103.15 622.216 1109.93 620.917 1116.52 C 619.618 1123.12 614.864 1128.49 608.482 1130.59 C 598.846 1133.76 588.45 1128.62 585.117 1119.04 C 581.785 1109.46 586.747 1098.97 596.268 1095.48 z" fill="rgb(255,255,255)" transform="translate(0,0)"></path>
<path d="M 598.793 1097.54 C 607.426 1095.16 616.343 1100.27 618.664 1108.92 C 620.984 1117.56 615.82 1126.45 607.157 1128.71 C 598.574 1130.95 589.789 1125.85 587.49 1117.28 C 585.191 1108.71 590.24 1099.89 598.793 1097.54 z" fill="rgb(0,0,0)" transform="translate(0,0)"></path>
<path d="M 599.429 1100.65 C 606.352 1098.88 613.389 1103.09 615.106 1110.03 C 616.822 1116.96 612.561 1123.97 605.613 1125.64 C 598.735 1127.29 591.814 1123.08 590.115 1116.21 C 588.415 1109.34 592.575 1102.39 599.429 1100.65 z" fill="rgb(255,255,255)" transform="translate(0,0)"></path>
<path d="M 599.518 944.193 C 607.742 942.315 616.342 944.998 622.038 951.22 C 627.735 957.442 629.65 966.245 627.055 974.272 C 624.459 982.298 617.753 988.313 609.492 990.022 C 596.9 992.627 584.559 984.608 581.825 972.043 C 579.09 959.479 586.983 947.056 599.518 944.193 z" fill="rgb(0,0,0)" transform="translate(0,0)"></path>
<path d="M 599.56 948.381 C 605.994 946.507 612.939 948.238 617.741 952.912 C 622.544 957.586 624.462 964.481 622.763 970.964 C 621.065 977.447 616.011 982.515 609.534 984.233 C 599.685 986.845 589.567 981.051 586.836 971.234 C 584.105 961.418 589.777 951.23 599.56 948.381 z" fill="rgb(255,255,255)" transform="translate(0,0)"></path>
<path d="M 598.879 951.231 C 621.769 949.408 631.366 971.697 610.684 981.701 C 602.616 982.507 595.605 981.96 590.725 974.422 C 588.555 971.06 587.897 966.942 588.912 963.072 C 590.455 957.042 593.953 954.36 598.879 951.231 z" fill="rgb(0,0,0)" transform="translate(0,0)"></path>
<path d="M 600.994 954.171 C 607.779 953.662 613.29 955.401 616.543 961.954 C 617.969 964.774 618.165 968.059 617.085 971.029 C 615.412 975.742 612.634 976.913 608.326 978.84 C 589.583 979.185 584.803 963.635 600.994 954.171 z" fill="rgb(255,255,255)" transform="translate(0,0)"></path>
<path d="M 599.047 969.446 C 597.077 967.55 597.259 967.608 596.401 964.969 C 598.462 956.019 607.95 955.943 613.124 963.988 C 612.962 967.383 612.999 968.19 612.077 971.407 L 610.094 972.505 L 611.744 970.851 L 609.703 972.124 C 604.45 972.169 603.733 971.742 599.047 969.446 z" fill="rgb(69,69,72)" transform="translate(0,0)"></path>
<path d="M 598.017 966.124 C 599.071 961.527 599.57 961.724 603.423 960.401 C 608.059 960.879 609.147 961.714 613.124 963.988 C 608.433 969.525 603.769 971.175 598.017 966.124 z" fill="rgb(255,255,255)" transform="translate(0,0)"></path>
<path d="M 471.223 944.288 C 479.376 942.132 488.058 944.533 493.946 950.571 C 499.834 956.609 502.015 965.349 499.655 973.445 C 497.294 981.541 490.758 987.74 482.547 989.667 C 470.096 992.591 457.606 984.971 454.509 972.562 C 451.413 960.152 458.858 947.557 471.223 944.288 z" fill="rgb(0,0,0)" transform="translate(0,0)"></path>
<path d="M 474.456 948.427 C 484.363 946.981 493.607 953.727 495.25 963.603 C 496.894 973.48 490.334 982.856 480.492 984.696 C 473.949 985.92 467.255 983.511 462.992 978.399 C 458.728 973.287 457.56 966.27 459.938 960.053 C 462.317 953.835 467.869 949.389 474.456 948.427 z" fill="rgb(255,255,255)" transform="translate(0,0)"></path>
<path d="M 476.662 951.315 C 496.214 949.154 499.431 976.763 479.566 982.107 C 454.86 978.839 456.158 955.005 476.662 951.315 z" fill="rgb(0,0,0)" transform="translate(0,0)"></path>
<path d="M 476.627 953.893 C 501.057 957.958 487.099 991.991 465.201 972.795 C 461.158 963.459 466.162 958.807 471.339 950.979 C 469.456 957.034 467.571 959.98 467.293 966.223 C 470.25 964.453 469.747 958.082 476.627 953.893 z" fill="rgb(255,255,255)" transform="translate(0,0)"></path>
<path d="M 476.796 1089.42 C 489.747 1088.57 500.908 1098.44 501.655 1111.39 C 502.402 1124.35 492.45 1135.44 479.487 1136.08 C 466.664 1136.72 455.725 1126.9 454.986 1114.09 C 454.247 1101.27 463.984 1090.25 476.796 1089.42 z" fill="rgb(0,0,0)" transform="translate(0,0)"></path>
<path d="M 473.625 1094.69 C 483.544 1092.15 493.634 1098.18 496.083 1108.12 C 498.531 1118.07 492.398 1128.1 482.432 1130.45 C 472.602 1132.77 462.737 1126.74 460.322 1116.93 C 457.907 1107.12 463.842 1097.2 473.625 1094.69 z" fill="rgb(255,255,255)" transform="translate(0,0)"></path>
<path d="M 474.147 1097.43 C 482.462 1095.19 491.009 1100.16 493.19 1108.49 C 495.372 1116.82 490.354 1125.33 482.009 1127.46 C 473.742 1129.56 465.324 1124.6 463.163 1116.35 C 461.002 1108.1 465.908 1099.65 474.147 1097.43 z" fill="rgb(0,0,0)" transform="translate(0,0)"></path>
<path d="M 474.43 1099.57 C 480.03 1100.81 483.832 1100.38 487.84 1105.12 C 493.728 1112.09 490.614 1119.48 483.787 1124.51 C 464.944 1126.54 458.875 1111.56 474.43 1099.57 z" fill="rgb(255,255,255)" transform="translate(0,0)"></path>
<path d="M 473.694 1103.94 C 478.914 1104.16 477.481 1103.34 480.929 1106.13 L 480.318 1107.35 C 477.826 1107.15 476.482 1106.46 474.18 1105.57 L 470.94 1110.99 L 469.798 1111.21 C 470.634 1107.28 470.995 1107.11 473.694 1103.94 z" fill="rgb(0,0,0)" transform="translate(0,0)"></path>
<path d="M 269.833 185.01 C 274.471 190.707 288.986 275.257 292.529 288.413 C 293.077 290.445 291.091 293.681 291.161 294.868 C 291.681 303.607 303.988 319.969 308.722 327.328 C 341.598 378.865 377.773 428.221 417.02 475.088 C 434.41 495.72 467.082 528.74 481.106 548.126 L 481.917 549.26 C 469.964 573.506 460.287 597.434 446.441 621.469 C 435.997 639.599 424.803 654.004 414.278 670.994 C 412.771 733.547 413.823 800.166 413.81 862.968 L 413.989 1229.11 C 394.013 1228.33 374.052 1227.24 354.111 1225.83 C 353.099 1159.39 353.017 1092.94 353.865 1026.49 C 364.365 1028.26 389.594 1034.86 397.187 1029.72 C 401.574 1023.05 399.3 1015.64 399.344 1007.97 C 399.405 997.649 399.432 987.335 399.538 977.01 C 389.699 973.989 364.043 969.965 352.872 967.9 C 350.425 858.632 342.97 749.533 330.53 640.948 C 329.263 630.742 326.78 602.644 322.439 594.369 L 321.097 594.31 C 318.587 602.737 323.415 626.841 324.626 636.481 C 327.214 657.882 329.589 679.309 331.75 700.757 C 339.987 789.463 345.392 878.408 347.96 967.459 C 322.146 963.198 296.279 959.274 270.363 955.686 C 264.334 954.816 226.983 948.627 225.347 951.226 C 221.953 956.617 221.757 996.027 221.993 1003.03 C 252.924 1011.96 315.199 1020.28 348.691 1025.49 C 348.235 1092.22 348.359 1158.96 349.063 1225.69 C 314.943 1222.5 280.907 1218.46 246.989 1213.57 C 225.651 1210.5 201.75 1207.13 181.023 1201.99 C 183.575 1120.77 182.724 1040.75 182.917 959.5 C 183.164 855.228 183.925 740.042 170.583 636.425 C 197.914 615.981 211.835 607.461 226.942 573.322 C 268.021 480.493 222.116 375.652 191.846 286.471 C 186.308 270.155 177.085 253.891 170.997 237.593 C 201.898 219.981 238.039 202.706 269.833 185.01 z" fill="rgb(255,255,255)" transform="translate(0,0)"></path>
<path d="M 568.226 256.322 C 578.354 260.246 594.06 268.332 604.361 273.17 C 620.337 280.639 636.466 287.776 652.738 294.575 C 646.638 317.843 642.611 337.996 634.343 361.077 C 605.427 441.805 559.187 512.401 505.947 579.016 C 491.816 596.697 474.567 615.745 459.708 633.021 C 453.162 640.929 427.786 671.427 421.542 676.802 C 417.381 671.274 434.524 652.709 438.281 646.151 C 505.748 528.385 563.028 393.608 568.226 256.322 z" fill="rgb(255,255,255)" transform="translate(0,0)"></path>
<path d="M 395.124 251.902 C 398.037 253.706 404.13 270.694 405.988 274.654 C 436.881 340.496 474.817 409.831 515.397 470.167 C 510.264 488.665 500.089 510.806 491.492 527.906 C 481.992 517.666 472.526 508.647 463.295 497.906 C 446.345 478.8 429.114 459.749 413.079 439.886 C 388.2 408.554 364.646 376.193 342.479 342.886 C 333.869 330.15 319.539 310.234 312.433 297.266 C 316.571 294.389 321.602 291.521 326.101 289.188 C 349.441 277.082 372.439 265.257 395.124 251.902 z" fill="rgb(255,255,255)" transform="translate(0,0)"></path>
<path d="M 161.407 267.437 C 172.481 290.384 178.147 309.086 186.071 332.888 C 204.913 389.487 220.959 444.314 218.722 504.699 C 217.188 546.102 208.979 572.283 178.416 600.934 C 168.627 608.833 162.813 612.547 151.471 617.978 C 148.564 605.52 147.916 591.046 145.219 578.761 C 129.173 505.654 135.431 436.818 147.97 363.82 C 153.301 332.788 156.486 299.347 161.407 267.437 z" fill="rgb(255,255,255)" transform="translate(0,0)"></path>
<path d="M 487.959 205.194 C 515.13 202.827 511.242 200.813 528.267 222.598 C 537.233 234.071 551.969 254.896 562.662 263.57 C 557.396 337.145 543.198 394.569 518.27 463.634 C 512.685 454.962 507.046 446.324 501.354 437.72 C 496.769 372.231 492.826 302.46 489.543 236.859 C 489.078 233.065 489.043 225.986 488.906 221.925 C 488.409 216.189 487.865 210.963 487.959 205.194 z" fill="rgb(255,255,255)" transform="translate(0,0)"></path>
<path d="M 492.051 222.971 C 494.258 218.894 498.969 216.859 503.45 218.047 C 507.931 219.235 511.015 223.337 510.912 227.971 C 510.809 232.606 507.545 236.567 503.016 237.554 C 498.487 238.542 493.871 236.299 491.848 232.128 L 489.543 236.859 C 489.078 233.065 489.043 225.986 488.906 221.925 L 492.051 222.971 z" fill="rgb(0,0,0)" transform="translate(0,0)"></path>
<path d="M 488.906 221.925 L 492.051 222.971 C 490.514 225.813 490.438 229.221 491.848 232.128 L 489.543 236.859 C 489.078 233.065 489.043 225.986 488.906 221.925 z" fill="rgb(255,255,255)" transform="translate(0,0)"></path>
<path d="M 498.148 222.403 C 499.97 221.365 502.224 221.455 503.957 222.636 C 505.69 223.816 506.6 225.881 506.301 227.956 C 506.002 230.032 504.547 231.756 502.551 232.399 C 499.873 233.262 496.976 231.961 495.842 229.386 C 494.708 226.812 495.704 223.796 498.148 222.403 z" fill="rgb(255,255,255)" transform="translate(0,0)"></path>
<path d="M 165.736 638.972 C 166.884 642.31 169.227 677.444 169.646 683.259 C 172.865 725.384 175.182 767.572 176.595 809.796 C 178.331 879.125 176.948 950.464 176.879 1019.98 L 176.912 1129.16 C 176.816 1151.52 176.946 1178.6 175.061 1200.73 C 170.541 1199.92 157.964 1198.58 155.697 1196.05 C 157.45 1063.56 162.497 931.712 154.967 799.104 C 151.963 746.201 149.187 702.185 140.763 649.815 C 149.222 646.52 157.553 642.902 165.736 638.972 z" fill="rgb(255,255,255)" transform="translate(0,0)"></path>
<path d="M 478.849 198.865 C 481.939 201.105 482.899 203.382 483.065 207.192 C 484.939 250.169 487.938 293.584 490.778 336.465 C 492.803 367.041 493.366 397.604 496.021 427.938 C 486.729 413.531 477.782 398.904 469.189 384.069 C 450.518 352.444 419.942 295.425 407.076 262.31 C 424.006 239.715 453.138 210.405 478.849 198.865 z" fill="rgb(255,255,255)" transform="translate(0,0)"></path>
<path d="M 742.627 978.105 C 742.984 978.569 743.34 979.033 743.696 979.496 C 744.064 1035.38 746.001 1124.64 745.037 1177.1 C 731.431 1183.57 711.573 1189.19 697.225 1193.17 L 695.363 1192.34 C 694.519 1188.12 694.973 1146.75 694.954 1139.24 L 694.808 995.145 C 710.494 989.872 726.976 983.702 742.627 978.105 z" fill="rgb(255,255,255)" transform="translate(0,0)"></path>
<path d="M 345.585 126.781 C 345.735 126.947 384.435 226.327 388.81 236.717 C 369.62 248.157 346.475 260.213 326.594 270.667 L 313.18 277.894 C 303.574 256.297 292.315 195.918 288.096 170.542 C 307.414 156.16 326.578 141.572 345.585 126.781 z" fill="rgb(255,255,255)" transform="translate(0,0)"></path>
<path d="M 364.838 107.725 C 403.482 144.456 443.93 159.256 485.433 190.787 C 462.446 199.366 455.276 205.051 437.502 221.314 C 425.858 232.31 414.766 244.793 404.145 256.753 C 384.018 216.44 366.359 168.06 351.186 125.635 L 364.838 107.725 z" fill="rgb(255,255,255)" transform="translate(0,0)"></path>
<path d="M 557.085 143.625 C 565.585 148.344 617.637 184.175 622.35 189.853 C 635.251 205.393 645.679 253.946 648.132 274.747 C 640.024 272.806 576.954 241.8 568.251 236.962 C 567.703 205.552 563.961 174.279 557.085 143.625 z" fill="rgb(255,255,255)" transform="translate(0,0)"></path>
<path d="M 436.614 123.458 C 464.479 121.938 501.462 127.03 527.882 135.948 C 524.87 148.385 520.036 160.308 513.537 171.331 C 511.132 175.445 498.395 194.959 494.673 195.923 L 493.218 193.977 C 481.81 173.988 419.611 144.622 395.667 126.839 C 410.156 124.769 422.066 123.998 436.614 123.458 z" fill="rgb(255,255,255)" transform="translate(0,0)"></path>
<path d="M 684.798 1201.24 C 686.781 1200.78 686.637 1200.75 688.528 1201.49 C 690.212 1205.59 689.506 1211.12 689.353 1215.76 C 602.982 1240.78 526.253 1249.7 436.75 1250.38 C 434.771 1250.39 435.556 1250.52 433.705 1249.45 C 432.467 1244.85 432.966 1237.87 433.068 1232.88 C 517.981 1233.05 602.57 1222.42 684.798 1201.24 z" fill="rgb(255,255,255)" transform="translate(0,0)"></path>
<path d="M 428.502 687.728 C 429.278 691.776 429.054 705.107 429.065 709.839 C 429.066 724.198 429.139 738.556 429.284 752.914 C 429.722 824.483 429.67 896.054 429.13 967.622 L 429.135 1159.93 L 429.372 1216.92 C 429.425 1225.82 429.954 1240.76 428.972 1249.22 C 425.868 1251.02 425.671 1250.31 421.398 1250.2 L 421.138 698.12 C 423.748 693.594 425.249 691.764 428.502 687.728 z" fill="rgb(255,255,255)" transform="translate(0,0)"></path>
<path d="M 433.065 88.4697 C 466.956 88.5106 502.928 92.4214 532.282 111.001 C 531.766 116.662 530.116 125.143 529.171 130.951 C 509.311 124.395 494.842 121.802 474.239 119.302 C 442.882 116.079 419.631 117.744 388.885 122.253 C 381.548 116.421 374.446 110.299 367.598 103.9 C 388.98 91.5539 409.102 89.6278 433.065 88.4697 z" fill="rgb(255,255,255)" transform="translate(0,0)"></path>
<path d="M 536.212 120.411 C 561.441 135.862 563.334 228.389 561.961 255.81 C 557.172 250.782 551.75 243.934 547.212 238.51 C 538.601 228.367 531.629 218.065 523.383 207.835 C 516.631 199.458 511.663 198.147 501.892 197.55 C 521.964 169.867 530.938 154.699 536.212 120.411 z" fill="rgb(255,255,255)" transform="translate(0,0)"></path>
<path d="M 230.07 957.504 C 235.47 957.909 241.769 958.968 247.152 959.848 C 294.987 967.667 344.926 972.173 392.286 982.452 L 391.832 1004.34 C 366.264 999.065 331.566 995.805 304.751 991.42 C 281.875 987.679 251.582 981.97 229.176 979.603 L 230.07 957.504 z" fill="rgb(255,255,255)" transform="translate(0,0)"></path>
<path d="M 567.9 245.66 C 586.67 255.779 608.551 265.935 627.964 274.879 C 639.457 280.175 652.116 284.467 664.016 289.906 C 656.757 317.699 649.981 347.727 640.219 374.506 C 596.381 494.769 512.114 595.517 423.211 685.383 L 421.834 687.169 L 421.219 686.719 C 421.576 680.297 443.175 658.552 448.568 651.841 C 466.872 629.063 487.205 607.502 505.63 584.888 C 531.374 552.798 555.449 519.406 577.76 484.841 C 603.951 443.673 625.616 397.426 641.317 351.206 C 647.119 334.123 650.417 309.098 657.069 293.774 C 628.994 279.614 598.754 268.293 570.948 253.361 C 568.42 252.003 568.421 248.335 567.9 245.66 z" fill="rgb(255,255,255)" transform="translate(0,0)"></path>
<path d="M 161.895 244.012 L 165.396 241.902 L 164.368 241.795 L 166.936 240.215 C 174.642 244.225 209.058 347.349 214.311 361.862 C 247.845 454.513 263.165 603.621 143.253 643.45 C 138.266 642.359 138.922 640.3 138.02 635.36 C 177.418 624.077 213.425 588.572 223.311 548.55 C 241.428 475.205 218.08 396.306 195.377 326.519 C 186.976 300.696 174.879 267.31 161.895 244.012 z" fill="rgb(255,255,255)" transform="translate(0,0)"></path>
<path d="M 153.9 251.146 C 155.632 254.557 158.29 259.324 158.042 263.033 C 156.782 281.885 152.85 301.857 150.302 320.581 C 143.56 370.116 133.962 420.918 131.101 470.716 C 129.067 506.12 134.714 543.314 140.406 578.137 C 142.489 590.881 144.563 608.087 147.255 620.414 C 143.606 621.952 141.57 623.635 138.359 622.889 C 137.907 621.668 137.395 620.416 137.053 619.163 C 137.485 608.195 132.731 584.054 130.593 572.537 C 127.142 553.946 123.984 537.008 121.69 518.052 L 121.361 515.271 C 118.145 462.651 127.284 412.492 135.777 360.753 L 150.929 265.697 C 151.83 260.794 152.629 255.967 153.9 251.146 z" fill="rgb(255,255,255)" transform="translate(0,0)"></path>
<path d="M 390.824 244.832 C 393.682 245.654 392.342 244.95 394.58 247.636 C 392.375 252.091 321.177 287.747 308.08 296.661 C 317.073 311.934 328.128 327.205 337.841 341.989 C 374.448 397.71 415.058 450.019 459.888 499.368 C 466.649 506.811 484.822 524.282 488.973 531.673 C 489.173 535.831 488.054 536.494 486.03 540.553 C 424.52 477.931 340.431 372.943 299.429 295.525 C 327.355 278.086 361.622 262.054 390.824 244.832 z" fill="rgb(255,255,255)" transform="translate(0,0)"></path>
<path d="M 180.76 1206.54 C 193.915 1207.66 218.777 1213.1 233.418 1215.34 C 271.804 1221.16 310.359 1225.81 349.028 1229.28 L 349.041 1247.2 C 288.95 1241.42 239.516 1233.69 179.994 1223.32 L 180.76 1206.54 z" fill="rgb(255,255,255)" transform="translate(0,0)"></path>
<path d="M 229.716 983.335 C 247.911 985.207 269.745 989.452 288.184 992.303 C 322.616 997.578 357.079 1002.65 391.571 1007.52 L 391.322 1024.35 C 372.969 1022.47 352.014 1018.4 333.548 1015.4 C 298.327 1009.85 263.164 1003.94 228.064 997.663 C 228.471 992.499 228.938 988.457 229.716 983.335 z" fill="rgb(255,255,255)" transform="translate(0,0)"></path>
<path d="M 742.7 927.036 C 743.618 933.055 743.145 947.562 743.106 954.225 C 711.84 963.875 685.264 972.171 653.227 980.571 C 652.348 973.594 652.739 960.903 652.752 953.485 C 683.117 946.089 713.503 938.295 742.7 927.036 z" fill="rgb(255,255,255)" transform="translate(0,0)"></path>
<path d="M 709.976 243.798 C 713.196 244.848 713.408 244.835 715.804 247.112 C 721.895 267.911 727.497 293.998 732.254 315.193 C 744.043 368.479 754.036 422.146 762.217 476.103 C 765.283 497.358 772.157 530.226 767.704 550.402 L 766.576 550.35 C 761.764 528.752 758.684 492.831 754.53 469.365 C 741.516 395.853 729.693 315.711 709.976 243.798 z" fill="rgb(255,255,255)" transform="translate(0,0)"></path>
<path d="M 741.163 957.996 L 742.205 958.266 C 743.735 960.985 743.26 967.272 743.264 970.734 C 715.533 980.683 683.25 991.038 655.075 999.882 L 653.587 999.497 C 652.523 995.845 652.993 987.644 653.062 983.481 C 682.914 976.764 712.334 968.253 741.163 957.996 z" fill="rgb(255,255,255)" transform="translate(0,0)"></path>
<path d="M 472.057 651.634 C 478.685 650.183 485.58 652.415 490.1 657.475 C 494.621 662.534 496.065 669.636 493.881 676.059 C 491.696 682.482 486.221 687.231 479.554 688.485 C 474.223 689.488 468.719 688.14 464.454 684.788 C 460.19 681.435 457.581 676.404 457.297 670.988 C 456.816 661.793 463.063 653.602 472.057 651.634 z" fill="rgb(255,255,255)" transform="translate(0,0)"></path>
<path d="M 470.077 655.145 C 478.443 654.364 485.699 655.192 490.54 663.153 C 492.628 666.515 493.201 670.601 492.119 674.408 C 490.476 680.34 486.758 682.84 481.893 685.728 C 460.315 687.874 449.575 668.066 470.077 655.145 z" fill="rgb(0,0,0)" transform="translate(0,0)"></path>
<path d="M 472.079 658.003 C 501.987 657.504 486.906 695.46 465.829 678.202 C 466.911 667.351 470.458 673.058 473.3 668.566 C 470.408 667.726 471.952 667.897 468.413 669.107 C 465.511 671.884 465.491 672.565 464.108 676.337 L 463.712 677.448 L 463.024 677.189 C 459.968 667.419 463.972 662.58 472.079 658.003 z" fill="rgb(255,255,255)" transform="translate(0,0)"></path>
<path d="M 354.232 1229.72 C 373.695 1230.37 394.508 1231.84 414.105 1232.79 L 414.096 1250.13 C 395.762 1249.95 372.823 1248.08 354.187 1247.07 L 354.232 1229.72 z" fill="rgb(255,255,255)" transform="translate(0,0)"></path>
<path d="M 284.895 173.042 C 288.573 177.422 298.754 255.498 305.223 266.589 C 306.125 268.135 308.212 276.07 308.878 278.438 C 307.47 281.074 305.459 281.528 302.479 283.208 C 298.124 282.043 293.474 252.357 292.205 246.499 L 277.261 178.234 L 284.895 173.042 z" fill="rgb(255,255,255)" transform="translate(0,0)"></path>
<path d="M 742.854 1181.99 L 744.233 1182.43 C 745.363 1185.56 744.858 1195.12 744.799 1199 C 729.584 1204.74 712.146 1209.58 696.494 1213.87 L 695.193 1213.35 C 693.992 1209.19 694.553 1202.99 694.675 1198.47 C 712.255 1193.32 725.703 1188.63 742.854 1181.99 z" fill="rgb(255,255,255)" transform="translate(0,0)"></path>
<path d="M 169.14 267.893 L 170.529 267.642 C 186.542 302.87 197.746 339.872 208.36 376.939 C 232.97 462.895 252.372 586.153 148.214 627.666 C 145.241 628.851 140.202 631.601 137.537 633.434 L 138.548 628.069 C 142.348 626.787 146.366 625.633 150.066 624.134 C 283.798 569.983 208.056 362.604 169.14 267.893 z" fill="rgb(109,109,113)" transform="translate(0,0)"></path>
<path d="M 140.38 311.332 C 141.161 316.749 136.388 342.767 135.333 350.009 C 130.149 385.603 111.552 484.439 119.956 516.665 L 120.857 516.627 L 121.361 515.271 L 121.69 518.052 L 120.073 519.151 C 118.94 533.994 131.048 582.026 133.153 599.563 C 133.762 604.64 135.356 611.977 134.689 616.981 C 130.899 602.568 129.184 586.029 126.261 571.195 C 121.495 544.78 114.8 516.555 116.021 489.466 C 118.194 441.243 126.449 392.739 134.199 345.13 C 135.996 334.087 137.882 322.145 140.38 311.332 z" fill="rgb(109,109,113)" transform="translate(0,0)"></path>
<path d="M 629.069 193.609 C 630.584 194.14 635.128 196.524 635.745 197.512 C 646.918 215.423 656.816 260.031 657.462 279.003 C 649.319 276.292 650.997 272.401 650.15 263.924 C 647.713 239.545 638.143 216.155 629.069 193.609 z" fill="rgb(255,255,255)" transform="translate(0,0)"></path>
<path d="M 155.444 1200.51 C 161.985 1201.82 168.582 1203.48 175.079 1205.04 C 175.27 1210.45 175.077 1216.39 175.004 1221.84 C 168.457 1220.77 161.57 1219.22 155.041 1217.87 C 155.11 1212.12 155.308 1206.27 155.444 1200.51 z" fill="rgb(255,255,255)" transform="translate(0,0)"></path>
<path d="M 164.875 258.114 C 162.642 255.399 158.512 247.858 158.328 244.432 L 159.594 245.264 C 161.185 248.317 164.89 254.591 165.153 257.646 L 164.875 258.114 z" fill="rgb(109,109,113)" transform="translate(0,0)"></path>
<metadata><recraft-signature>{"signed_by": "recraft", "signature_b64": "zoCsG++6KatKY6/N2QNvDNiGiRyJa9owCwnxErdqGlOJHvE2ZHlSn6esASZUxGDyj3IvDoUSHpi/qCWEEmCmCA==", "signing_algo": "Ed25519", "generation_timestamp": 1784516506, "identifier": "3d8d270d-cc4b-4895-a630-4eb764e0988b"}</recraft-signature></metadata></svg>